<svg width="24" height="24" viewBox="0 0 24 24" fill="none" xmlns="http://www.w3.org/2000/svg">
<path d="M6.38447 4.16276V4.48325L8.02267 6.14315L8.2142 6.33851L12.3959 10.5789C12.6121 10.8033 12.7388 11.0989 12.7521 11.4102C12.7521 11.4382 12.7687 11.4625 12.7687 11.4919C12.7674 11.6379 12.7379 11.7822 12.6819 11.9171C12.6245 12.0795 12.5346 12.2285 12.4176 12.355C12.412 12.3671 12.4047 12.3783 12.3959 12.3882C12.3895 12.3941 12.3821 12.3988 12.3742 12.4023C12.2498 12.5203 12.1024 12.6116 11.9413 12.6704C11.7997 12.7331 11.6468 12.7666 11.4919 12.7687C11.4663 12.7687 11.4459 12.756 11.4204 12.7547C11.105 12.7441 10.8049 12.6161 10.5789 12.3959L8.02523 9.88049L6.14315 8.02267L4.48325 6.38447H3.2064C3.03381 6.37109 2.87232 6.29421 2.75312 6.16869L1.84145 5.26595L0.187926 3.62648C0.09832 3.53874 0.0371501 3.42609 0.0123528 3.30316C-0.0124445 3.18022 0.000275176 3.05267 0.0488617 2.93706C0.0974482 2.82144 0.179659 2.72309 0.284828 2.65478C0.389997 2.58646 0.51327 2.55132 0.638654 2.55393H2.55393V0.638654C2.55132 0.51327 2.58646 0.389997 2.65478 0.284828C2.72309 0.179659 2.82144 0.0974482 2.93706 0.0488617C3.05267 0.000275176 3.18022 -0.0124445 3.30316 0.0123528C3.42609 0.0371501 3.53874 0.09832 3.62648 0.187926L6.16869 2.75312C6.29421 2.87232 6.37109 3.03381 6.38447 3.2064V4.16276Z" fill="#72738E"/>
<path d="M0.657492 7.68782L0.953721 7.98022C1.48827 8.5089 2.18844 8.83757 2.93667 8.91104C2.35997 10.819 2.43707 12.8649 3.15573 14.724C3.8744 16.5831 5.19345 18.1489 6.9035 19.1728C8.61356 20.1967 10.6166 20.6202 12.5948 20.3758C14.5729 20.1315 16.4128 19.2335 17.8223 17.8242C19.2319 16.415 20.1303 14.5753 20.3751 12.5972C20.6198 10.6191 20.1968 8.61597 19.1732 6.9057C18.1497 5.19542 16.5841 3.87604 14.7252 3.15697C12.8662 2.43791 10.8204 2.36037 8.91232 2.93667C8.83952 2.18889 8.51124 1.48904 7.98277 0.954998L7.68782 0.657492C10.1524 -0.212681 12.8395 -0.219298 15.3083 0.638724C17.7771 1.49675 19.8809 3.16845 21.2746 5.37953C22.6682 7.5906 23.2689 10.2097 22.9781 12.8071C22.6873 15.4046 21.5223 17.826 19.6741 19.6741C17.826 21.5223 15.4046 22.6873 12.8071 22.9781C10.2097 23.2689 7.5906 22.6682 5.37953 21.2746C3.16845 19.8809 1.49675 17.7771 0.638724 15.3083C-0.219298 12.8395 -0.212681 10.1524 0.657492 7.68782Z" fill="#72738E"/>
<path d="M14.1963 8.78798L10.6505 5.19237C10.9229 5.14659 11.198 5.11887 11.4741 5.10938C12.7368 5.10937 13.9711 5.4838 15.021 6.18531C16.0709 6.88682 16.8892 7.88391 17.3724 9.05048C17.8556 10.217 17.982 11.5007 17.7357 12.7391C17.4893 13.9775 16.8813 15.1151 15.9884 16.008C15.0956 16.9008 13.958 17.5089 12.7196 17.7552C11.4812 18.0015 10.1975 17.8751 9.03094 17.3919C7.86438 16.9087 6.86729 16.0904 6.16578 15.0405C5.46427 13.9906 5.08984 12.7563 5.08984 11.4936C5.09934 11.2176 5.12706 10.9424 5.17284 10.6701L8.76334 14.212H8.78249C9.49574 14.9039 10.4503 15.291 11.444 15.2913C12.4377 15.2916 13.3924 14.9051 14.1061 14.2137C14.8198 13.5223 15.2363 12.5802 15.2674 11.587C15.2986 10.5938 14.9419 9.62746 14.2729 8.89268C14.2505 8.85565 14.2248 8.82062 14.1963 8.78798Z" fill="#72738E"/>
</svg>
