<svg width="28" height="24" viewBox="0 0 28 24" fill="none" xmlns="http://www.w3.org/2000/svg">
<path d="M1.00274 24C0.630137 24 0.345205 23.8356 0.147945 23.5068C-0.0493151 23.1781 -0.0493151 22.8493 0.147945 22.5205L12.9041 0.493151C13.1014 0.164384 13.3863 0 13.7589 0C14.1315 0 14.4164 0.164384 14.6137 0.493151L27.3699 22.5205C27.5671 22.8493 27.5671 23.1781 27.3699 23.5068C27.1726 23.8356 26.8877 24 26.5151 24H1.00274ZM13.8904 9.13973C13.6055 9.13973 13.3699 9.23288 13.1836 9.41918C12.9973 9.60548 12.9041 9.8411 12.9041 10.126V15.5178C12.9041 15.8027 12.9973 16.0384 13.1836 16.2247C13.3699 16.411 13.6055 16.5041 13.8904 16.5041C14.1753 16.5041 14.411 16.411 14.5973 16.2247C14.7836 16.0384 14.8767 15.8027 14.8767 15.5178V10.126C14.8767 9.8411 14.7836 9.60548 14.5973 9.41918C14.411 9.23288 14.1753 9.13973 13.8904 9.13973ZM13.8904 20.1534C14.1753 20.1534 14.411 20.0603 14.5973 19.874C14.7836 19.6877 14.8767 19.4521 14.8767 19.1671C14.8767 18.8822 14.7836 18.6466 14.5973 18.4603C14.411 18.274 14.1753 18.1808 13.8904 18.1808C13.6055 18.1808 13.3699 18.274 13.1836 18.4603C12.9973 18.6466 12.9041 18.8822 12.9041 19.1671C12.9041 19.4521 12.9973 19.6877 13.1836 19.874C13.3699 20.0603 13.6055 20.1534 13.8904 20.1534V20.1534ZM2.71233 22.0274H24.8055L13.7589 2.9589L2.71233 22.0274Z" fill="#72738E"/>
</svg>
