<svg width="29" height="20" viewBox="0 0 29 20" fill="none" xmlns="http://www.w3.org/2000/svg">
<path d="M8.17762 6.90241C8.18356 6.81062 8.15273 6.72014 8.092 6.65105L5.34348 3.52412C5.28275 3.45503 5.19704 3.41289 5.10515 3.40696C5.0129 3.40108 4.92289 3.43186 4.8538 3.49259C3.59085 4.60274 2.54254 5.91198 1.73784 7.38391C1.69374 7.46468 1.68342 7.55964 1.7093 7.64788C1.73518 7.73617 1.79506 7.81058 1.87583 7.85467L5.52892 9.85151C5.58176 9.88042 5.63879 9.89411 5.69508 9.89411C5.81779 9.89411 5.93677 9.82881 5.99978 9.71352C6.53164 8.74061 7.22498 7.87499 8.06042 7.14064C8.12965 7.08001 8.17178 6.99429 8.17762 6.90241Z" fill="#72738E"/>
<path d="M9.40925 5.74188C9.47156 5.85936 9.59175 5.9263 9.71605 5.9263C9.77089 5.9263 9.82653 5.91326 9.87828 5.8858C10.8575 5.3665 11.9108 5.02765 13.0091 4.87864C13.199 4.85291 13.3321 4.67811 13.3063 4.48823L12.7468 0.362826C12.721 0.172989 12.5457 0.0400944 12.3563 0.0656457C10.6884 0.291871 9.0889 0.806355 7.60239 1.5948C7.43315 1.68458 7.36874 1.89451 7.45842 2.06384L9.40925 5.74188Z" fill="#72738E"/>
<path d="M4.94141 11.321L0.923399 10.2308C0.8346 10.2068 0.739868 10.2189 0.660038 10.2647C0.580207 10.3105 0.521864 10.386 0.497714 10.4748C0.167509 11.6923 0 12.9542 0 14.2254C0 14.443 0.00518501 14.6612 0.0159754 14.8927C0.0246171 15.0786 0.177972 15.2235 0.362297 15.2235C0.367715 15.2235 0.373227 15.2234 0.378646 15.2231L4.53745 15.031C4.62933 15.0268 4.71588 14.9862 4.77778 14.9182C4.83976 14.8502 4.87223 14.7603 4.86793 14.6684C4.86069 14.5124 4.85719 14.3674 4.85719 14.2254C4.85719 13.3837 4.96766 12.5497 5.18553 11.7466C5.23555 11.5617 5.1263 11.3712 4.94141 11.321Z" fill="#72738E"/>
<path d="M20.4998 1.34637C18.9859 0.616497 17.3683 0.164186 15.692 0.00172243C15.5999 -0.00752651 15.509 0.0207807 15.438 0.0792172C15.3669 0.1377 15.3221 0.221969 15.3132 0.313617L14.9118 4.45752C14.8933 4.64819 15.033 4.8178 15.2237 4.83625C16.3285 4.94327 17.3941 5.2412 18.3908 5.72163C18.4382 5.74452 18.4897 5.7561 18.5414 5.7561C18.58 5.7561 18.6187 5.74961 18.6558 5.73667C18.7427 5.70636 18.814 5.64269 18.8539 5.55982L20.6617 1.80947C20.7449 1.63692 20.6725 1.42952 20.4998 1.34637Z" fill="#72738E"/>
<path d="M26.6074 7.16414C26.6298 7.07488 26.616 6.98047 26.5687 6.90143C25.7077 5.46108 24.6099 4.19294 23.306 3.13244C23.2345 3.07443 23.1434 3.04724 23.0515 3.05644C22.96 3.06593 22.876 3.11128 22.818 3.18266L20.191 6.4125C20.133 6.48392 20.1056 6.57543 20.1151 6.66694C20.1245 6.75845 20.1699 6.84248 20.2413 6.90059C21.1041 7.60216 21.8302 8.44092 22.3997 9.39356C22.4647 9.50221 22.5797 9.56256 22.6978 9.56256C22.7584 9.56256 22.8197 9.54668 22.8755 9.51332L26.449 7.37729C26.5279 7.33006 26.5849 7.25341 26.6074 7.16414Z" fill="#72738E"/>
<path d="M27.9399 9.94648C27.8825 9.7636 27.6878 9.66173 27.5051 9.71913L23.5324 10.9639C23.3495 11.0212 23.2478 11.2158 23.305 11.3986C23.5901 12.3088 23.7347 13.2596 23.7347 14.2244C23.7347 14.3664 23.7312 14.5114 23.724 14.6674C23.7197 14.7593 23.7521 14.8492 23.8141 14.9172C23.8761 14.9852 23.9626 15.0258 24.0545 15.03L28.2133 15.2221C28.2188 15.2223 28.2242 15.2225 28.2296 15.2225C28.4138 15.2225 28.5672 15.0775 28.5759 14.8916C28.5866 14.6602 28.5919 14.4419 28.5919 14.2244C28.5918 12.7663 28.3726 11.327 27.9399 9.94648Z" fill="#72738E"/>
<path d="M14.2789 13.4947C14.2191 13.4947 14.1596 13.4967 14.1003 13.4998L8.46453 10.1747C8.32659 10.0931 8.15147 10.1136 8.0359 10.2244C7.92024 10.3352 7.8925 10.5093 7.96789 10.6505L11.0422 16.4126C11.0309 16.5236 11.0249 16.6356 11.0249 16.7487C11.0249 17.6179 11.3634 18.435 11.978 19.0496C12.5926 19.6643 13.4098 20.0027 14.279 20.0027C15.1482 20.0027 15.9653 19.6642 16.5799 19.0496C17.1945 18.435 17.533 17.6179 17.533 16.7487C17.533 15.8795 17.1945 15.0623 16.5799 14.4478C15.9653 13.8332 15.1481 13.4947 14.2789 13.4947Z" fill="#72738E"/>
</svg>
