<svg width="16" height="15" viewBox="0 0 16 15" fill="none" xmlns="http://www.w3.org/2000/svg">
<path d="M7.51857 0C3.36472 0 0 3.35653 0 7.50025C0 11.642 3.36472 15 7.51857 15C11.6724 15 15.0361 11.642 15.0361 7.50025C15.0361 3.35653 11.6724 0 7.51857 0ZM7.51857 13.7765C4.04337 13.7765 1.22645 10.967 1.22645 7.49975C1.22645 4.032 4.04337 1.22143 7.51857 1.22143C10.9938 1.22143 13.8112 4.0325 13.8112 7.50025C13.8112 10.967 10.9938 13.7765 7.51857 13.7765Z" fill="#E14848"/>
<path d="M8.31709 9.12156L8.62256 2.84375H6.42676L6.73324 9.12156H8.31709Z" fill="#E14848"/>
<path d="M7.52526 9.81348C6.78959 9.81348 6.27539 10.3269 6.27539 11.0755C6.27539 11.7957 6.77534 12.3361 7.49624 12.3361H7.52526C8.27518 12.3361 8.76139 11.7957 8.76139 11.0755C8.74764 10.3269 8.26144 9.81348 7.52526 9.81348Z" fill="#E14848"/>
</svg>
