<svg width="22" height="19" viewBox="0 0 22 19" fill="none" xmlns="http://www.w3.org/2000/svg">
<path d="M0 19L11 0L22 19H0ZM10.35 13.3H11.85V7.7H10.35V13.3ZM11.1 16.075C11.3167 16.075 11.4958 16.0042 11.6375 15.8625C11.7792 15.7208 11.85 15.5417 11.85 15.325C11.85 15.1083 11.7792 14.9292 11.6375 14.7875C11.4958 14.6458 11.3167 14.575 11.1 14.575C10.8833 14.575 10.7042 14.6458 10.5625 14.7875C10.4208 14.9292 10.35 15.1083 10.35 15.325C10.35 15.5417 10.4208 15.7208 10.5625 15.8625C10.7042 16.0042 10.8833 16.075 11.1 16.075ZM2.6 17.5H19.4L11 3L2.6 17.5Z" fill="#72738E"/>
</svg>
