<svg width="508" height="399" viewBox="0 0 508 399" fill="none" xmlns="http://www.w3.org/2000/svg">
<path d="M475.992 225.87C457.274 254.602 462.011 294.539 471.436 326.172C474.609 336.761 478.195 347.951 476.064 359.655C473.458 373.968 462.832 384.991 451.938 391.163C432.087 402.418 409.045 401.492 391.95 388.762C377.176 377.756 367.135 358.979 352.058 348.515C326.858 331.066 293.207 340.401 264.149 355.399C243.591 365.997 221.02 379.514 201.537 371.035C187.828 365.067 178.943 348.996 174.528 331.644C172.397 323.266 171.001 314.139 166.458 307.677C163.739 303.837 160.112 301.2 156.354 299.058C122.033 279.287 76.7505 293.9 43.5446 271.668C21.1369 256.679 7.80466 226.546 2.82718 194.557C-2.1503 162.568 0.302176 128.543 3.62956 95.0602C5.99137 71.2686 9.37769 45.8163 22.3835 26.7432C36.1419 6.5691 58.4589 -2.02142 78.1422 0.397987C97.8254 2.8174 115.133 14.7988 130.197 29.2644C149.024 47.3058 166.177 70.1861 190.081 76.4498C206.36 80.7288 223.903 76.7134 241.012 74.5993C269.617 71.1067 297.963 73.0496 326.119 75.358C353.078 77.5693 380.209 80.1645 405.527 89.5923C423.442 96.263 437.414 109.549 454.209 118.385C465.157 124.144 477.352 125.152 487.61 132.725C500.249 142.047 511.419 158.95 507.026 179.837C502.851 199.724 485.924 210.604 475.992 225.87Z" fill="#E7F3FF"/>
<path opacity="0.1" d="M401.801 109.317H383.975V135.707H401.801V109.317Z" fill="#9FC8FE"/>
<path opacity="0.1" d="M400.065 111.884H385.706V133.14H400.065V111.884Z" fill="#9FC8FE"/>
<path opacity="0.1" d="M375.169 90.9854H347.792V117.375H375.169V90.9854Z" fill="#9FC8FE"/>
<path opacity="0.1" d="M372.506 93.5518H350.452V114.808H372.506V93.5518Z" fill="#9FC8FE"/>
<path opacity="0.1" d="M111.851 51.7217H28.1731V53.9002H111.851V51.7217Z" fill="#9FC8FE"/>
<path opacity="0.1" d="M111.851 62.375H28.1731V64.5535H111.851V62.375Z" fill="#9FC8FE"/>
<path d="M177.882 192.965H169.333V286.389H177.882V192.965Z" fill="#D6D6E3"/>
<path d="M427.586 202.774V116.598C427.587 114.196 428.564 111.893 430.301 110.195C432.038 108.497 434.394 107.543 436.85 107.543V107.543C439.303 107.547 441.654 108.503 443.387 110.201C445.121 111.898 446.095 114.199 446.096 116.598V220.893C446.096 223.295 445.12 225.6 443.383 227.299C441.646 228.998 439.289 229.952 436.832 229.952H379.459C377.002 229.952 374.646 228.998 372.909 227.299C371.171 225.6 370.195 223.295 370.195 220.893V220.893C370.195 218.49 371.171 216.186 372.909 214.487C374.646 212.788 377.002 211.834 379.459 211.834H418.323C420.779 211.834 423.136 210.879 424.873 209.18C426.61 207.481 427.586 205.177 427.586 202.774V202.774Z" fill="#AEBEE1"/>
<path d="M427.586 202.774V116.598C427.587 114.196 428.564 111.893 430.301 110.195C432.038 108.497 434.394 107.543 436.85 107.543V107.543C439.303 107.547 441.654 108.503 443.387 110.201C445.121 111.898 446.095 114.199 446.096 116.598V220.893C446.096 223.295 445.12 225.6 443.383 227.299C441.646 228.998 439.289 229.952 436.832 229.952H379.459C377.002 229.952 374.646 228.998 372.909 227.299C371.171 225.6 370.195 223.295 370.195 220.893V220.893C370.195 218.49 371.171 216.186 372.909 214.487C374.646 212.788 377.002 211.834 379.459 211.834H418.323C420.779 211.834 423.136 210.879 424.873 209.18C426.61 207.481 427.586 205.177 427.586 202.774V202.774Z" fill="#535461"/>
<path d="M370.208 220.407C370.335 218.092 371.366 215.912 373.086 214.317C374.807 212.722 377.088 211.833 379.459 211.834H418.322C420.779 211.834 423.136 210.879 424.873 209.18C426.61 207.481 427.586 205.177 427.586 202.774V116.598C427.584 114.27 428.5 112.03 430.142 110.344C431.784 108.658 434.027 107.655 436.405 107.543V220.407H370.208Z" fill="#D6D6E3"/>
<path d="M83.9205 205.682V119.506C83.9205 117.107 82.9476 114.806 81.215 113.107C79.4824 111.409 77.1318 110.452 74.6787 110.446V110.446C72.2218 110.446 69.8656 111.401 68.1283 113.1C66.3911 114.799 65.4151 117.103 65.4151 119.506V223.8C65.4122 224.992 65.6497 226.172 66.1139 227.274C66.5782 228.375 67.2601 229.377 68.1206 230.22C68.9811 231.064 70.0033 231.733 71.1286 232.189C72.254 232.646 73.4603 232.881 74.6787 232.881H132.048C134.505 232.881 136.861 231.927 138.598 230.228C140.335 228.529 141.311 226.224 141.311 223.822V223.822C141.311 221.419 140.335 219.115 138.598 217.416C136.861 215.717 134.505 214.762 132.048 214.762H93.1885C91.9698 214.763 90.763 214.528 89.6371 214.072C88.5113 213.616 87.4886 212.947 86.6276 212.103C85.7667 211.259 85.0844 210.258 84.6198 209.156C84.1553 208.054 83.9177 206.874 83.9205 205.682V205.682Z" fill="#AEBEE1"/>
<path d="M83.9205 205.682V119.506C83.9205 117.107 82.9476 114.806 81.215 113.107C79.4824 111.409 77.1318 110.452 74.6787 110.446V110.446C72.2218 110.446 69.8656 111.401 68.1283 113.1C66.3911 114.799 65.4151 117.103 65.4151 119.506V223.8C65.4122 224.992 65.6497 226.172 66.1139 227.274C66.5782 228.375 67.2601 229.377 68.1206 230.22C68.9811 231.064 70.0033 231.733 71.1286 232.189C72.254 232.646 73.4603 232.881 74.6787 232.881H132.048C134.505 232.881 136.861 231.927 138.598 230.228C140.335 228.529 141.311 226.224 141.311 223.822V223.822C141.311 221.419 140.335 219.115 138.598 217.416C136.861 215.717 134.505 214.762 132.048 214.762H93.1885C91.9698 214.763 90.763 214.528 89.6371 214.072C88.5113 213.616 87.4886 212.947 86.6276 212.103C85.7667 211.259 85.0844 210.258 84.6198 209.156C84.1553 208.054 83.9177 206.874 83.9205 205.682V205.682Z" fill="#535461"/>
<path d="M141.299 223.315C141.171 221 140.141 218.821 138.42 217.226C136.7 215.631 134.419 214.742 132.048 214.742H93.1886C91.9718 214.743 90.7667 214.509 89.6423 214.054C88.5178 213.599 87.4961 212.931 86.6354 212.09C85.7748 211.249 85.092 210.25 84.6262 209.151C84.1604 208.051 83.9206 206.873 83.9206 205.683V119.506C83.9202 117.182 83.0058 114.946 81.3667 113.262C79.7275 111.578 77.4892 110.575 75.1147 110.46V223.315H141.299Z" fill="#D6D6E3"/>
<path d="M347.012 192.965H338.463V288.567H347.012V192.965Z" fill="#D6D6E3"/>
<path opacity="0.1" d="M177.882 192.965H169.333V199.871H177.882V192.965Z" fill="black"/>
<path opacity="0.1" d="M347.012 192.965H338.463V199.871H347.012V192.965Z" fill="black"/>
<path opacity="0.1" d="M199.866 136.073C199.73 137.545 199.557 139.038 199.348 140.55H198.14V136.073H199.866Z" fill="black"/>
<path d="M234.894 182.576C234.92 184.089 233.804 185.33 232.422 185.33H206.331V182.67H228.041C228.978 182.67 229.562 181.561 229.092 180.674L209.405 141.517C209.265 141.235 209.049 140.996 208.78 140.826C208.511 140.656 208.199 140.562 207.879 140.554H198.14V136.077H210.438C210.662 136.083 210.88 136.148 211.069 136.267C211.257 136.386 211.408 136.553 211.506 136.751L234.074 179.383C234.594 180.371 234.875 181.464 234.894 182.576Z" fill="#535461"/>
<path d="M186.976 175.473L186.618 176.061L183.274 173.878L193.619 96.0879H196.283C196.283 96.0879 196.392 96.446 196.57 97.1281C198.353 103.851 207.111 141.926 186.976 175.473Z" fill="#535461"/>
<path opacity="0.1" d="M196.566 97.1281L186.976 175.473L186.618 176.061L183.274 173.878L193.619 96.0879H196.283C196.283 96.0879 196.387 96.4588 196.566 97.1281Z" fill="black"/>
<path d="M190.063 95.2838L180.25 175.409L186.526 176.144L196.339 96.019L190.063 95.2838Z" fill="#D6D6E3"/>
<path d="M158.74 182.606C158.739 182.799 158.66 182.983 158.521 183.12C158.381 183.256 158.192 183.333 157.995 183.335H156.879C156.681 183.335 156.491 183.258 156.352 183.121C156.212 182.984 156.133 182.799 156.133 182.606C156.13 182.577 156.13 182.549 156.133 182.52C156.156 182.344 156.243 182.182 156.378 182.065C156.514 181.947 156.689 181.882 156.87 181.881H157.986C158.152 181.883 158.312 181.938 158.442 182.038C158.572 182.138 158.665 182.278 158.705 182.435C158.724 182.49 158.736 182.548 158.74 182.606V182.606Z" fill="#E3EDF9"/>
<path d="M162.084 182.606C162.083 182.799 162.004 182.983 161.864 183.12C161.725 183.256 161.536 183.334 161.339 183.335H160.223C160.025 183.335 159.835 183.258 159.695 183.121C159.556 182.984 159.477 182.799 159.477 182.606C159.477 182.538 159.488 182.47 159.508 182.405C159.541 182.287 159.605 182.18 159.695 182.094C159.763 182.026 159.845 181.972 159.934 181.936C160.024 181.899 160.121 181.88 160.218 181.881H161.334C161.478 181.88 161.619 181.92 161.74 181.996C161.862 182.071 161.958 182.179 162.019 182.307C162.061 182.401 162.083 182.503 162.084 182.606Z" fill="#E3EDF9"/>
<path d="M165.057 182.606C165.056 182.799 164.977 182.984 164.837 183.12C164.698 183.257 164.509 183.334 164.312 183.335H163.196C162.998 183.335 162.808 183.258 162.668 183.121C162.529 182.985 162.45 182.799 162.45 182.606C162.448 182.502 162.471 182.398 162.515 182.303C162.576 182.177 162.671 182.071 162.791 181.995C162.91 181.92 163.049 181.879 163.191 181.877H164.307C164.405 181.876 164.502 181.895 164.593 181.931C164.684 181.968 164.766 182.021 164.836 182.089C164.905 182.157 164.96 182.238 164.997 182.326C165.034 182.415 165.053 182.51 165.053 182.606H165.057Z" fill="#E3EDF9"/>
<path d="M168.405 182.606C168.404 182.799 168.325 182.983 168.185 183.12C168.046 183.256 167.857 183.334 167.659 183.335H166.543C166.407 183.335 166.273 183.298 166.157 183.229C166.04 183.159 165.945 183.06 165.883 182.942C165.82 182.824 165.791 182.691 165.8 182.558C165.809 182.425 165.855 182.297 165.933 182.188L166.02 182.094C166.088 182.026 166.17 181.972 166.26 181.936C166.349 181.899 166.446 181.88 166.543 181.881H167.659C167.761 181.882 167.861 181.903 167.954 181.944C168.047 181.984 168.131 182.042 168.2 182.115C168.331 182.246 168.404 182.422 168.405 182.606V182.606Z" fill="#E3EDF9"/>
<path opacity="0.1" d="M158.718 182.431C158.733 182.488 158.741 182.547 158.74 182.605C158.739 182.798 158.66 182.983 158.521 183.12C158.381 183.256 158.192 183.333 157.995 183.334H156.879C156.681 183.334 156.491 183.258 156.352 183.121C156.212 182.984 156.133 182.799 156.133 182.605C156.13 182.577 156.13 182.549 156.133 182.52L158.718 182.431Z" fill="black"/>
<path opacity="0.1" d="M162.023 182.315C162.062 182.406 162.083 182.503 162.084 182.601C162.083 182.794 162.004 182.979 161.864 183.115C161.725 183.252 161.536 183.329 161.339 183.33H160.223C160.025 183.33 159.835 183.253 159.695 183.117C159.556 182.98 159.477 182.794 159.477 182.601C159.477 182.533 159.488 182.466 159.508 182.401L162.023 182.315Z" fill="black"/>
<path opacity="0.1" d="M164.948 182.218C165.021 182.333 165.06 182.466 165.061 182.601C165.06 182.794 164.981 182.979 164.842 183.116C164.702 183.252 164.513 183.329 164.316 183.33H163.2C163.002 183.33 162.812 183.254 162.673 183.117C162.533 182.98 162.454 182.795 162.454 182.601C162.452 182.497 162.475 182.394 162.52 182.299L164.948 182.218Z" fill="black"/>
<path opacity="0.1" d="M168.405 182.606C168.404 182.799 168.325 182.984 168.185 183.12C168.046 183.257 167.857 183.334 167.659 183.335H166.543C166.407 183.335 166.273 183.298 166.157 183.229C166.04 183.16 165.945 183.061 165.883 182.942C165.82 182.824 165.791 182.691 165.8 182.558C165.809 182.425 165.855 182.297 165.933 182.188L168.2 182.111C168.332 182.243 168.405 182.421 168.405 182.606Z" fill="black"/>
<path d="M175.092 185.513H153.535V184.554C153.535 184.128 153.704 183.719 154.007 183.413C154.309 183.106 154.722 182.927 155.157 182.913L172.446 182.329C172.79 182.317 173.132 182.373 173.453 182.494C173.774 182.615 174.066 182.797 174.314 183.03C174.561 183.264 174.758 183.544 174.892 183.853C175.027 184.162 175.096 184.495 175.097 184.831L175.092 185.513Z" fill="#D6D6E3"/>
<path d="M281.447 182.576C281.421 184.089 282.537 185.33 283.919 185.33H310.023V182.67H288.287C287.35 182.67 286.766 181.561 287.236 180.674L306.923 141.517C307.063 141.235 307.279 140.996 307.548 140.826C307.817 140.656 308.129 140.562 308.449 140.554H318.192V136.077H305.903C305.683 136.085 305.468 136.152 305.283 136.27C305.098 136.388 304.949 136.552 304.853 136.746L282.284 179.378C281.757 180.367 281.471 181.461 281.447 182.576V182.576Z" fill="#535461"/>
<path d="M329.37 175.473L329.727 176.061L333.071 173.878L322.726 96.0879H320.063C320.063 96.0879 319.954 96.446 319.775 97.1281C317.988 103.851 309.212 141.926 329.37 175.473Z" fill="#535461"/>
<path opacity="0.1" d="M319.775 97.1281L329.365 175.473L329.723 176.061L333.066 173.878L322.726 96.0879H320.062C320.062 96.0879 319.953 96.4588 319.775 97.1281Z" fill="black"/>
<path d="M326.286 95.2756L320.01 96.0107L329.824 176.136L336.1 175.401L326.286 95.2756Z" fill="#D6D6E3"/>
<path d="M357.601 182.606C357.602 182.799 357.681 182.983 357.821 183.12C357.96 183.256 358.149 183.333 358.347 183.335H359.463C359.66 183.335 359.85 183.258 359.99 183.121C360.129 182.984 360.208 182.799 360.208 182.606C360.211 182.577 360.211 182.549 360.208 182.52C360.186 182.344 360.099 182.182 359.963 182.065C359.827 181.947 359.653 181.882 359.471 181.881H358.355C358.19 181.883 358.029 181.938 357.899 182.038C357.769 182.138 357.676 182.278 357.636 182.435C357.617 182.49 357.605 182.548 357.601 182.606V182.606Z" fill="#E3EDF9"/>
<path d="M354.257 182.606C354.258 182.799 354.337 182.983 354.477 183.12C354.616 183.256 354.805 183.334 355.003 183.335H356.119C356.217 183.335 356.314 183.316 356.404 183.279C356.494 183.242 356.577 183.189 356.646 183.121C356.715 183.053 356.77 182.973 356.807 182.885C356.845 182.796 356.864 182.701 356.864 182.606C356.864 182.538 356.853 182.47 356.834 182.405C356.801 182.287 356.736 182.18 356.646 182.094C356.578 182.026 356.497 181.972 356.407 181.936C356.317 181.899 356.22 181.88 356.123 181.881H354.985C354.841 181.88 354.7 181.92 354.579 181.996C354.458 182.071 354.361 182.179 354.301 182.307C354.266 182.403 354.251 182.504 354.257 182.606Z" fill="#E3EDF9"/>
<path d="M351.284 182.606C351.286 182.799 351.364 182.984 351.504 183.12C351.644 183.257 351.833 183.334 352.03 183.335H353.146C353.344 183.335 353.533 183.258 353.673 183.121C353.813 182.985 353.891 182.799 353.891 182.606C353.893 182.502 353.871 182.398 353.826 182.303C353.765 182.177 353.67 182.071 353.551 181.995C353.431 181.92 353.292 181.879 353.15 181.877H352.034C351.936 181.876 351.839 181.895 351.748 181.931C351.658 181.968 351.575 182.021 351.506 182.089C351.436 182.157 351.382 182.238 351.344 182.326C351.307 182.415 351.288 182.51 351.289 182.606H351.284Z" fill="#E3EDF9"/>
<path d="M347.936 182.606C347.937 182.799 348.016 182.983 348.156 183.12C348.295 183.256 348.484 183.334 348.682 183.335H349.798C349.934 183.335 350.068 183.298 350.184 183.229C350.301 183.159 350.395 183.06 350.458 182.942C350.521 182.824 350.55 182.691 350.541 182.558C350.532 182.425 350.486 182.297 350.408 182.188L350.321 182.094C350.253 182.026 350.171 181.972 350.081 181.936C349.992 181.899 349.895 181.88 349.798 181.881H348.682C348.58 181.882 348.48 181.903 348.387 181.944C348.294 181.984 348.21 182.042 348.141 182.115C348.01 182.246 347.937 182.422 347.936 182.606Z" fill="#E3EDF9"/>
<path opacity="0.1" d="M357.623 182.431C357.608 182.488 357.6 182.547 357.601 182.605C357.602 182.798 357.681 182.983 357.82 183.12C357.96 183.256 358.149 183.333 358.346 183.334H359.462C359.66 183.334 359.85 183.258 359.989 183.121C360.129 182.984 360.208 182.799 360.208 182.605C360.211 182.577 360.211 182.549 360.208 182.52L357.623 182.431Z" fill="black"/>
<path opacity="0.1" d="M354.318 182.315C354.279 182.406 354.258 182.503 354.257 182.601C354.258 182.794 354.337 182.979 354.477 183.115C354.616 183.252 354.805 183.329 355.003 183.33H356.119C356.216 183.33 356.313 183.311 356.404 183.275C356.494 183.238 356.576 183.184 356.646 183.117C356.715 183.049 356.77 182.968 356.807 182.88C356.845 182.792 356.864 182.697 356.864 182.601C356.864 182.533 356.853 182.466 356.833 182.401L354.318 182.315Z" fill="black"/>
<path opacity="0.1" d="M351.393 182.218C351.32 182.333 351.281 182.466 351.28 182.601C351.281 182.794 351.36 182.979 351.499 183.116C351.639 183.252 351.828 183.329 352.025 183.33H353.141C353.339 183.33 353.529 183.254 353.668 183.117C353.808 182.98 353.887 182.795 353.887 182.601C353.889 182.497 353.866 182.394 353.821 182.299L351.393 182.218Z" fill="black"/>
<path opacity="0.1" d="M347.936 182.606C347.937 182.799 348.016 182.984 348.156 183.12C348.295 183.257 348.484 183.334 348.682 183.335H349.798C349.934 183.335 350.068 183.298 350.184 183.229C350.301 183.16 350.395 183.061 350.458 182.942C350.521 182.824 350.55 182.691 350.541 182.558C350.532 182.425 350.486 182.297 350.408 182.188L348.141 182.111C348.009 182.243 347.936 182.421 347.936 182.606Z" fill="black"/>
<path d="M341.249 185.513H362.806V184.554C362.806 184.128 362.637 183.719 362.335 183.413C362.032 183.106 361.62 182.927 361.184 182.913L343.895 182.329C343.552 182.317 343.209 182.373 342.888 182.494C342.568 182.615 342.275 182.797 342.028 183.03C341.78 183.264 341.584 183.544 341.449 183.853C341.315 184.162 341.245 184.495 341.245 184.831L341.249 185.513Z" fill="#D6D6E3"/>
<path d="M431.479 197.07C441.536 180.389 437.892 146.739 438.297 146.095C438.659 145.528 437.273 129.682 428.031 125.811C426.361 122.575 424.718 118.93 424.718 118.93C424.556 119.079 424.377 119.209 424.186 119.318C424.113 119.125 424.042 118.929 423.972 118.73C423.854 118.393 423.745 118.048 423.636 117.703C423.895 117.783 424.159 117.849 424.425 117.899C425.13 118.067 425.872 118.002 426.535 117.715C426.762 117.597 426.966 117.443 427.141 117.259C427.869 116.786 428.27 115.933 428.61 115.128L431.3 108.827C432.512 105.983 433.733 103.122 434.378 100.108C435.338 95.5726 434.966 90.8637 433.306 86.5258C432.669 84.8717 431.788 83.2176 430.293 82.2285C427.298 80.2418 423.131 81.6146 419.709 80.4507C418.584 80.0671 417.568 79.4191 416.444 79.0268C414.015 78.1742 411.273 78.6304 408.937 79.6919C406.6 80.7534 404.708 82.4417 402.664 83.9551C401.657 84.7097 400.048 85.4898 398.862 86.513C397.711 87.3912 396.826 88.4528 396.996 89.8511C397.188 91.4498 398.91 92.409 400.514 92.7842C400.78 92.8439 401.055 92.8908 401.325 92.9376C399.421 94.824 398.049 97.1605 397.343 99.7194C396.636 102.278 396.62 104.973 397.294 107.54C397.969 110.107 399.312 112.459 401.193 114.368C403.073 116.277 405.427 117.677 408.026 118.432C408.844 119.934 409.552 121.491 410.144 123.091C410.223 123.31 410.3 123.53 410.375 123.752C407.734 124.485 405.667 125.095 405.253 125.432C404.002 126.446 406.622 135.331 406.622 135.331C405.955 136.158 405.275 137.1 404.586 138.11C399.363 145.869 396.056 154.709 394.926 163.933C394.49 167.305 393.923 170.754 393.204 174.032L361.96 167.906L361.895 168.661L361.149 168.481L358.804 167.914L358.713 168.43L358.355 168.264C352.544 165.6 342.753 162.198 336.122 165.706C329.126 169.39 344.226 174.284 353.917 176.888C350.704 177.042 347.631 177.797 345.199 179.561C338.171 184.711 358.046 187.393 367.431 188.344L367.811 188.382V188.578L371.063 188.872L371.825 188.941L371.9 190.075C371.9 190.075 376.555 190.821 382.776 191.724C375.675 193.46 366.899 194.662 360.805 195.365C354.344 196.107 348.843 200.507 347.108 206.641C346.547 208.4 346.493 210.277 346.951 212.064C348.765 218.259 346.55 263.828 346.049 273.642L334.562 280.109C334.562 280.109 316.688 282.241 328.594 286.337C329.666 286.696 330.763 286.981 331.876 287.19C330.307 288.179 330.442 289.471 335.067 291.057C346.982 295.141 374.677 290.878 374.677 290.878C374.677 290.878 374.071 286.077 373.085 282.087L373.39 282.113C373.39 282.113 370.531 271.706 374.868 266.458C379.206 261.21 374.14 221.268 374.14 221.268C374.14 221.268 381.734 218.195 404.433 217.994C422.743 222.59 431.666 206.138 431.54 197.633C431.501 197.441 431.492 197.245 431.479 197.07Z" fill="url(#paint0_linear_1581_140)"/>
<path d="M363.813 171.218L361.873 178.892C361.873 178.892 360.129 178.509 357.514 177.852C348.655 175.61 329.971 170.225 337.461 166.273C343.917 162.863 353.425 166.179 359.07 168.767C361.136 169.718 362.688 170.57 363.381 170.971C363.673 171.133 363.813 171.218 363.813 171.218Z" fill="#F8B9BF"/>
<path opacity="0.1" d="M363.268 173.385L361.873 178.927C361.873 178.927 360.129 178.543 357.514 177.887L359.087 168.802C361.154 169.752 362.706 170.605 363.399 171.006L363.268 173.385Z" fill="black"/>
<path d="M363.273 179.451L357.858 178.142L359.541 168.439L363.87 169.484L363.273 179.451Z" fill="#D9DFE8"/>
<path opacity="0.1" d="M363.272 179.451L360.936 178.888L361.816 168.989L363.87 169.484L363.272 179.451Z" fill="black"/>
<path d="M415.515 139.262C415.515 139.262 405.118 133.387 400.497 150.24C395.876 167.092 395.44 174.855 395.44 174.855L362.605 168.435L361.563 180.163C361.563 180.163 396.669 191.247 401.085 190.442C405.501 189.636 419.831 166.141 419.831 166.141C419.831 166.141 432.856 147.933 415.515 139.262Z" fill="#9FC8FE"/>
<g opacity="0.1">
<path opacity="0.1" d="M363.813 171.218L361.873 178.892C361.873 178.892 360.129 178.509 357.514 177.852C348.656 175.61 329.971 170.225 337.461 166.273C343.917 162.863 353.425 166.179 359.07 168.767C361.136 169.718 362.688 170.57 363.382 170.971C363.674 171.133 363.813 171.218 363.813 171.218Z" fill="black"/>
<path opacity="0.1" d="M363.268 173.384L361.873 178.926C361.873 178.926 360.129 178.542 357.514 177.886L359.087 168.801C361.154 169.751 362.706 170.604 363.399 171.005L363.268 173.384Z" fill="black"/>
<path opacity="0.1" d="M363.273 179.45L357.858 178.141L359.541 168.438L363.87 169.483L363.273 179.45Z" fill="black"/>
<path opacity="0.1" d="M363.273 179.45L360.936 178.887L361.817 168.988L363.87 169.483L363.273 179.45Z" fill="black"/>
<path opacity="0.1" d="M415.515 139.688C415.515 139.688 405.118 133.813 400.497 150.665C395.876 167.518 395.44 175.281 395.44 175.281L362.605 168.861L361.563 180.589C361.563 180.589 396.669 191.673 401.085 190.867C405.501 190.062 419.831 166.567 419.831 166.567C419.831 166.567 432.856 148.359 415.515 139.688Z" fill="black"/>
</g>
<path d="M349.384 269.843L335.979 277.393C335.979 277.393 318.611 279.474 330.181 283.439C341.75 287.403 368.648 283.264 368.648 283.264C368.648 283.264 367.152 271.446 365.069 269.797C362.985 268.147 349.384 269.843 349.384 269.843Z" fill="#68739D"/>
<path d="M401.631 185.134C401.631 185.134 394.961 188.544 383.112 191.49C376.168 193.195 367.475 194.406 361.468 195.097C358.393 195.424 355.486 196.637 353.117 198.583C350.749 200.528 349.024 203.118 348.163 206.023C347.614 207.738 347.562 209.567 348.01 211.31C349.985 218.058 347.038 272.917 347.038 272.917L367.397 274.759C367.397 274.759 364.62 264.651 368.835 259.556C373.051 254.462 368.129 215.684 368.129 215.684C368.129 215.684 375.505 212.699 397.546 212.503C417.965 217.619 426.379 195.762 423.227 189.635C420.075 183.509 401.631 185.134 401.631 185.134Z" fill="#214072"/>
<g opacity="0.1">
<path opacity="0.1" d="M349.384 269.843L335.979 277.393C335.979 277.393 318.611 279.474 330.181 283.439C341.75 287.403 368.648 283.264 368.648 283.264C368.648 283.264 367.152 271.446 365.069 269.797C362.985 268.147 349.384 269.843 349.384 269.843Z" fill="black"/>
<path opacity="0.1" d="M401.631 185.134C401.631 185.134 394.961 188.544 383.112 191.49C376.168 193.195 367.475 194.406 361.468 195.097C358.393 195.424 355.486 196.637 353.117 198.583C350.749 200.528 349.024 203.118 348.163 206.023C347.614 207.738 347.562 209.567 348.01 211.31C349.985 218.058 347.038 272.917 347.038 272.917L367.397 274.759C367.397 274.759 364.62 264.651 368.835 259.556C373.051 254.462 368.129 215.684 368.129 215.684C368.129 215.684 375.505 212.699 397.546 212.503C417.965 217.619 426.379 195.762 423.227 189.635C420.075 183.509 401.631 185.134 401.631 185.134Z" fill="black"/>
</g>
<path d="M355.67 274.426L342.265 281.977C342.265 281.977 324.906 284.04 336.467 288.022C348.028 292.004 374.934 287.847 374.934 287.847C374.934 287.847 373.438 276.029 371.355 274.38C369.271 272.73 355.67 274.426 355.67 274.426Z" fill="#68739D"/>
<path d="M403.81 217.087C381.769 217.283 374.393 220.267 374.393 220.267C374.393 220.267 379.315 259.062 375.099 264.14C370.884 269.217 373.661 279.342 373.661 279.342L353.302 277.5C353.302 277.5 353.337 276.852 353.394 275.693C353.882 266.16 356.031 221.908 354.266 215.893C353.82 214.156 353.873 212.333 354.418 210.624C355.276 207.714 356.998 205.12 359.366 203.17C361.734 201.22 364.641 200.002 367.719 199.672C373.722 198.985 382.414 197.792 389.359 196.065L389.699 195.98C401.338 193.055 407.877 189.709 407.877 189.709C407.877 189.709 426.322 188.088 429.474 194.215C429.918 195.186 430.138 196.241 430.119 197.306C430.276 205.572 421.601 221.55 403.81 217.087Z" fill="#214072"/>
<path d="M373.107 180.781L372.362 188.668C372.362 188.668 370.57 188.545 367.906 188.272C358.808 187.347 339.51 184.746 346.332 179.745C352.2 175.448 362.104 177.324 368.081 179.063C370.26 179.703 371.935 180.321 372.68 180.615C372.955 180.717 373.107 180.781 373.107 180.781Z" fill="#F8B9BF"/>
<path d="M427.255 129.217C427.255 129.217 424.526 131.306 421.191 133.6C417.534 134.41 413.287 135.079 410.227 135.514C411.321 132.103 410.663 128.266 409.429 124.903C408.087 121.388 406.246 118.076 403.958 115.063L422.407 109.432C420.96 113.017 421.614 117.105 422.843 120.661C423.929 123.688 425.412 126.564 427.255 129.217V129.217Z" fill="#F8B9BF"/>
<path opacity="0.1" d="M372.898 183.002L372.362 188.668C372.362 188.668 370.57 188.544 367.906 188.271L368.081 179.059C370.26 179.698 371.934 180.316 372.68 180.61L372.898 183.002Z" fill="black"/>
<path d="M373.827 189.001L368.273 188.498L368.456 178.658L372.898 179.059L373.827 189.001Z" fill="#D9DFE8"/>
<path opacity="0.1" d="M427.255 129.217C427.255 129.217 424.526 131.306 421.191 133.6C417.533 134.41 413.287 135.079 410.227 135.514C411.321 132.103 410.663 128.267 409.429 124.903C413.937 123.624 420.384 121.97 422.848 120.64C423.93 123.674 425.411 126.557 427.255 129.217V129.217Z" fill="black"/>
<path d="M423.567 120.854C423.567 120.854 426.653 127.704 428.597 130.8C430.542 133.895 406.007 136.768 406.007 136.768C406.007 136.768 403.461 128.144 404.678 127.155C405.894 126.165 421.513 122.857 423.567 120.854Z" fill="#D9DFE8"/>
<path opacity="0.1" d="M430.154 197.31C429.122 199.09 427.836 200.718 426.335 202.144C415.498 212.214 397.733 201.718 389.716 195.98C401.356 193.055 407.895 189.709 407.895 189.709C407.895 189.709 426.339 188.088 429.491 194.215C429.942 195.186 430.169 196.243 430.154 197.31Z" fill="black"/>
<path d="M426.405 201.423C414.085 212.866 392.838 197.714 387.109 193.251C386.181 192.526 385.662 192.078 385.662 192.078C387.925 190.007 389.912 185.615 391.486 180.244C392.953 175.105 394.012 169.862 394.655 164.564C395.752 155.606 398.964 147.019 404.037 139.483C404.704 138.503 405.345 137.586 406.012 136.785C410.663 131 418.479 127.325 418.479 127.325C434.975 122.61 437.194 146.539 436.754 147.23C436.313 147.92 440.725 188.118 426.405 201.423Z" fill="#9FC8FE"/>
<path opacity="0.1" d="M428 168.712C428 168.712 417.394 194.035 413.152 195.48C410.724 196.303 397.755 194.743 387.109 193.255C386.181 192.53 385.662 192.082 385.662 192.082C387.925 190.011 389.912 185.619 391.486 180.248L405.196 180.887C405.196 180.887 404.433 173.154 406.448 155.811C408.462 138.468 419.626 142.766 419.626 142.766C438.096 148.815 428 168.712 428 168.712Z" fill="black"/>
<path opacity="0.1" d="M373.827 189L371.429 188.783L370.792 178.871L372.898 179.059L373.827 189Z" fill="black"/>
<path d="M419.36 141.649C419.36 141.649 408.196 137.356 406.182 154.694C404.168 172.032 404.931 179.77 404.931 179.77L371.481 178.206L372.235 189.955C372.235 189.955 408.64 195.8 412.882 194.359C417.124 192.918 427.73 167.59 427.73 167.59C427.73 167.59 437.813 147.694 419.36 141.649Z" fill="#9FC8FE"/>
<path opacity="0.1" d="M420.11 115.976C419.621 113.384 422.39 113.418 423.384 110.979L404.935 116.611C406.215 118.292 407.358 120.07 408.353 121.927C409.31 122.205 410.292 122.391 411.286 122.482C415.685 122.891 417.058 118.658 420.11 115.976Z" fill="black"/>
<path d="M426.875 107.457C427.649 99.2604 421.483 92.0019 413.101 91.2444C404.72 90.4869 397.298 96.5174 396.523 104.714C395.749 112.91 401.915 120.169 410.296 120.926C418.678 121.684 426.1 115.653 426.875 107.457Z" fill="#F8B9BF"/>
<path opacity="0.1" d="M396.661 92.622C396.848 94.1738 398.522 95.1202 400.078 95.4698C401.635 95.8194 403.322 95.8364 404.686 96.6507C406.866 97.9638 407.454 100.88 407.18 103.387C407.027 104.802 406.809 106.537 407.995 107.36C408.367 107.583 408.783 107.728 409.216 107.786C410.452 108.031 411.722 108.074 412.973 107.914C413.706 107.82 414.46 107.658 415.153 107.859C416.295 108.183 416.971 109.359 417.193 110.498C417.416 111.636 417.294 112.821 417.472 113.968C417.721 115.404 418.409 116.732 419.446 117.778C420.483 118.824 421.819 119.537 423.279 119.825C423.963 119.988 424.684 119.925 425.328 119.646C426.156 119.22 426.579 118.312 426.936 117.464L429.552 111.342C430.729 108.583 431.915 105.8 432.543 102.875C433.475 98.4701 433.113 93.8972 431.501 89.6846C430.882 88.0817 430.027 86.4745 428.576 85.511C425.668 83.5798 421.601 84.9141 418.296 83.8057C417.202 83.4348 416.217 82.8038 415.127 82.4244C412.768 81.6016 410.105 82.0365 407.834 83.0724C405.562 84.1084 403.727 85.7412 401.731 87.229C400 88.5464 396.334 89.9404 396.661 92.622Z" fill="black"/>
<path d="M397.062 92.2939C397.249 93.8457 398.923 94.7921 400.479 95.1417C402.036 95.4913 403.723 95.5083 405.087 96.3226C407.267 97.6356 407.855 100.552 407.581 103.058C407.428 104.474 407.21 106.209 408.396 107.032C408.768 107.255 409.184 107.4 409.617 107.458C410.853 107.703 412.123 107.746 413.374 107.586C414.107 107.492 414.861 107.33 415.554 107.531C416.696 107.855 417.372 109.031 417.594 110.169C417.817 111.308 417.695 112.493 417.873 113.64C418.122 115.076 418.811 116.404 419.847 117.45C420.884 118.495 422.22 119.209 423.68 119.497C424.364 119.66 425.085 119.597 425.729 119.318C426.557 118.892 426.98 117.984 427.337 117.135L429.953 111.014C431.13 108.255 432.316 105.471 432.944 102.547C433.876 98.142 433.514 93.5691 431.902 89.3565C431.283 87.7536 430.428 86.1463 428.977 85.1829C426.069 83.2516 422.002 84.586 418.697 83.4776C417.603 83.1067 416.618 82.4757 415.528 82.0963C413.17 81.2735 410.506 81.7084 408.235 82.7443C405.964 83.7803 404.128 85.4131 402.132 86.9009C400.405 88.2182 396.739 89.6123 397.062 92.2939Z" fill="#B96B6B"/>
<path opacity="0.1" d="M409.687 151.173C409.687 151.173 403.867 173.282 398.073 175.328C392.28 177.374 394.839 177.954 394.839 177.954" fill="black"/>
<path d="M409.961 232.165H403.636V272.823H409.961V232.165Z" fill="#D6D6E3"/>
<path opacity="0.1" d="M409.961 232.165H403.636V235.179H409.961V232.165Z" fill="black"/>
<path d="M390.98 231.952V232.804C390.98 233.067 391.033 233.327 391.136 233.569C391.239 233.812 391.389 234.032 391.579 234.218C391.769 234.404 391.995 234.551 392.243 234.651C392.491 234.752 392.757 234.804 393.025 234.804H420.567C420.836 234.804 421.102 234.752 421.35 234.651C421.598 234.551 421.823 234.404 422.013 234.218C422.203 234.032 422.354 233.812 422.456 233.569C422.559 233.327 422.612 233.067 422.612 232.804V231.952C422.612 231.689 422.559 231.429 422.456 231.186C422.354 230.944 422.203 230.723 422.013 230.538C421.823 230.352 421.598 230.205 421.35 230.104C421.102 230.004 420.836 229.952 420.567 229.952H393.025C392.757 229.952 392.491 230.004 392.243 230.104C391.995 230.205 391.769 230.352 391.579 230.538C391.389 230.723 391.239 230.944 391.136 231.186C391.033 231.429 390.98 231.689 390.98 231.952V231.952Z" fill="#D6D6E3"/>
<path opacity="0.1" d="M391.451 230.681H422.145C421.954 230.453 421.713 230.269 421.44 230.143C421.167 230.017 420.869 229.952 420.567 229.952H393.025C392.724 229.952 392.426 230.018 392.154 230.144C391.882 230.27 391.642 230.453 391.451 230.681V230.681Z" fill="black"/>
<path d="M430.389 270.61H383.216C381.892 270.61 380.819 271.66 380.819 272.955V273.126C380.819 274.421 381.892 275.47 383.216 275.47H430.389C431.713 275.47 432.787 274.421 432.787 273.126V272.955C432.787 271.66 431.713 270.61 430.389 270.61Z" fill="#D6D6E3"/>
<path d="M429.848 281.661C431.596 281.661 433.013 280.275 433.013 278.566C433.013 276.856 431.596 275.471 429.848 275.471C428.101 275.471 426.684 276.856 426.684 278.566C426.684 280.275 428.101 281.661 429.848 281.661Z" fill="#535461"/>
<path d="M383.753 281.661C385.501 281.661 386.918 280.275 386.918 278.566C386.918 276.856 385.501 275.471 383.753 275.471C382.005 275.471 380.588 276.856 380.588 278.566C380.588 280.275 382.005 281.661 383.753 281.661Z" fill="#535461"/>
<path d="M406.801 281.661C408.549 281.661 409.966 280.275 409.966 278.566C409.966 276.856 408.549 275.471 406.801 275.471C405.053 275.471 403.636 276.856 403.636 278.566C403.636 280.275 405.053 281.661 406.801 281.661Z" fill="#535461"/>
<path d="M446.083 182.227H403.784C401.737 182.227 400.078 183.849 400.078 185.85V186.115C400.078 188.116 401.737 189.738 403.784 189.738H446.083C448.129 189.738 449.788 188.116 449.788 186.115V185.85C449.788 183.849 448.129 182.227 446.083 182.227Z" fill="#D6D6E3"/>
<path opacity="0.1" d="M409.961 270.61C409.961 270.61 407.476 273.011 403.636 270.61Z" fill="black"/>
<path opacity="0.1" d="M449.788 186.059V186.651C449.788 187.471 449.455 188.257 448.862 188.837C448.27 189.416 447.466 189.742 446.628 189.742H403.239C402.401 189.742 401.597 189.416 401.004 188.837C400.411 188.257 400.078 187.471 400.078 186.651V186.059H449.788Z" fill="black"/>
<path d="M367.082 192.965H358.534V299.485H367.082V192.965Z" fill="#D6D6E3"/>
<path opacity="0.1" d="M367.082 192.965H358.534V199.871H367.082V192.965Z" fill="black"/>
<path d="M107.875 235.072H101.55V275.73H107.875V235.072Z" fill="#D6D6E3"/>
<path opacity="0.1" d="M107.875 235.072H101.55V238.086H107.875V235.072Z" fill="black"/>
<path d="M120.526 234.864V235.717C120.526 236.247 120.311 236.756 119.927 237.131C119.544 237.506 119.024 237.716 118.481 237.716H90.9391C90.3968 237.716 89.8768 237.506 89.4934 237.131C89.1099 236.756 88.8945 236.247 88.8945 235.717V234.864C88.8991 234.337 89.1166 233.833 89.4995 233.461C89.8824 233.09 90.3998 232.882 90.9391 232.882H118.481C118.75 232.882 119.016 232.934 119.264 233.034C119.512 233.135 119.737 233.282 119.927 233.467C120.117 233.653 120.268 233.874 120.37 234.116C120.473 234.359 120.526 234.619 120.526 234.881V234.864Z" fill="#D6D6E3"/>
<path opacity="0.1" d="M120.06 233.589H89.3611C89.5545 233.364 89.7963 233.184 90.0691 233.062C90.3419 232.94 90.6391 232.878 90.9392 232.881H118.482C118.782 232.878 119.079 232.94 119.352 233.062C119.624 233.184 119.866 233.364 120.06 233.589V233.589Z" fill="black"/>
<path d="M128.299 273.519H81.1262C79.802 273.519 78.7285 274.568 78.7285 275.863V276.034C78.7285 277.329 79.802 278.379 81.1262 278.379H128.299C129.623 278.379 130.696 277.329 130.696 276.034V275.863C130.696 274.568 129.623 273.519 128.299 273.519Z" fill="#D6D6E3"/>
<path d="M81.6668 284.568C83.4148 284.568 84.8317 283.182 84.8317 281.473C84.8317 279.764 83.4148 278.378 81.6668 278.378C79.9189 278.378 78.502 279.764 78.502 281.473C78.502 283.182 79.9189 284.568 81.6668 284.568Z" fill="#535461"/>
<path d="M127.758 284.568C129.506 284.568 130.923 283.182 130.923 281.473C130.923 279.764 129.506 278.378 127.758 278.378C126.01 278.378 124.594 279.764 124.594 281.473C124.594 283.182 126.01 284.568 127.758 284.568Z" fill="#535461"/>
<path d="M104.71 284.568C106.458 284.568 107.875 283.182 107.875 281.473C107.875 279.764 106.458 278.378 104.71 278.378C102.962 278.378 101.545 279.764 101.545 281.473C101.545 283.182 102.962 284.568 104.71 284.568Z" fill="#535461"/>
<path opacity="0.1" d="M101.55 273.519C101.55 273.519 104.034 275.919 107.875 273.519Z" fill="black"/>
<path d="M262.92 151.122C262.92 151.122 255.823 138.508 258.417 127.543C259.534 122.95 259.098 118.127 257.174 113.798C256.251 111.75 255.137 109.79 253.848 107.94" stroke="#75A1DE" stroke-width="2" stroke-miterlimit="10"/>
<path d="M255.422 101.017C255.793 102.671 253.809 108.124 253.809 108.124C253.809 108.124 249.672 103.988 249.297 102.334C249.172 101.93 249.133 101.505 249.184 101.085C249.234 100.665 249.373 100.261 249.591 99.896C249.809 99.5313 250.102 99.2147 250.452 98.966C250.801 98.7174 251.199 98.542 251.621 98.4509C252.043 98.3599 252.479 98.3551 252.903 98.4369C253.327 98.5187 253.729 98.6853 254.084 98.9262C254.439 99.1672 254.739 99.4773 254.966 99.8371C255.192 100.197 255.34 100.599 255.4 101.017H255.422Z" fill="#9FC8FE"/>
<path d="M262.541 109.087C261.935 110.673 257.24 114.203 257.24 114.203C257.24 114.203 256.063 108.533 256.673 106.955C256.804 106.563 257.014 106.2 257.292 105.889C257.57 105.577 257.909 105.324 258.289 105.144C258.67 104.965 259.083 104.862 259.505 104.842C259.927 104.823 260.348 104.887 260.744 105.03C261.14 105.174 261.502 105.395 261.809 105.679C262.116 105.963 262.361 106.305 262.529 106.683C262.697 107.062 262.785 107.471 262.788 107.884C262.791 108.297 262.708 108.706 262.545 109.087H262.541Z" fill="#9FC8FE"/>
<path d="M265.836 124.784C264.494 125.854 258.622 126.574 258.622 126.574C258.622 126.574 260.535 121.101 261.878 120.03C262.197 119.772 262.564 119.578 262.96 119.46C263.356 119.341 263.772 119.3 264.184 119.34C264.596 119.379 264.996 119.498 265.36 119.689C265.725 119.881 266.047 120.141 266.309 120.455C266.57 120.769 266.765 121.13 266.883 121.518C267.001 121.906 267.039 122.313 266.995 122.716C266.951 123.118 266.826 123.508 266.627 123.863C266.428 124.218 266.16 124.531 265.836 124.784V124.784Z" fill="#9FC8FE"/>
<path d="M265.597 137.207C264.459 138.486 258.796 140.165 258.796 140.165C258.796 140.165 259.733 134.453 260.871 133.178C261.137 132.861 261.466 132.599 261.837 132.408C262.209 132.217 262.616 132.101 263.034 132.067C263.452 132.033 263.873 132.081 264.272 132.209C264.671 132.337 265.039 132.542 265.355 132.812C265.671 133.082 265.929 133.411 266.113 133.78C266.296 134.149 266.402 134.551 266.425 134.961C266.447 135.37 266.384 135.78 266.241 136.166C266.098 136.552 265.878 136.906 265.592 137.207H265.597Z" fill="#9FC8FE"/>
<path d="M250.884 115.895C252.357 116.786 258.273 116.747 258.273 116.747C258.273 116.747 255.657 111.559 254.184 110.668C253.834 110.443 253.441 110.289 253.03 110.215C252.618 110.141 252.195 110.148 251.786 110.236C251.377 110.324 250.991 110.492 250.649 110.729C250.307 110.966 250.018 111.267 249.797 111.615C249.577 111.963 249.43 112.351 249.365 112.756C249.3 113.16 249.319 113.573 249.42 113.971C249.522 114.368 249.703 114.742 249.955 115.069C250.206 115.397 250.522 115.672 250.884 115.878V115.895Z" fill="#9FC8FE"/>
<path d="M250.797 130.432C252.475 130.858 258.112 129.102 258.112 129.102C258.112 129.102 254.027 124.916 252.348 124.498C251.557 124.333 250.731 124.474 250.044 124.891C249.356 125.309 248.86 125.97 248.66 126.736C248.459 127.503 248.57 128.316 248.968 129.005C249.366 129.693 250.021 130.205 250.797 130.432V130.432Z" fill="#9FC8FE"/>
<path d="M252.684 144.569C254.262 145.26 260.126 144.467 260.126 144.467C260.126 144.467 256.821 139.667 255.243 138.976C254.484 138.644 253.621 138.621 252.845 138.911C252.068 139.201 251.441 139.781 251.102 140.523C250.763 141.266 250.739 142.109 251.035 142.869C251.332 143.629 251.925 144.242 252.684 144.574V144.569Z" fill="#9FC8FE"/>
<path d="M255.422 101.017C255.793 102.671 253.809 108.124 253.809 108.124C253.809 108.124 249.672 103.988 249.297 102.334C249.172 101.93 249.133 101.505 249.184 101.085C249.234 100.665 249.373 100.261 249.591 99.896C249.809 99.5313 250.102 99.2147 250.452 98.966C250.801 98.7174 251.199 98.542 251.621 98.4509C252.043 98.3599 252.479 98.3551 252.903 98.4369C253.327 98.5187 253.729 98.6853 254.084 98.9262C254.439 99.1672 254.739 99.4773 254.966 99.8371C255.192 100.197 255.34 100.599 255.4 101.017H255.422Z" fill="#9FC8FE"/>
<path d="M262.541 109.087C261.935 110.673 257.24 114.203 257.24 114.203C257.24 114.203 256.063 108.533 256.673 106.955C256.804 106.563 257.014 106.2 257.292 105.889C257.57 105.577 257.909 105.324 258.289 105.144C258.67 104.965 259.083 104.862 259.505 104.842C259.927 104.823 260.348 104.887 260.744 105.03C261.14 105.174 261.502 105.395 261.809 105.679C262.116 105.963 262.361 106.305 262.529 106.683C262.697 107.062 262.785 107.471 262.788 107.884C262.791 108.297 262.708 108.706 262.545 109.087H262.541Z" fill="#9FC8FE"/>
<path d="M265.836 124.784C264.494 125.854 258.622 126.574 258.622 126.574C258.622 126.574 260.535 121.101 261.878 120.03C262.197 119.772 262.564 119.578 262.96 119.46C263.356 119.341 263.772 119.3 264.184 119.34C264.596 119.379 264.996 119.498 265.36 119.689C265.725 119.881 266.047 120.141 266.309 120.455C266.57 120.769 266.765 121.13 266.883 121.518C267.001 121.906 267.039 122.313 266.995 122.716C266.951 123.118 266.826 123.508 266.627 123.863C266.428 124.218 266.16 124.531 265.836 124.784V124.784Z" fill="#9FC8FE"/>
<path d="M265.597 137.207C264.459 138.486 258.796 140.165 258.796 140.165C258.796 140.165 259.733 134.453 260.871 133.178C261.137 132.861 261.466 132.599 261.837 132.408C262.209 132.217 262.616 132.101 263.034 132.067C263.452 132.033 263.873 132.081 264.272 132.209C264.671 132.337 265.039 132.542 265.355 132.812C265.671 133.082 265.929 133.411 266.113 133.78C266.296 134.149 266.402 134.551 266.425 134.961C266.447 135.37 266.384 135.78 266.241 136.166C266.098 136.552 265.878 136.906 265.592 137.207H265.597Z" fill="#9FC8FE"/>
<path d="M250.884 115.895C252.357 116.786 258.273 116.747 258.273 116.747C258.273 116.747 255.657 111.559 254.184 110.668C253.834 110.443 253.441 110.289 253.03 110.215C252.618 110.141 252.195 110.148 251.786 110.236C251.377 110.324 250.991 110.492 250.649 110.729C250.307 110.966 250.018 111.267 249.797 111.615C249.577 111.963 249.43 112.351 249.365 112.756C249.3 113.16 249.319 113.573 249.42 113.971C249.522 114.368 249.703 114.742 249.955 115.069C250.206 115.397 250.522 115.672 250.884 115.878V115.895Z" fill="#9FC8FE"/>
<path d="M250.797 130.432C252.475 130.858 258.112 129.102 258.112 129.102C258.112 129.102 254.027 124.916 252.348 124.498C251.557 124.333 250.731 124.474 250.044 124.891C249.356 125.309 248.86 125.97 248.66 126.736C248.459 127.503 248.57 128.316 248.968 129.005C249.366 129.693 250.021 130.205 250.797 130.432V130.432Z" fill="#9FC8FE"/>
<path d="M252.684 144.569C254.262 145.26 260.126 144.467 260.126 144.467C260.126 144.467 256.821 139.667 255.243 138.976C254.484 138.644 253.621 138.621 252.845 138.911C252.068 139.201 251.441 139.781 251.102 140.523C250.763 141.266 250.739 142.109 251.035 142.869C251.332 143.629 251.925 144.242 252.684 144.574V144.569Z" fill="#9FC8FE"/>
<path d="M260.034 186.11C259.013 186.11 258.003 185.905 257.066 185.509C256.129 185.112 255.285 184.532 254.586 183.805C253.887 183.077 253.348 182.216 253.002 181.277C252.656 180.337 252.511 179.339 252.575 178.342L254.664 145.984H265.405L267.493 178.342C267.557 179.339 267.412 180.337 267.066 181.277C266.721 182.216 266.182 183.077 265.483 183.805C264.784 184.532 263.94 185.112 263.003 185.509C262.066 185.905 261.055 186.11 260.034 186.11Z" fill="#9FC8FE"/>
<path opacity="0.1" d="M42.5501 27.0371H36.447V51.7636H42.5501V27.0371Z" fill="#9FC8FE"/>
<path opacity="0.1" d="M50.397 27.0371H44.2939V51.7636H50.397V27.0371Z" fill="#9FC8FE"/>
<path opacity="0.1" d="M58.244 27.0371H52.1409V51.7636H58.244V27.0371Z" fill="#9FC8FE"/>
<path opacity="0.1" d="M66.0909 27.0371H59.9878V51.7636H66.0909V27.0371Z" fill="#9FC8FE"/>
<path opacity="0.1" d="M81.7843 27.0371H75.6812V51.7636H81.7843V27.0371Z" fill="#9FC8FE"/>
<path opacity="0.1" d="M89.6312 27.0371H83.5281V51.7636H89.6312V27.0371Z" fill="#9FC8FE"/>
<path opacity="0.1" d="M42.5501 31.7266H36.447V33.0055H42.5501V31.7266Z" fill="#9FC8FE"/>
<path opacity="0.1" d="M42.5501 47.0742H36.447V48.3532H42.5501V47.0742Z" fill="#9FC8FE"/>
<path opacity="0.1" d="M50.397 31.7266H44.2939V33.0055H50.397V31.7266Z" fill="#9FC8FE"/>
<path opacity="0.1" d="M50.397 47.0742H44.2939V48.3532H50.397V47.0742Z" fill="#9FC8FE"/>
<path opacity="0.1" d="M58.244 31.7266H52.1409V33.0055H58.244V31.7266Z" fill="#9FC8FE"/>
<path opacity="0.1" d="M58.244 47.0742H52.1409V48.3532H58.244V47.0742Z" fill="#9FC8FE"/>
<path opacity="0.1" d="M66.0909 31.7266H59.9878V33.0055H66.0909V31.7266Z" fill="#9FC8FE"/>
<path opacity="0.1" d="M66.0909 47.0742H59.9878V48.3532H66.0909V47.0742Z" fill="#9FC8FE"/>
<path opacity="0.1" d="M73.9378 31.7266H67.8347V33.0055H73.9378V31.7266Z" fill="#9FC8FE"/>
<path opacity="0.1" d="M73.9378 47.0742H67.8347V48.3532H73.9378V47.0742Z" fill="#9FC8FE"/>
<path opacity="0.1" d="M81.7843 31.7266H75.6812V33.0055H81.7843V31.7266Z" fill="#9FC8FE"/>
<path opacity="0.1" d="M81.7843 47.0742H75.6812V48.3532H81.7843V47.0742Z" fill="#9FC8FE"/>
<path opacity="0.1" d="M89.6312 31.7266H83.5281V33.0055H89.6312V31.7266Z" fill="#9FC8FE"/>
<path opacity="0.1" d="M89.6312 47.0742H83.5281V48.3532H89.6312V47.0742Z" fill="#9FC8FE"/>
<path opacity="0.1" d="M73.9378 27.0371H67.8347V51.7636H73.9378V27.0371Z" fill="#9FC8FE"/>
<path opacity="0.1" d="M95.3707 26.9234L89.8323 29.4307L100.454 51.8696L105.992 49.3623L95.3707 26.9234Z" fill="#9FC8FE"/>
<path opacity="0.1" d="M97.3869 31.1841L91.8484 33.6914L92.3978 34.852L97.9362 32.3448L97.3869 31.1841Z" fill="#9FC8FE"/>
<path opacity="0.1" d="M103.976 45.1099L98.4375 47.6172L98.9869 48.7778L104.525 46.2706L103.976 45.1099Z" fill="#9FC8FE"/>
<path d="M169.643 281.998L158.566 275.087C158.509 265.354 158.352 220.169 160.423 214.124C160.957 212.374 160.987 210.513 160.51 208.748C159.071 202.604 153.823 198.017 147.462 197.007C141.464 196.052 132.832 194.487 125.884 192.467C132.078 191.84 136.721 191.298 136.721 191.298L136.843 190.177L140.832 189.99V189.823L141.211 189.802C150.527 189.261 170.31 187.457 163.588 182.06C161.282 180.21 158.274 179.336 155.1 179.042C164.804 176.876 179.97 172.681 173.209 168.738C166.783 164.995 156.944 167.936 151.072 170.328L150.71 170.477L150.645 169.961L148.299 170.422L147.554 170.567L147.519 169.816L114.61 174.787C114.352 171.1 113.904 167.427 113.268 163.784C114.004 158.983 117.431 151.983 116.223 148.227C114.82 143.866 109.057 142.438 106.633 138.499C105.996 137.471 105.364 136.508 104.745 135.664C103.39 133.863 101.833 132.217 100.102 130.757C100.207 128.224 100.786 125.731 101.811 123.403C102.468 121.845 103.237 120.335 104.113 118.884C107.949 117.953 111.277 115.627 113.419 112.379C115.561 109.131 116.355 105.206 115.639 101.405C117.723 102.279 120.256 102.368 121.559 100.663L120.94 100.428C121.001 100.365 121.062 100.301 121.115 100.228C119.846 99.7549 118.499 99.2177 117.505 98.3565C117.253 98.0801 117.041 97.7718 116.873 97.44C116.271 96.2463 116.341 94.8138 115.766 93.6031C115.495 93.0518 115.11 92.5612 114.637 92.1621C113.627 91.1527 112.35 90.4382 110.949 90.0987C109.375 89.6511 107.718 89.4252 106.21 88.8198C104.154 86.4855 101.441 84.7956 98.408 83.9615C95.3756 83.1274 92.159 83.1861 89.1604 84.1303L88.6155 84.3136C88.9939 82.5292 88.6409 80.6709 87.6325 79.1385C86.624 77.6061 85.0406 76.5221 83.2232 76.1198C81.4057 75.7175 79.4994 76.0291 77.9144 76.9874C76.3295 77.9457 75.1926 79.4743 74.7484 81.2441C74.8866 79.6904 75.5562 78.2275 76.6491 77.0917C76.5357 77.1855 76.418 77.2751 76.3091 77.3731C75.6283 77.999 75.0804 78.7499 74.6964 79.5829C74.3124 80.4159 74.1 81.3147 74.0713 82.228C74.0425 83.1413 74.198 84.0512 74.5289 84.9057C74.8597 85.7602 75.3595 86.5427 75.9995 87.2083L76.126 87.3277C76.6293 87.9299 77.2319 88.4457 77.9089 88.8539C76.6629 88.4236 75.5641 87.6623 74.7356 86.6556C73.9071 85.6489 73.3817 84.4364 73.2183 83.154C73.2183 83.2989 73.2183 83.4439 73.2183 83.5803C73.2726 84.4965 73.5118 85.393 73.922 86.2184C74.3322 87.0438 74.9053 87.7817 75.6083 88.3895C76.3113 88.9974 77.1304 89.4632 78.0182 89.7602C78.9061 90.0572 79.8453 90.1795 80.7817 90.1201L80.9779 90.0987L80.8733 90.2394C78.846 93.1554 77.885 96.6554 78.1461 100.172C78.4072 103.689 79.8751 107.017 82.3119 109.616C82.6012 110.264 82.986 110.867 83.454 111.406C83.6185 111.59 83.7947 111.764 83.9815 111.926C85.1755 113.158 86.8081 113.894 88.5414 113.981C88.832 114.319 89.1415 114.645 89.4699 114.957C89.1825 116.153 88.8066 117.328 88.3452 118.47C87.4162 120.746 86.2597 122.927 84.8926 124.98C75.4764 127.598 74.6481 143.235 74.9882 143.828C75.3936 144.535 73.5845 169.091 80.5594 198.755C80.2717 207.234 85.3286 221.256 103.28 217.56C125.731 218.732 133.094 222.096 133.094 222.096C133.094 222.096 130.962 260.281 134.005 265.84C135.91 269.323 134.559 274.439 133.133 278.05C132.605 278.943 132.184 279.893 131.878 280.881C131.442 281.781 131.124 282.326 131.124 282.326H131.429C130.278 286.236 129.463 290.955 129.463 290.955C129.463 290.955 156.678 296.356 168.649 292.822C173.296 291.449 173.488 290.179 171.98 289.13C173.09 288.97 174.189 288.735 175.266 288.427C187.246 284.893 169.643 281.998 169.643 281.998Z" fill="url(#paint1_linear_1581_140)"/>
<path d="M110.425 100.723C110.425 103.758 109.505 106.725 107.781 109.249C106.056 111.773 103.605 113.74 100.737 114.902C97.8699 116.063 94.7144 116.367 91.6701 115.775C88.6258 115.183 85.8295 113.721 83.6347 111.575C81.4399 109.428 79.9452 106.694 79.3396 103.717C78.7341 100.74 79.0449 97.6537 80.2327 94.8493C81.4205 92.0449 83.432 89.6479 86.0128 87.9615C88.5936 86.2751 91.6279 85.375 94.7318 85.375C96.7927 85.375 98.8335 85.772 100.737 86.5433C102.642 87.3145 104.372 88.445 105.829 89.8702C107.286 91.2953 108.442 92.9872 109.231 94.8493C110.02 96.7113 110.425 98.707 110.425 100.723V100.723Z" fill="#A35610"/>
<path d="M145.775 172.825L147.367 180.593C147.367 180.593 149.136 180.282 151.756 179.74C160.706 177.886 179.617 173.307 172.293 169.035C165.994 165.365 156.347 168.251 150.592 170.596C148.483 171.448 146.896 172.241 146.185 172.612C145.919 172.744 145.775 172.825 145.775 172.825Z" fill="#F8B9BF"/>
<path opacity="0.1" d="M146.225 175.017L147.367 180.593C147.367 180.593 149.137 180.282 151.757 179.74L150.593 170.596C148.483 171.448 146.896 172.241 146.185 172.612L146.225 175.017Z" fill="black"/>
<path d="M145.95 181.075L151.416 180.005L150.178 170.238L145.802 171.095L145.95 181.075Z" fill="#D9DFE8"/>
<path opacity="0.1" d="M145.95 181.076L148.308 180.611L147.877 170.69L145.802 171.095L145.95 181.076Z" fill="black"/>
<path d="M95.5642 138.665C95.5642 138.665 106.205 133.242 110.072 150.282C113.939 167.322 113.996 175.09 113.996 175.09L147.092 170.089L147.606 181.851C147.606 181.851 112.034 191.414 107.661 190.416C103.289 189.418 90.0147 165.327 90.0147 165.327C90.0147 165.327 77.8521 146.59 95.5642 138.665Z" fill="#9FC8FE"/>
<g opacity="0.1">
<path opacity="0.1" d="M145.775 172.825L147.367 180.593C147.367 180.593 149.136 180.282 151.756 179.74C160.706 177.886 179.617 173.307 172.293 169.035C165.994 165.365 156.347 168.251 150.592 170.596C148.483 171.448 146.896 172.241 146.185 172.612C145.919 172.744 145.775 172.825 145.775 172.825Z" fill="#9FC8FE"/>
<path opacity="0.1" d="M146.224 175.018L147.366 180.594C147.366 180.594 149.136 180.283 151.756 179.741L150.592 170.597C148.482 171.449 146.896 172.242 146.185 172.613L146.224 175.018Z" fill="#9FC8FE"/>
<path opacity="0.1" d="M145.95 181.075L151.416 180.005L150.178 170.238L145.802 171.095L145.95 181.075Z" fill="#9FC8FE"/>
<path opacity="0.1" d="M145.95 181.076L148.308 180.611L147.877 170.69L145.802 171.095L145.95 181.076Z" fill="#9FC8FE"/>
<path opacity="0.1" d="M96.436 139.518C96.436 139.518 107.077 134.095 110.944 151.135C114.811 168.175 114.867 175.942 114.867 175.942L147.964 170.942L148.478 182.704C148.478 182.704 112.906 192.266 108.533 191.268C104.161 190.271 90.8866 166.18 90.8866 166.18C90.8866 166.18 78.724 147.443 96.436 139.518Z" fill="#9FC8FE"/>
</g>
<path d="M155.763 271.979L168.815 280.079C168.815 280.079 186.073 282.906 174.334 286.372C162.594 289.838 135.915 284.538 135.915 284.538C135.915 284.538 137.942 272.798 140.1 271.241C142.257 269.685 155.763 271.979 155.763 271.979Z" fill="#F37291"/>
<path d="M107.374 185.091C107.374 185.091 113.882 188.787 125.587 192.241C132.449 194.266 141.08 195.83 147.044 196.781C150.103 197.243 152.953 198.584 155.231 200.633C157.509 202.683 159.113 205.348 159.838 208.291C160.307 210.022 160.278 211.845 159.756 213.561C157.48 220.22 157.942 275.151 157.942 275.151L137.523 276.11C137.523 276.11 140.753 266.13 136.773 260.861C132.793 255.592 139.458 217.065 139.458 217.065C139.458 217.065 132.226 213.765 110.212 212.619C89.5787 216.882 82.1635 194.649 85.5899 188.664C89.0164 182.678 107.374 185.091 107.374 185.091Z" fill="#96A2D0"/>
<g opacity="0.1">
<path opacity="0.1" d="M155.763 271.979L168.815 280.079C168.815 280.079 186.073 282.906 174.334 286.372C162.594 289.838 135.915 284.538 135.915 284.538C135.915 284.538 137.942 272.798 140.1 271.241C142.257 269.685 155.763 271.979 155.763 271.979Z" fill="black"/>
<path opacity="0.1" d="M107.374 185.091C107.374 185.091 113.882 188.787 125.587 192.241C132.449 194.266 141.08 195.83 147.044 196.781C150.103 197.243 152.953 198.584 155.231 200.633C157.509 202.683 159.113 205.348 159.838 208.291C160.307 210.022 160.278 211.845 159.756 213.561C157.48 220.22 157.942 275.151 157.942 275.151L137.523 276.11C137.523 276.11 140.753 266.13 136.773 260.861C132.793 255.592 139.458 217.065 139.458 217.065C139.458 217.065 132.226 213.765 110.212 212.619C89.5787 216.882 82.1635 194.649 85.5899 188.664C89.0164 182.678 107.374 185.091 107.374 185.091Z" fill="black"/>
</g>
<path d="M149.259 276.29L162.311 284.39C162.311 284.39 179.569 287.216 167.83 290.682C156.09 294.148 129.411 288.849 129.411 288.849C129.411 288.849 131.438 277.108 133.596 275.552C135.754 273.996 149.259 276.29 149.259 276.29Z" fill="#F37291"/>
<path d="M103.73 216.925C125.744 218.072 132.976 221.371 132.976 221.371C132.976 221.371 130.888 258.811 133.848 264.259C137.009 270.04 131.023 280.417 131.023 280.417L151.443 279.457C151.443 279.457 151.443 278.809 151.443 277.65C151.382 268.109 151.233 223.806 153.261 217.867C153.783 216.151 153.812 214.328 153.343 212.598C152.617 209.655 151.014 206.989 148.735 204.94C146.457 202.89 143.608 201.549 140.549 201.087C134.581 200.141 125.954 198.576 119.092 196.551L118.756 196.449C107.261 193.038 100.883 189.402 100.883 189.402C100.883 189.402 87.286 188.481 83.8814 194.466C83.4454 195.242 81.5665 196.768 81.4881 198C80.978 206.245 85.7777 220.621 103.73 216.925Z" fill="#96A2D0"/>
<path d="M136.063 181.979L136.451 189.891C136.451 189.891 138.247 189.845 140.923 189.687C150.056 189.154 169.455 187.389 162.864 182.098C157.197 177.55 147.214 178.999 141.168 180.478C138.949 181.024 137.244 181.57 136.503 181.83C136.215 181.924 136.063 181.979 136.063 181.979Z" fill="#F8B9BF"/>
<path d="M84.2693 128.131C84.2693 128.131 86.8849 130.335 90.1283 132.773C93.7465 133.737 97.9751 134.594 100.996 135.161C100.059 131.686 100.892 127.913 102.273 124.592C103.773 121.138 105.763 117.907 108.185 114.996L90.0062 108.571C91.2922 112.216 90.4421 116.288 89.0602 119.771C87.8403 122.749 86.2299 125.559 84.2693 128.131V128.131Z" fill="#F8B9BF"/>
<path opacity="0.1" d="M136.172 184.208L136.451 189.891C136.451 189.891 138.247 189.844 140.923 189.686L141.167 180.474C138.949 181.019 137.244 181.565 136.503 181.825L136.172 184.208Z" fill="black"/>
<path d="M134.977 190.16L140.544 189.9L140.806 180.061L136.35 180.269L134.977 190.16Z" fill="#D9DFE8"/>
<path d="M81.8846 200.302C93.6548 212.268 115.604 198.046 121.507 193.834C122.466 193.148 123.002 192.726 123.002 192.726C120.822 190.556 117.335 188.548 115.997 183.112C114.72 177.565 113.854 171.934 113.407 166.264C113.045 161.767 117.797 153.202 116.424 148.93C115.051 144.658 109.396 143.256 107.021 139.389C106.397 138.383 105.778 137.437 105.168 136.609C100.782 130.641 93.1404 126.621 93.1404 126.621C76.8582 121.185 75.5809 143.925 75.9864 144.633C76.3918 145.341 74.5303 170.408 81.8846 200.302Z" fill="#9FC8FE"/>
<path opacity="0.1" d="M81.7626 167.552C81.7626 167.552 91.2181 193.31 95.39 194.935C97.7789 195.864 110.809 194.862 121.507 193.835C122.466 193.148 123.002 192.726 123.002 192.726C120.822 190.556 119.048 186.084 117.714 180.653L103.987 180.7C103.987 180.7 105.098 173.026 103.869 155.594C102.64 138.162 91.2922 141.994 91.2922 141.994C72.5775 147.242 81.7626 167.552 81.7626 167.552Z" fill="black"/>
<path opacity="0.1" d="M134.977 190.16L137.379 190.049L138.465 180.171L136.35 180.269L134.977 190.16Z" fill="black"/>
<path d="M91.6148 140.886C91.6148 140.886 102.949 137.079 104.192 154.485C105.434 171.892 104.322 179.591 104.322 179.591L137.811 179.472L136.525 191.179C136.525 191.179 99.9063 195.442 95.7213 193.826C91.5364 192.21 82.0896 166.448 82.0896 166.448C82.0896 166.448 72.8958 146.134 91.6148 140.886Z" fill="#9FC8FE"/>
<path opacity="0.1" d="M92.0291 115.217C92.635 112.659 89.8494 112.578 88.9775 110.102L107.165 116.496C105.81 118.121 104.589 119.847 103.512 121.659C102.543 121.895 101.553 122.038 100.556 122.085C96.1356 122.299 94.9542 118.023 92.0291 115.217Z" fill="black"/>
<path d="M101.593 120.592C110 120.197 116.489 113.212 116.085 104.99C115.681 96.7682 108.538 90.4232 100.131 90.8181C91.7234 91.2131 85.2353 98.1983 85.6392 106.42C86.043 114.642 93.1858 120.987 101.593 120.592Z" fill="#F8B9BF"/>
<path opacity="0.1" d="M92.988 151.94C92.988 151.94 97.8095 174.275 103.503 176.556C109.196 178.837 106.615 179.323 106.615 179.323" fill="black"/>
<path opacity="0.1" d="M112.858 164.555C112.858 164.555 108.83 165.787 104.139 159.899Z" fill="black"/>
<path d="M82.5255 91.7702C86.3777 91.7702 89.5005 88.7162 89.5005 84.949C89.5005 81.1818 86.3777 78.1279 82.5255 78.1279C78.6733 78.1279 75.5505 81.1818 75.5505 84.949C75.5505 88.7162 78.6733 91.7702 82.5255 91.7702Z" fill="#A35610"/>
<path d="M77.6257 88.5509C76.4132 87.2865 75.7384 85.6182 75.7384 83.8848C75.7384 82.1515 76.4132 80.4831 77.6257 79.2188C77.5123 79.3083 77.399 79.3978 77.2944 79.4959C75.9463 80.7351 75.1568 82.4473 75.0995 84.2557C75.0423 86.0642 75.722 87.8208 76.9892 89.1392C78.2564 90.4576 80.0072 91.2297 81.8564 91.2856C83.7057 91.3416 85.502 90.6768 86.8501 89.4376C86.9591 89.3396 87.055 89.233 87.1509 89.1307C85.7851 90.2359 84.0403 90.791 82.271 90.6833C80.5017 90.5756 78.8408 89.8132 77.6257 88.5509Z" fill="#A35610"/>
<path d="M81.6102 91.1258C79.84 91.2301 78.0956 90.671 76.7319 89.5622C75.3682 88.4535 74.4875 86.8784 74.269 85.1573C74.269 85.298 74.269 85.4387 74.269 85.5836C74.3847 87.3893 75.229 89.0761 76.6164 90.273C77.3033 90.8656 78.1029 91.3201 78.9695 91.6105C79.8361 91.901 80.7526 92.0216 81.6669 91.9656C82.5811 91.9097 83.4751 91.6781 84.2979 91.2843C85.1206 90.8904 85.856 90.3419 86.462 89.6701C87.068 88.9983 87.5327 88.2163 87.8297 87.3689C88.1267 86.5214 88.2501 85.6251 88.1928 84.731C88.1928 84.5861 88.1623 84.4496 88.1449 84.3047C88.1484 86.0416 87.4743 87.7144 86.26 88.9819C85.0457 90.2494 83.3827 91.0162 81.6102 91.1258Z" fill="#A35610"/>
<path opacity="0.1" d="M106.48 90.8785C108.106 91.663 109.968 91.8804 111.711 92.3749C113.455 92.8694 115.234 93.7732 116.001 95.3847C116.563 96.5699 116.498 97.9725 117.086 99.1449C117.932 100.85 119.885 101.635 121.681 102.304C120.138 104.329 116.825 103.779 114.663 102.402C112.5 101.025 110.639 98.9914 108.123 98.4585C106.882 98.2191 105.596 98.3606 104.44 98.8635C103.285 99.3664 102.316 100.206 101.667 101.268C100.979 102.449 100.734 103.826 100.394 105.139C99.5225 108.601 97.7787 112.045 94.7272 114.011C91.6756 115.976 87.1288 115.963 84.7355 113.273C83.3406 111.704 82.8741 109.568 82.46 107.531C82.2241 106.58 82.1114 105.605 82.1243 104.627C82.2638 102.18 83.9291 100.096 85.6118 98.2794C87.5953 96.1478 89.7052 94.1015 91.8151 92.068C93.6374 90.3115 95.7386 87.3358 98.4849 87.1269C101.65 86.8797 103.886 89.6379 106.48 90.8785Z" fill="black"/>
<path d="M106.044 90.4527C107.67 91.2372 109.532 91.4546 111.275 91.9491C113.019 92.4437 114.798 93.3475 115.565 94.9589C116.127 96.1441 116.062 97.5467 116.651 98.7191C117.496 100.424 119.449 101.209 121.245 101.878C119.702 103.903 116.389 103.353 114.227 101.976C112.064 100.599 110.203 98.5656 107.688 98.0327C106.447 97.7934 105.16 97.9348 104.005 98.4377C102.849 98.9406 101.88 99.7804 101.231 100.842C100.543 102.023 100.299 103.4 99.9586 104.713C99.0867 108.175 97.343 111.62 94.2914 113.585C91.2399 115.55 86.693 115.537 84.2998 112.847C82.9048 111.278 82.4383 109.143 82.0242 107.105C81.7883 106.155 81.6756 105.179 81.6885 104.202C81.828 101.754 83.4933 99.6698 85.176 97.8537C87.1595 95.7221 89.2694 93.6757 91.3793 91.6422C93.2016 89.8857 95.3028 86.91 98.0492 86.7011C101.214 86.4539 103.45 89.2122 106.044 90.4527Z" fill="#A35610"/>
<path d="M107.727 185.134H65.4281C63.3816 185.134 61.7227 186.756 61.7227 188.758V189.022C61.7227 191.023 63.3816 192.646 65.4281 192.646H107.727C109.773 192.646 111.432 191.023 111.432 189.022V188.758C111.432 186.756 109.773 185.134 107.727 185.134Z" fill="#D6D6E3"/>
<path opacity="0.1" d="M61.7227 188.971V189.563C61.7227 190.383 62.0556 191.169 62.6484 191.749C63.2411 192.328 64.045 192.654 64.8832 192.654H108.272C109.11 192.654 109.914 192.328 110.507 191.749C111.099 191.169 111.432 190.383 111.432 189.563V188.971H61.7227Z" fill="black"/>
<path d="M157.812 192.965H149.263V299.472H157.812V192.965Z" fill="#D6D6E3"/>
<path opacity="0.1" d="M157.812 192.965H149.263V199.871H157.812V192.965Z" fill="black"/>
<path d="M371.172 185.33H145.174V199.143H371.172V185.33Z" fill="#D6D6E3"/>
<defs>
<linearGradient id="paint0_linear_1581_140" x1="376.693" y1="295.86" x2="396.016" y2="76.309" gradientUnits="userSpaceOnUse">
<stop stop-color="#808080" stop-opacity="0.25"/>
<stop offset="0.54" stop-color="#808080" stop-opacity="0.12"/>
<stop offset="1" stop-color="#808080" stop-opacity="0.1"/>
</linearGradient>
<linearGradient id="paint1_linear_1581_140" x1="35074.1" y1="154555" x2="35074.1" y2="43036.4" gradientUnits="userSpaceOnUse">
<stop stop-color="#808080" stop-opacity="0.25"/>
<stop offset="0.54" stop-color="#808080" stop-opacity="0.12"/>
<stop offset="1" stop-color="#808080" stop-opacity="0.1"/>
</linearGradient>
</defs>
</svg>
