<svg width="569" height="350" viewBox="0 0 569 350" fill="none" xmlns="http://www.w3.org/2000/svg">
<g clip-path="url(#clip0_1581_487)">
<path d="M474.337 331.579H453.46V350H474.337V331.579Z" fill="#F0F0F0"/>
<path d="M568.284 154.737C568.293 182.514 560.824 209.781 546.661 233.676C532.497 257.57 512.162 277.211 487.791 290.537C486.409 291.292 485.009 292.029 483.603 292.741C478.387 295.4 473.022 297.754 467.533 299.79C465.347 300.613 463.139 301.379 460.908 302.087C460.693 302.161 460.472 302.234 460.257 302.296C438.407 309.233 415.287 311.218 392.575 308.109C369.862 304.999 348.127 296.872 328.946 284.317C326.373 282.634 323.854 280.878 321.387 279.048C319.993 278.011 318.618 276.954 317.261 275.868C313.423 272.822 309.739 269.594 306.208 266.184C291.198 251.766 279.26 234.46 271.115 215.307C262.969 196.154 258.784 175.55 258.811 154.737C258.811 69.2755 328.086 0 413.547 0C499.009 0 568.284 69.2755 568.284 154.737Z" fill="#E7F3FF"/>
<path d="M450.5 226.947L447.012 240.136L460.257 302.295C424.655 313.509 386.206 311.532 351.941 296.726L362.282 253.369L362.626 229.851L363.749 152.305L364.032 152.157C364.049 152.147 364.068 152.138 364.087 152.133L390.429 138.606L435.88 137.47L469.793 153.987L469.535 154.951L450.5 226.947Z" fill="#9FC8FE"/>
<path d="M469.083 340.263C468.039 339.021 467.281 337.564 466.861 335.997C466.441 334.43 466.369 332.789 466.652 331.191C466.935 329.593 467.564 328.077 468.496 326.748C469.428 325.42 470.64 324.312 472.047 323.503L464.669 284.753L483.59 292.638L487.695 328.227C488.898 330.68 489.159 333.489 488.43 336.121C487.7 338.754 486.03 341.028 483.735 342.512C481.441 343.995 478.683 344.586 475.982 344.172C473.282 343.757 470.827 342.367 469.083 340.263Z" fill="#9E616A"/>
<path d="M462.957 155.193L467.812 153.613C467.812 153.613 483.212 163.497 481.747 187.393C481.747 187.393 482.324 199.758 481.773 207.987C481.141 217.426 489.614 311.224 489.614 311.224H462.171L450.41 226.282L462.957 155.193Z" fill="#9FC8FE"/>
<path d="M447.039 95.0713C447.039 101.303 445.191 107.394 441.729 112.576C438.267 117.757 433.346 121.795 427.589 124.18C421.832 126.564 415.497 127.188 409.386 125.973C403.274 124.757 397.66 121.756 393.254 117.35C388.847 112.944 385.847 107.33 384.631 101.218C383.415 95.1063 384.039 88.7713 386.424 83.0142C388.808 77.2571 392.847 72.3364 398.028 68.8744C403.209 65.4124 409.301 63.5646 415.532 63.5646C419.659 63.5542 423.748 64.357 427.565 65.9268C431.382 67.4967 434.853 69.8031 437.778 72.7142C440.704 75.6253 443.028 79.0841 444.617 82.8932C446.206 86.7023 447.029 90.7871 447.039 94.9143C447.039 94.9667 447.039 95.019 447.039 95.0713Z" fill="#F8B9BF"/>
<path d="M384.13 52.752C387.821 44.8155 394.964 46.3846 401.21 49.0749C409.121 47.3202 416.644 42.0671 425.167 45.1738C433.562 57.3846 461.75 53.792 455.753 73.6712C455.745 78.4347 464.717 75.6621 463.15 83.4636C467.903 98.4775 445.996 126.912 433.42 120.924C436.53 115.224 443.635 102.277 432.859 100.992C409.678 122.562 430.467 59.9194 401.341 78.1368C391.697 86.9627 378.494 61.5801 384.13 52.752Z" fill="#B96B6B"/>
<path d="M432.344 305.485L382.051 295.524L394.947 230.412C412.742 237.143 429.506 240.463 445.24 240.373C431.49 260.539 425.243 282.191 432.344 305.485Z" fill="#E7F3FF"/>
<path d="M425.031 309.31L374.738 299.349C370.609 269.851 374.362 247.642 387.634 234.237C405.429 240.968 422.193 244.288 437.927 244.198C429.615 264.911 425.241 286.993 425.031 309.31Z" fill="#E7F3FF"/>
<path d="M391.709 291.172C391.509 289.562 390.959 288.015 390.097 286.64C389.235 285.265 388.082 284.096 386.72 283.214C385.357 282.333 383.818 281.762 382.21 281.54C380.602 281.318 378.966 281.451 377.415 281.931L354.058 250.144L346.951 269.37L370.221 296.608C371.198 299.159 373.078 301.263 375.503 302.521C377.928 303.779 380.73 304.104 383.379 303.434C386.028 302.764 388.339 301.146 389.874 298.886C391.409 296.626 392.062 293.881 391.709 291.172Z" fill="#9E616A"/>
<path d="M370.766 153.982L366.535 151.125C366.535 151.125 341.36 153.469 336.179 176.842C336.179 176.842 332.392 190.885 330.653 198.948C329.758 203.094 317.828 243.158 317.828 243.158L358.284 287.369L369.337 270.79L358.284 243.158L370.766 153.982Z" fill="#9FC8FE"/>
<path d="M20.8772 77.6875H0V96.1085H20.8772V77.6875Z" fill="#214072"/>
<path d="M65.7017 151.371H44.8245V169.792H65.7017V151.371Z" fill="#214072"/>
<path d="M98.2456 277.249H77.3684V295.67H98.2456V277.249Z" fill="#214072"/>
<path d="M77.5199 35.3984C76.9011 35.3984 76.3075 35.6443 75.8699 36.0819C75.4324 36.5195 75.1865 37.113 75.1865 37.7318C75.1865 38.3507 75.4324 38.9442 75.8699 39.3818C76.3075 39.8194 76.9011 40.0653 77.5199 40.0653H247.885C248.503 40.0638 249.096 39.8174 249.532 39.3799C249.968 38.9425 250.214 38.3498 250.214 37.7318C250.214 37.1139 249.968 36.5212 249.532 36.0838C249.096 35.6463 248.503 35.3999 247.885 35.3984H77.5199Z" fill="#214072"/>
<path d="M77.5201 49.3984C77.2135 49.3975 76.9097 49.457 76.6261 49.5736C76.3426 49.6901 76.0847 49.8614 75.8674 50.0777C75.65 50.2939 75.4774 50.5509 75.3594 50.8339C75.2414 51.1169 75.1803 51.4203 75.1797 51.7269C75.179 52.0335 75.2388 52.3373 75.3556 52.6208C75.4724 52.9042 75.644 53.1619 75.8604 53.3791C76.0768 53.5963 76.334 53.7686 76.6171 53.8864C76.9002 54.0041 77.2037 54.0649 77.5103 54.0653H185.217C185.836 54.0653 186.43 53.8194 186.867 53.3818C187.305 52.9442 187.551 52.3507 187.551 51.7318C187.551 51.113 187.305 50.5195 186.867 50.0819C186.43 49.6443 185.836 49.3984 185.217 49.3984H77.5201Z" fill="#214072"/>
<path d="M55.4147 203.03C54.7958 203.03 54.2023 203.276 53.7647 203.714C53.3271 204.151 53.0813 204.745 53.0813 205.364C53.0813 205.983 53.3271 206.576 53.7647 207.014C54.2023 207.451 54.7958 207.697 55.4147 207.697H225.78C226.398 207.696 226.99 207.449 227.427 207.012C227.863 206.574 228.108 205.982 228.108 205.364C228.108 204.746 227.863 204.153 227.427 203.716C226.99 203.278 226.398 203.032 225.78 203.03H55.4147Z" fill="#214072"/>
<path d="M55.4147 217.03C55.1081 217.029 54.8043 217.089 54.5207 217.205C54.2371 217.322 53.9792 217.493 53.7619 217.709C53.5445 217.926 53.3719 218.183 53.2539 218.466C53.1359 218.749 53.0749 219.052 53.0742 219.359C53.0736 219.665 53.1334 219.969 53.2502 220.253C53.367 220.536 53.5385 220.794 53.7549 221.011C53.9714 221.228 54.2285 221.4 54.5116 221.518C54.7947 221.636 55.0982 221.697 55.4048 221.697H163.112C163.731 221.697 164.324 221.451 164.762 221.014C165.199 220.576 165.445 219.983 165.445 219.364C165.445 218.745 165.199 218.151 164.762 217.714C164.324 217.276 163.731 217.03 163.112 217.03H55.4147Z" fill="#214072"/>
<path d="M152.432 322.767C151.813 322.767 151.22 323.012 150.782 323.45C150.345 323.888 150.099 324.481 150.099 325.1C150.099 325.719 150.345 326.312 150.782 326.75C151.22 327.188 151.813 327.433 152.432 327.433H322.798C323.416 327.432 324.008 327.186 324.444 326.748C324.881 326.311 325.126 325.718 325.126 325.1C325.126 324.482 324.881 323.889 324.444 323.452C324.008 323.014 323.416 322.768 322.798 322.767H152.432Z" fill="#214072"/>
<path d="M152.432 336.768C152.126 336.767 151.822 336.826 151.538 336.943C151.255 337.059 150.997 337.231 150.779 337.447C150.562 337.663 150.39 337.92 150.272 338.203C150.154 338.486 150.092 338.789 150.092 339.096C150.091 339.403 150.151 339.706 150.268 339.99C150.385 340.273 150.556 340.531 150.773 340.748C150.989 340.965 151.246 341.138 151.529 341.256C151.812 341.373 152.116 341.434 152.422 341.434H260.129C260.748 341.434 261.342 341.189 261.779 340.751C262.217 340.313 262.463 339.72 262.463 339.101C262.463 338.482 262.217 337.889 261.779 337.451C261.342 337.013 260.748 336.768 260.129 336.768H152.432Z" fill="#214072"/>
<path d="M9.8172 86.9811C14.8187 85.8828 19.55 83.7955 23.7331 80.842C27.9162 77.8885 31.4665 74.1285 34.1752 69.7829C35.7131 67.3123 36.9525 64.668 37.8675 61.9054C37.9367 61.6767 37.9143 61.4301 37.8052 61.2175C37.696 61.0049 37.5086 60.8431 37.2824 60.766C37.0562 60.689 36.8089 60.7028 36.5927 60.8045C36.3765 60.9062 36.2082 61.0879 36.1234 61.3113C34.5532 65.9286 32.075 70.185 28.8346 73.8299C25.5942 77.4747 21.6572 80.4342 17.2554 82.5341C14.7752 83.7192 12.1625 84.6046 9.47276 85.1715C8.31251 85.4162 8.6545 87.2263 9.8172 86.9811Z" fill="#214072"/>
<path d="M27.7653 65.4327C31.0859 63.5626 34.4064 61.6926 37.727 59.8225C37.8809 59.7364 38.3115 59.4101 38.4724 59.4491C38.3434 59.4178 38.4605 59.5134 38.4643 59.63C38.4694 59.787 38.4892 59.9465 38.4951 60.1046C38.5312 61.0743 38.5488 62.0451 38.5757 63.0151L38.7301 68.5937C38.7626 69.7679 40.601 69.9075 40.5682 68.7195L40.3869 62.1708C40.3454 60.67 40.7208 57.3411 38.2892 57.6289C37.4117 57.7327 36.6004 58.3474 35.8519 58.7689L32.8201 60.4764L26.973 63.7693C25.9433 64.3492 26.7312 66.015 27.7653 65.4327V65.4327Z" fill="#214072"/>
<path d="M55.4521 160.517C50.5014 161.817 45.8604 164.093 41.8017 167.211C37.7431 170.33 34.3487 174.228 31.8181 178.677C30.3815 181.206 29.2502 183.896 28.4478 186.692C28.3923 186.924 28.4292 187.169 28.5508 187.375C28.6724 187.58 28.8691 187.731 29.0994 187.794C29.3298 187.858 29.5758 187.829 29.7857 187.715C29.9955 187.601 30.1527 187.409 30.2241 187.181C31.6143 182.503 33.9269 178.15 37.0255 174.38C40.1241 170.61 43.9461 167.498 48.2663 165.227C50.6991 163.948 53.2758 162.963 55.9418 162.294C57.0905 162.004 56.6038 160.227 55.4521 160.517L55.4521 160.517Z" fill="#214072"/>
<path d="M38.3714 182.769L28.7453 188.704C28.5803 188.806 28.4181 188.917 28.2464 189.007C28.076 189.097 27.9007 189.094 28.0109 189.202C27.8623 189.056 27.9002 188.515 27.8891 188.35L27.7016 185.566L27.3266 179.998C27.2473 178.821 25.4046 178.813 25.4845 179.998L25.9247 186.534C26.0249 188.023 25.7476 191.103 28.0262 190.979C29.0407 190.923 30.0073 190.09 30.8386 189.577L33.589 187.882L39.3012 184.36C40.3085 183.739 39.3844 182.145 38.3714 182.769V182.769Z" fill="#214072"/>
<path d="M87.1285 285.714C91.8497 286.95 96.2757 289.119 100.146 292.092C104.016 295.066 107.251 298.784 109.662 303.027C111.02 305.417 112.09 307.96 112.846 310.602C112.918 310.83 113.075 311.021 113.285 311.136C113.494 311.25 113.74 311.279 113.971 311.215C114.201 311.152 114.398 311.001 114.519 310.795C114.641 310.59 114.678 310.345 114.622 310.112C113.169 305.205 110.75 300.637 107.506 296.678C104.262 292.719 100.26 289.448 95.7337 287.057C93.1615 285.7 90.4373 284.653 87.6182 283.938C86.4684 283.648 85.9779 285.424 87.1285 285.714Z" fill="#214072"/>
<path d="M103.769 307.781L109.481 311.302L112.231 312.998C113.065 313.512 114.028 314.344 115.044 314.399C117.322 314.524 117.045 311.444 117.145 309.955L117.585 303.419C117.665 302.236 115.823 302.24 115.743 303.419L115.368 308.987L115.189 311.65C115.175 311.854 115.229 312.454 115.059 312.623C115.18 312.502 115.054 312.56 114.919 312.478C114.722 312.359 114.521 312.246 114.325 312.125L104.698 306.19C103.687 305.566 102.76 307.159 103.769 307.781Z" fill="#214072"/>
<path d="M41.7545 52.5113C46.5022 52.5113 50.351 48.6626 50.351 43.9148C50.351 39.1671 46.5022 35.3184 41.7545 35.3184C37.0067 35.3184 33.158 39.1671 33.158 43.9148C33.158 48.6626 37.0067 52.5113 41.7545 52.5113Z" fill="#214072"/>
<path d="M27.0176 220.961C31.7653 220.961 35.6141 217.112 35.6141 212.364C35.6141 207.616 31.7653 203.768 27.0176 203.768C22.2699 203.768 18.4211 207.616 18.4211 212.364C18.4211 217.112 22.2699 220.961 27.0176 220.961Z" fill="#214072"/>
<path d="M119.737 340.494C124.485 340.494 128.333 336.645 128.333 331.897C128.333 327.15 124.485 323.301 119.737 323.301C114.989 323.301 111.14 327.15 111.14 331.897C111.14 336.645 114.989 340.494 119.737 340.494Z" fill="#214072"/>
</g>
<defs>
<clipPath id="clip0_1581_487">
<rect width="568.284" height="350" fill="white"/>
</clipPath>
</defs>
</svg>
