<svg width="8" height="8" viewBox="0 0 8 8" fill="none" xmlns="http://www.w3.org/2000/svg">
<path d="M7.11149 0.632442C6.88307 0.404022 6.51279 0.40382 6.28413 0.631991L4.00469 2.90646L1.24206 0.379334C1.01011 0.167154 0.652244 0.175116 0.429957 0.397402C0.194915 0.632445 0.201466 1.01549 0.444408 1.24236L2.5921 3.24795C3.37994 3.98366 4.60911 3.96264 5.37134 3.20041L7.11149 1.46026C7.34009 1.23167 7.34009 0.861038 7.11149 0.632442Z" fill="#72738E"/>
<path d="M7.1696 3.41516C6.94118 3.18674 6.5709 3.18654 6.34223 3.41471L4.06279 5.68918L1.30017 3.16205C1.06821 2.94987 0.710349 2.95783 0.488062 3.18012C0.25302 3.41516 0.259571 3.79821 0.502514 4.02508L2.65021 6.03066C3.43805 6.76638 4.66722 6.74535 5.42944 5.98313L7.1696 4.24298C7.3982 4.01438 7.39819 3.64375 7.1696 3.41516Z" fill="#72738E"/>
</svg>
