<svg width="335" height="287" viewBox="0 0 335 287" fill="none" xmlns="http://www.w3.org/2000/svg">
<g clip-path="url(#clip0_8_23882)">
<path d="M25.1148 263.377C27.042 264.055 29.1112 264.224 31.1231 263.87C33.1349 263.516 35.0216 262.649 36.6013 261.354C40.6245 257.977 41.8861 252.415 42.9122 247.264L45.9479 232.027L39.5924 236.404C35.0216 239.551 30.348 242.799 27.1835 247.357C24.019 251.916 22.6384 258.139 25.1803 263.071" fill="#E6E6E6"/>
<path d="M26.0965 282.884C25.2965 277.056 24.4735 271.153 25.0359 265.263C25.5344 260.031 27.1305 254.922 30.3798 250.732C32.1046 248.512 34.2033 246.61 36.5816 245.112C37.2016 244.721 37.7724 245.703 37.1551 246.093C33.0398 248.694 29.8568 252.534 28.0649 257.06C26.0859 262.093 25.7681 267.581 26.109 272.927C26.315 276.161 26.7529 279.373 27.1926 282.582C27.2273 282.727 27.2056 282.88 27.132 283.009C27.0583 283.139 26.9381 283.236 26.7957 283.28C26.6504 283.32 26.4955 283.3 26.3647 283.226C26.2339 283.151 26.1377 283.028 26.0969 282.883L26.0965 282.884Z" fill="#F2F2F2"/>
<path d="M31.854 273.532C32.6804 274.789 33.8165 275.812 35.1529 276.501C36.4892 277.191 37.9807 277.525 39.4837 277.472C43.347 277.288 46.5665 274.593 49.4644 272.033L58.0375 264.464L52.3637 264.192C48.2834 263.997 44.0977 263.814 40.2113 265.073C36.3249 266.333 32.7407 269.36 32.0301 273.383" fill="#E6E6E6"/>
<path d="M23.835 286.235C27.6862 279.421 32.1529 271.848 40.1348 269.427C42.354 268.757 44.6809 268.516 46.9903 268.719C47.7183 268.782 47.5365 269.904 46.8101 269.842C42.9388 269.52 39.0751 270.542 35.8693 272.736C32.7843 274.836 30.3822 277.755 28.3494 280.851C27.1041 282.747 25.9886 284.724 24.8732 286.698C24.5167 287.329 23.4744 286.874 23.835 286.235Z" fill="#F2F2F2"/>
<path d="M331.99 202.113H119.667C119.013 202.113 118.386 201.852 117.923 201.39C117.46 200.927 117.2 200.3 117.199 199.646V2.4678C117.2 1.81357 117.46 1.18636 117.923 0.723747C118.386 0.26113 119.013 0.000855255 119.667 0H331.99C332.644 0.000855255 333.271 0.26113 333.734 0.723747C334.196 1.18636 334.457 1.81357 334.457 2.4678V199.645C334.457 200.299 334.196 200.927 333.734 201.389C333.271 201.852 332.644 202.112 331.99 202.113V202.113Z" fill="white"/>
<path d="M331.99 202.113H119.667C119.013 202.113 118.386 201.852 117.923 201.39C117.46 200.927 117.2 200.3 117.199 199.646V2.4678C117.2 1.81357 117.46 1.18636 117.923 0.723747C118.386 0.26113 119.013 0.000855255 119.667 0H331.99C332.644 0.000855255 333.271 0.26113 333.734 0.723747C334.196 1.18636 334.457 1.81357 334.457 2.4678V199.645C334.457 200.299 334.196 200.927 333.734 201.389C333.271 201.852 332.644 202.112 331.99 202.113V202.113ZM119.667 0.985177C119.275 0.986029 118.899 1.14217 118.622 1.41942C118.345 1.69668 118.188 2.07247 118.188 2.46457V199.645C118.188 200.037 118.345 200.413 118.622 200.69C118.899 200.968 119.275 201.124 119.667 201.125H331.99C332.382 201.124 332.758 200.968 333.035 200.69C333.312 200.413 333.468 200.037 333.469 199.645V2.4678C333.468 2.07571 333.312 1.69991 333.035 1.42266C332.757 1.14541 332.382 0.989267 331.99 0.988416L119.667 0.985177Z" fill="#CACACA"/>
<path d="M219.993 51.2373C219.549 51.2381 219.124 51.4149 218.81 51.729C218.497 52.0431 218.321 52.4689 218.321 52.9127C218.321 53.3565 218.497 53.7823 218.81 54.0964C219.124 54.4105 219.549 54.5873 219.993 54.5881H311.926C312.37 54.5873 312.795 54.4105 313.109 54.0964C313.422 53.7823 313.598 53.3565 313.598 52.9127C313.598 52.4689 313.422 52.0431 313.109 51.729C312.795 51.4149 312.37 51.2381 311.926 51.2373H219.993Z" fill="#E4E4E4"/>
<path d="M219.994 61.29C219.55 61.2911 219.125 61.4681 218.812 61.7822C218.498 62.0963 218.322 62.5218 218.322 62.9654C218.322 63.4091 218.498 63.8346 218.812 64.1487C219.125 64.4628 219.55 64.6398 219.994 64.6408H266.927C267.371 64.6398 267.796 64.4628 268.109 64.1487C268.422 63.8346 268.598 63.4091 268.598 62.9654C268.598 62.5218 268.422 62.0963 268.109 61.7822C267.796 61.4681 267.371 61.2911 266.927 61.29H219.994Z" fill="#E4E4E4"/>
<path d="M139.641 115.354C139.197 115.355 138.772 115.532 138.459 115.846C138.146 116.16 137.97 116.585 137.97 117.029C137.97 117.473 138.146 117.898 138.459 118.212C138.772 118.526 139.197 118.703 139.641 118.704H312.015C312.459 118.703 312.884 118.526 313.197 118.212C313.511 117.898 313.687 117.473 313.687 117.029C313.687 116.585 313.511 116.16 313.197 115.846C312.884 115.532 312.459 115.355 312.015 115.354H139.641Z" fill="#E4E4E4"/>
<path d="M139.641 125.407C139.197 125.408 138.772 125.585 138.459 125.899C138.146 126.213 137.97 126.639 137.97 127.083C137.97 127.526 138.146 127.952 138.459 128.266C138.772 128.58 139.197 128.757 139.641 128.758H267.016C267.46 128.757 267.885 128.58 268.198 128.266C268.511 127.952 268.687 127.526 268.687 127.083C268.687 126.639 268.511 126.213 268.198 125.899C267.885 125.585 267.46 125.408 267.016 125.407H139.641Z" fill="#E4E4E4"/>
<path d="M139.641 135.233C139.197 135.234 138.772 135.411 138.459 135.726C138.146 136.04 137.97 136.465 137.97 136.909C137.97 137.352 138.146 137.778 138.459 138.092C138.772 138.406 139.197 138.583 139.641 138.584H312.015C312.459 138.583 312.884 138.406 313.197 138.092C313.511 137.778 313.687 137.352 313.687 136.909C313.687 136.465 313.511 136.04 313.197 135.726C312.884 135.411 312.459 135.234 312.015 135.233H139.641Z" fill="#E4E4E4"/>
<path d="M139.641 145.287C139.197 145.288 138.772 145.465 138.459 145.779C138.146 146.093 137.97 146.519 137.97 146.963C137.97 147.406 138.146 147.832 138.459 148.146C138.772 148.46 139.197 148.637 139.641 148.638H267.016C267.46 148.637 267.885 148.46 268.198 148.146C268.511 147.832 268.687 147.406 268.687 146.963C268.687 146.519 268.511 146.093 268.198 145.779C267.885 145.465 267.46 145.288 267.016 145.287H139.641Z" fill="#E4E4E4"/>
<path d="M139.641 155.374C139.197 155.375 138.772 155.552 138.459 155.866C138.146 156.18 137.97 156.606 137.97 157.049C137.97 157.493 138.146 157.919 138.459 158.233C138.772 158.547 139.197 158.724 139.641 158.725H312.015C312.459 158.724 312.884 158.547 313.197 158.233C313.511 157.919 313.687 157.493 313.687 157.049C313.687 156.606 313.511 156.18 313.197 155.866C312.884 155.552 312.459 155.375 312.015 155.374H139.641Z" fill="#E4E4E4"/>
<path d="M139.641 165.428C139.197 165.429 138.772 165.606 138.459 165.92C138.146 166.234 137.97 166.659 137.97 167.103C137.97 167.547 138.146 167.972 138.459 168.286C138.772 168.6 139.197 168.777 139.641 168.779H267.016C267.46 168.777 267.885 168.6 268.198 168.286C268.511 167.972 268.687 167.547 268.687 167.103C268.687 166.659 268.511 166.234 268.198 165.92C267.885 165.606 267.46 165.429 267.016 165.428H139.641Z" fill="#E4E4E4"/>
<path d="M166.944 82.009C162.183 82.0091 157.529 80.5974 153.571 77.9525C149.612 75.3075 146.527 71.5482 144.705 67.1498C142.883 62.7514 142.406 57.9116 143.335 53.2422C144.264 48.5729 146.556 44.2839 149.923 40.9175C153.289 37.5511 157.578 35.2585 162.247 34.3297C166.917 33.4009 171.757 33.8776 176.155 35.6995C180.553 37.5213 184.313 40.6066 186.958 44.565C189.603 48.5235 191.014 53.1773 191.014 57.9381C191.007 64.3199 188.469 70.4381 183.956 74.9507C179.444 79.4633 173.325 82.0017 166.944 82.009Z" fill="#9FC8FE"/>
<path d="M93.8757 173.024C93.8341 172.145 93.6003 171.287 93.1909 170.508C92.7815 169.73 92.2064 169.05 91.506 168.518C90.8057 167.986 89.9972 167.614 89.1375 167.428C88.2778 167.242 87.3878 167.247 86.5301 167.442L78.5738 156.229L70.5806 159.403L82.0389 175.079C82.4625 176.498 83.3918 177.713 84.6509 178.492C85.91 179.272 87.4112 179.563 88.8703 179.309C90.3293 179.056 91.6447 178.276 92.5673 177.118C93.4898 175.959 93.9553 174.503 93.8757 173.024H93.8757Z" fill="#A0616A"/>
<path d="M78.3692 172.193L54.2944 140.961L63.315 112.611C63.9761 105.483 68.4362 103.493 68.626 103.411L68.9155 103.287L76.7651 124.22L71.0017 139.589L85.1479 163.381L78.3692 172.193Z" fill="#D54B41"/>
<path d="M161.976 75.9143C161.103 76.0237 160.265 76.3232 159.521 76.7916C158.776 77.26 158.143 77.8859 157.667 78.6253C157.191 79.3647 156.882 80.1995 156.763 81.071C156.644 81.9425 156.718 82.8295 156.979 83.6694L146.415 92.4689L150.197 100.193L164.941 87.5568C166.323 87.0248 167.461 86.0043 168.141 84.6887C168.821 83.3731 168.995 81.8539 168.63 80.4188C168.264 78.9837 167.385 77.7325 166.159 76.9023C164.932 76.0721 163.444 75.7206 161.976 75.9143Z" fill="#A0616A"/>
<path d="M162.347 91.4394L133.069 117.857L104.106 111.055C96.949 110.947 94.6199 106.654 94.5241 106.471L94.3779 106.192L114.641 96.7478L130.41 101.306L153.037 85.3623L162.347 91.4394Z" fill="#D54B41"/>
<path d="M111.634 279.24L119.5 279.24L123.242 248.898L111.632 248.899L111.634 279.24Z" fill="#A0616A"/>
<path d="M134.671 286.544L109.949 286.545L109.948 276.993L127.735 276.992C129.574 276.992 131.338 277.723 132.639 279.024C133.94 280.324 134.671 282.088 134.671 283.928L134.671 286.544L134.671 286.544Z" fill="#75A1DE"/>
<path d="M80.1939 279.24L88.0601 279.24L91.8024 248.898L80.1929 248.899L80.1939 279.24Z" fill="#A0616A"/>
<path d="M103.231 286.544L78.5086 286.545L78.5082 276.993L96.2946 276.992C97.2054 276.992 98.1074 277.172 98.9489 277.52C99.7904 277.869 100.555 278.38 101.199 279.024C101.843 279.668 102.354 280.432 102.703 281.274C103.051 282.115 103.231 283.017 103.231 283.928L103.231 286.544Z" fill="#75A1DE"/>
<path d="M77.3965 168.492L78.038 213.406L78.6801 272.436L92.7955 271.153L99.8537 189.666L108.837 271.153H123.409L124.877 189.025L119.744 171.059L77.3965 168.492Z" fill="#75A1DE"/>
<path d="M105.025 174.524C89.6659 174.525 75.5282 167.574 75.3374 167.478L75.1789 167.399L73.89 136.467C73.5162 135.374 66.1565 113.806 64.91 106.95C63.6471 100.005 81.9505 93.9089 84.1732 93.1961L84.6776 87.6086L105.189 85.3984L107.788 92.5478L115.147 95.307C115.981 95.6201 116.672 96.2283 117.087 97.0163C117.503 97.8044 117.615 98.7176 117.403 99.5829L113.313 116.215L123.302 171.24L121.151 171.333C115.997 173.661 110.433 174.524 105.025 174.524Z" fill="#D54B41"/>
<path d="M102.82 80.0488C109.976 76.1365 112.606 67.1634 108.694 60.0068C104.782 52.8501 95.8089 50.2199 88.6522 54.1321C81.4955 58.0443 78.8653 67.0175 82.7775 74.1741C86.6898 81.3308 95.6629 83.961 102.82 80.0488Z" fill="#F19959"/>
<path d="M83.7747 81.3871C86.5892 84.3851 91.816 82.7757 92.1827 78.68C92.2115 78.3621 92.2094 78.042 92.1765 77.7245C91.9872 75.9103 90.9391 74.2632 91.1901 72.3476C91.2469 71.8708 91.4245 71.4165 91.7061 71.0276C93.9489 68.0244 99.2136 72.3709 101.33 69.6521C102.628 67.9851 101.102 65.3603 102.098 63.4971C103.413 61.0379 107.307 62.251 109.748 60.9043C112.465 59.4058 112.302 55.2377 110.514 52.7024C108.333 49.6105 104.509 47.9607 100.733 47.723C96.9571 47.4852 93.2069 48.506 89.6815 49.8799C85.676 51.4409 81.7039 53.5982 79.2389 57.1203C76.2413 61.4035 75.9528 67.162 77.452 72.1704C78.364 75.2171 81.4764 78.9389 83.7747 81.3871Z" fill="#303D60"/>
<path d="M187.655 286.925H0.491243C0.360957 286.925 0.236 286.873 0.143874 286.781C0.051748 286.689 0 286.564 0 286.434C0 286.303 0.051748 286.178 0.143874 286.086C0.236 285.994 0.360957 285.942 0.491243 285.942H187.655C187.785 285.942 187.91 285.994 188.002 286.086C188.094 286.178 188.146 286.303 188.146 286.434C188.146 286.564 188.094 286.689 188.002 286.781C187.91 286.873 187.785 286.925 187.655 286.925Z" fill="#CACACA"/>
<path d="M165.553 67.0302C165.119 67.0307 164.701 66.8664 164.383 66.5706L156.446 59.1983C156.112 58.8879 155.916 58.4577 155.899 58.0023C155.883 57.5469 156.047 57.1036 156.358 56.7697C156.668 56.4358 157.098 56.2387 157.553 56.2216C158.008 56.2046 158.452 56.369 158.786 56.6788L165.509 62.9234L178.81 49.6225C178.97 49.4618 179.159 49.3342 179.368 49.247C179.577 49.1598 179.801 49.1147 180.027 49.1143C180.254 49.1138 180.478 49.1581 180.687 49.2446C180.896 49.331 181.086 49.4579 181.246 49.618C181.406 49.778 181.533 49.9681 181.62 50.1773C181.706 50.3866 181.75 50.6108 181.75 50.8371C181.749 51.0635 181.704 51.2875 181.617 51.4964C181.53 51.7052 181.402 51.8948 181.241 52.0542L166.769 66.5267C166.609 66.6865 166.42 66.8133 166.211 66.8997C166.002 66.9861 165.779 67.0304 165.553 67.0302Z" fill="white"/>
</g>
<defs>
<clipPath id="clip0_8_23882">
<rect width="334.457" height="287" fill="white"/>
</clipPath>
</defs>
</svg>
