<svg width="94" height="26" viewBox="0 0 94 26" fill="none" xmlns="http://www.w3.org/2000/svg">
<path d="M27.8399 7.74075C27.3758 7.74075 27 7.36497 27 6.90087V0.83988C27 0.375781 27.3758 0 27.8399 0C28.304 0 28.6798 0.375781 28.6798 0.83988V6.90087C28.6798 7.36497 28.304 7.74075 27.8399 7.74075Z" fill="#595959"/>
<path d="M32.0065 3.1001H28.3525V4.624H32.0065V3.1001Z" fill="#595959"/>
<path d="M32.6328 7.74075C32.1688 7.74075 31.793 7.36497 31.793 6.90087V0.83988C31.793 0.375781 32.1688 0 32.6328 0C33.0969 0 33.4727 0.375781 33.4727 0.83988V6.90087C33.4727 7.36497 33.0969 7.74075 32.6328 7.74075Z" fill="#595959"/>
<path d="M35.6499 7.73986C35.1858 7.73986 34.8101 7.36408 34.8101 6.89998V2.6746C34.8101 2.2105 35.1858 1.83472 35.6499 1.83472C36.114 1.83472 36.4898 2.2105 36.4898 2.6746V6.89998C36.4898 7.36408 36.114 7.73986 35.6499 7.73986Z" fill="#595959"/>
<path d="M35.6802 1.61049C36.125 1.61049 36.4855 1.24997 36.4855 0.805246C36.4855 0.360521 36.125 0 35.6802 0C35.2355 0 34.875 0.360521 34.875 0.805246C34.875 1.24997 35.2355 1.61049 35.6802 1.61049Z" fill="#595959"/>
<path d="M40.8167 4.05547C41.1527 3.78013 41.6479 3.83035 41.9233 4.1663L43.7883 6.4435C44.0637 6.77946 44.0134 7.27473 43.6775 7.55007C43.3415 7.82541 42.8463 7.77519 42.5709 7.43924L40.7059 5.16204C40.4323 4.82608 40.4808 4.33082 40.8167 4.05547Z" fill="#595959"/>
<path d="M41.4031 5.27641H38.6011C38.2358 5.27641 37.9448 4.98202 37.9448 4.61143C37.9448 4.24085 38.234 3.94646 38.6011 3.94646H41.3684C42.3399 3.94646 42.8421 3.45465 42.8421 2.64248C42.8421 1.83031 42.3572 1.3385 41.4117 1.3385H38.6011C38.2358 1.3385 37.9448 1.04411 37.9448 0.673522C37.9448 0.302935 38.234 0.00854492 38.6011 0.00854492H41.3615C43.1659 0.00854492 44.0526 1.03545 44.0526 2.6598C44.0526 4.28241 43.1573 5.27641 41.4031 5.27641Z" fill="#595959"/>
<path d="M42.3769 1.33472H39.3638V1.57716H42.3769V1.33472Z" fill="#595959"/>
<path d="M42.3769 3.70361H39.3638V3.94605H42.3769V3.70361Z" fill="#595959"/>
<path d="M41.4229 1.48715C41.887 1.28974 42.3805 1.32091 42.687 1.59106C42.971 1.84042 42.9935 2.20408 43.016 2.5435C43.0455 3.0024 42.9537 3.74531 42.6177 3.84228C42.4324 3.89597 42.2956 3.72106 41.8558 3.73838C41.738 3.74357 41.6428 3.75916 41.5787 3.77301C42.1277 3.61196 42.4844 3.08206 42.4272 2.52618C42.3891 2.1504 42.1 1.74345 41.7259 1.57374C41.6099 1.52179 41.5025 1.49754 41.4229 1.48715Z" fill="#595959"/>
<path d="M38.6176 7.72327C39.0671 7.72327 39.4315 7.35887 39.4315 6.90936C39.4315 6.45986 39.0671 6.09546 38.6176 6.09546C38.1681 6.09546 37.8037 6.45986 37.8037 6.90936C37.8037 7.35887 38.1681 7.72327 38.6176 7.72327Z" fill="#595959"/>
<path d="M38.6176 5.27519C38.1674 5.27519 37.8037 4.91153 37.8037 4.46129V0.821229C37.8037 0.370984 38.1674 0.00732422 38.6176 0.00732422C39.0679 0.00732422 39.4315 0.370984 39.4315 0.821229V4.45956C39.4315 4.9098 39.0679 5.27519 38.6176 5.27519Z" fill="#595959"/>
<path d="M50.5078 1.50659H46.4037C45.9881 1.50659 45.6504 1.16891 45.6504 0.753295C45.6504 0.337684 45.9881 0 46.4037 0H50.5078C50.9235 0 51.2611 0.337684 51.2611 0.753295C51.2611 1.16891 50.9235 1.50659 50.5078 1.50659Z" fill="#595959"/>
<path d="M46.3157 7.70613C45.8516 7.70613 45.4758 7.32861 45.4775 6.86451L45.4845 0.838155C45.4845 0.374056 45.862 -0.00172575 46.3261 5.96121e-06C46.7902 5.96121e-06 47.166 0.377519 47.1642 0.841618L47.1573 6.86798C47.1573 7.33034 46.7798 7.70613 46.3157 7.70613Z" fill="#595959"/>
<path d="M50.4908 7.70434H46.3866C45.971 7.70434 45.6333 7.36666 45.6333 6.95105C45.6333 6.53544 45.971 6.19775 46.3866 6.19775H50.4908C50.9064 6.19775 51.244 6.53544 51.244 6.95105C51.244 7.36666 50.9064 7.70434 50.4908 7.70434Z" fill="#595959"/>
<path d="M49.9892 4.62426H47.0106C46.595 4.62426 46.2573 4.28658 46.2573 3.87097C46.2573 3.45536 46.595 3.11768 47.0106 3.11768H49.9892C50.4048 3.11768 50.7425 3.45536 50.7425 3.87097C50.7425 4.28658 50.4048 4.62426 49.9892 4.62426Z" fill="#595959"/>
<path d="M57.5207 1.73319H53.4339C52.9611 1.73319 52.5767 1.34875 52.5767 0.875996C52.5767 0.403239 52.9611 0.0187988 53.4339 0.0187988H57.5207C57.9935 0.0187988 58.3779 0.403239 58.3779 0.875996C58.3779 1.34875 57.9935 1.73319 57.5207 1.73319Z" fill="#AD1927"/>
<path d="M57.5114 4.76786H53.4246C52.9518 4.76786 52.5674 4.38342 52.5674 3.91066C52.5674 3.43791 52.9518 3.05347 53.4246 3.05347H57.5114C57.9842 3.05347 58.3686 3.43791 58.3686 3.91066C58.3686 4.38515 57.9842 4.76786 57.5114 4.76786Z" fill="#AD1927"/>
<path d="M57.5114 7.74882H53.4246C52.9518 7.74882 52.5674 7.36438 52.5674 6.89162C52.5674 6.41886 52.9518 6.03442 53.4246 6.03442H57.5114C57.9842 6.03442 58.3686 6.41886 58.3686 6.89162C58.3686 7.36611 57.9842 7.74882 57.5114 7.74882Z" fill="#AD1927"/>
<path d="M60.334 0.188916C60.6491 -0.0691088 61.1115 -0.0223525 61.3695 0.292819L66.4729 6.52525C66.7309 6.84042 66.6841 7.30279 66.369 7.56082C66.0538 7.81884 65.5914 7.77208 65.3334 7.45691L60.2318 1.22448C59.9738 0.91104 60.0205 0.446942 60.334 0.188916Z" fill="#AD1927"/>
<path d="M60.127 7.55434C60.4387 7.81583 60.9028 7.77427 61.1643 7.4643L63.6614 4.48748C63.9229 4.17577 63.8813 3.71167 63.5714 3.45019C63.2596 3.1887 62.7956 3.23026 62.5341 3.54024L60.0369 6.51705C59.7754 6.82876 59.8153 7.29286 60.127 7.55434Z" fill="#AD1927"/>
<path d="M65.7724 1.73126C66.241 1.73126 66.6209 1.35135 66.6209 0.882719C66.6209 0.414084 66.241 0.0341797 65.7724 0.0341797C65.3037 0.0341797 64.9238 0.414084 64.9238 0.882719C64.9238 1.35135 65.3037 1.73126 65.7724 1.73126Z" fill="#595959"/>
<path d="M4.344 18.8309C4.344 19.2949 4.184 19.6816 3.864 19.9909C3.54933 20.2949 3.06667 20.4469 2.416 20.4469H1.344V22.7749H0.616V17.1989H2.416C3.04533 17.1989 3.52267 17.3509 3.848 17.6549C4.17867 17.9589 4.344 18.3509 4.344 18.8309ZM2.416 19.8469C2.82133 19.8469 3.12 19.7589 3.312 19.5829C3.504 19.4069 3.6 19.1562 3.6 18.8309C3.6 18.1429 3.20533 17.7989 2.416 17.7989H1.344V19.8469H2.416ZM7.77681 22.8309C7.25948 22.8309 6.78748 22.7109 6.36081 22.4709C5.93415 22.2256 5.59548 21.8869 5.34481 21.4549C5.09948 21.0176 4.97681 20.5269 4.97681 19.9829C4.97681 19.4389 5.09948 18.9509 5.34481 18.5189C5.59548 18.0816 5.93415 17.7429 6.36081 17.5029C6.78748 17.2576 7.25948 17.1349 7.77681 17.1349C8.29948 17.1349 8.77415 17.2576 9.20081 17.5029C9.62748 17.7429 9.96348 18.0789 10.2088 18.5109C10.4541 18.9429 10.5768 19.4336 10.5768 19.9829C10.5768 20.5322 10.4541 21.0229 10.2088 21.4549C9.96348 21.8869 9.62748 22.2256 9.20081 22.4709C8.77415 22.7109 8.29948 22.8309 7.77681 22.8309ZM7.77681 22.1989C8.16615 22.1989 8.51548 22.1082 8.82481 21.9269C9.13948 21.7456 9.38481 21.4869 9.56081 21.1509C9.74215 20.8149 9.83281 20.4256 9.83281 19.9829C9.83281 19.5349 9.74215 19.1456 9.56081 18.8149C9.38481 18.4789 9.14215 18.2202 8.83281 18.0389C8.52348 17.8576 8.17148 17.7669 7.77681 17.7669C7.38215 17.7669 7.03015 17.8576 6.72081 18.0389C6.41148 18.2202 6.16615 18.4789 5.98481 18.8149C5.80881 19.1456 5.72081 19.5349 5.72081 19.9829C5.72081 20.4256 5.80881 20.8149 5.98481 21.1509C6.16615 21.4869 6.41148 21.7456 6.72081 21.9269C7.03548 22.1082 7.38748 22.1989 7.77681 22.1989ZM18.5459 17.1989L16.9299 22.7749H16.1139L14.8179 18.2869L13.4739 22.7749L12.6659 22.7829L11.1059 17.1989H11.8819L13.0979 21.9269L14.4419 17.1989H15.2579L16.5379 21.9109L17.7619 17.1989H18.5459ZM20.0706 17.7909V19.6549H22.1026V20.2549H20.0706V22.1749H22.3426V22.7749H19.3426V17.1909H22.3426V17.7909H20.0706ZM26.3801 22.7749L25.0521 20.4949H24.1721V22.7749H23.4441V17.1989H25.2441C25.6655 17.1989 26.0201 17.2709 26.3081 17.4149C26.6015 17.5589 26.8201 17.7536 26.9641 17.9989C27.1081 18.2442 27.1801 18.5242 27.1801 18.8389C27.1801 19.2229 27.0681 19.5616 26.8441 19.8549C26.6255 20.1482 26.2948 20.3429 25.8521 20.4389L27.2521 22.7749H26.3801ZM24.1721 19.9109H25.2441C25.6388 19.9109 25.9348 19.8149 26.1321 19.6229C26.3295 19.4256 26.4281 19.1642 26.4281 18.8389C26.4281 18.5082 26.3295 18.2522 26.1321 18.0709C25.9401 17.8896 25.6441 17.7989 25.2441 17.7989H24.1721V19.9109ZM30.0473 17.1989C30.6553 17.1989 31.1806 17.3136 31.6233 17.5429C32.0713 17.7669 32.4126 18.0896 32.6473 18.5109C32.8873 18.9322 33.0073 19.4282 33.0073 19.9989C33.0073 20.5696 32.8873 21.0656 32.6473 21.4869C32.4126 21.9029 32.0713 22.2229 31.6233 22.4469C31.1806 22.6656 30.6553 22.7749 30.0473 22.7749H28.3113V17.1989H30.0473ZM30.0473 22.1749C30.7673 22.1749 31.3166 21.9856 31.6953 21.6069C32.074 21.2229 32.2633 20.6869 32.2633 19.9989C32.2633 19.3056 32.0713 18.7642 31.6873 18.3749C31.3086 17.9856 30.762 17.7909 30.0473 17.7909H29.0393V22.1749H30.0473ZM38.8924 19.9029C39.095 19.9349 39.279 20.0176 39.4444 20.1509C39.615 20.2842 39.7484 20.4496 39.8444 20.6469C39.9457 20.8442 39.9964 21.0549 39.9964 21.2789C39.9964 21.5616 39.9244 21.8176 39.7804 22.0469C39.6364 22.2709 39.4257 22.4496 39.1484 22.5829C38.8764 22.7109 38.5537 22.7749 38.1804 22.7749H36.1004V17.1989H38.1004C38.479 17.1989 38.8017 17.2629 39.0684 17.3909C39.335 17.5136 39.535 17.6816 39.6684 17.8949C39.8017 18.1082 39.8684 18.3482 39.8684 18.6149C39.8684 18.9456 39.7777 19.2202 39.5964 19.4389C39.4204 19.6522 39.1857 19.8069 38.8924 19.9029ZM36.8284 19.6069H38.0524C38.3937 19.6069 38.6577 19.5269 38.8444 19.3669C39.031 19.2069 39.1244 18.9856 39.1244 18.7029C39.1244 18.4202 39.031 18.1989 38.8444 18.0389C38.6577 17.8789 38.3884 17.7989 38.0364 17.7989H36.8284V19.6069ZM38.1164 22.1749C38.479 22.1749 38.7617 22.0896 38.9644 21.9189C39.167 21.7482 39.2684 21.5109 39.2684 21.2069C39.2684 20.8976 39.1617 20.6549 38.9484 20.4789C38.735 20.2976 38.4497 20.2069 38.0924 20.2069H36.8284V22.1749H38.1164ZM44.9106 17.1989L43.0946 20.6709V22.7749H42.3666V20.6709L40.5426 17.1989H41.3506L42.7266 20.0229L44.1026 17.1989H44.9106ZM50.8513 19.5349V20.1509H47.6593V19.5349H50.8513ZM56.1184 22.8309C55.7504 22.8309 55.4197 22.7669 55.1264 22.6389C54.8384 22.5056 54.6117 22.3242 54.4464 22.0949C54.281 21.8602 54.1957 21.5909 54.1904 21.2869H54.9664C54.993 21.5482 55.0997 21.7696 55.2864 21.9509C55.4784 22.1269 55.7557 22.2149 56.1184 22.2149C56.465 22.2149 56.737 22.1296 56.9344 21.9589C57.137 21.7829 57.2384 21.5589 57.2384 21.2869C57.2384 21.0736 57.1797 20.9002 57.0624 20.7669C56.945 20.6336 56.7984 20.5322 56.6224 20.4629C56.4464 20.3936 56.209 20.3189 55.9104 20.2389C55.5424 20.1429 55.2464 20.0469 55.0224 19.9509C54.8037 19.8549 54.6144 19.7056 54.4544 19.5029C54.2997 19.2949 54.2224 19.0176 54.2224 18.6709C54.2224 18.3669 54.2997 18.0976 54.4544 17.8629C54.609 17.6282 54.825 17.4469 55.1024 17.3189C55.385 17.1909 55.7077 17.1269 56.0704 17.1269C56.593 17.1269 57.0197 17.2576 57.3504 17.5189C57.6864 17.7802 57.8757 18.1269 57.9184 18.5589H57.1184C57.0917 18.3456 56.9797 18.1589 56.7824 17.9989C56.585 17.8336 56.3237 17.7509 55.9984 17.7509C55.6944 17.7509 55.4464 17.8309 55.2544 17.9909C55.0624 18.1456 54.9664 18.3642 54.9664 18.6469C54.9664 18.8496 55.0224 19.0149 55.1344 19.1429C55.2517 19.2709 55.393 19.3696 55.5584 19.4389C55.729 19.5029 55.9664 19.5776 56.2704 19.6629C56.6384 19.7642 56.9344 19.8656 57.1584 19.9669C57.3824 20.0629 57.5744 20.2149 57.7344 20.4229C57.8944 20.6256 57.9744 20.9029 57.9744 21.2549C57.9744 21.5269 57.9024 21.7829 57.7584 22.0229C57.6144 22.2629 57.401 22.4576 57.1184 22.6069C56.8357 22.7562 56.5024 22.8309 56.1184 22.8309ZM59.4217 17.6789C59.283 17.6789 59.1657 17.6309 59.0697 17.5349C58.9737 17.4389 58.9257 17.3216 58.9257 17.1829C58.9257 17.0442 58.9737 16.9269 59.0697 16.8309C59.1657 16.7349 59.283 16.6869 59.4217 16.6869C59.555 16.6869 59.667 16.7349 59.7577 16.8309C59.8537 16.9269 59.9017 17.0442 59.9017 17.1829C59.9017 17.3216 59.8537 17.4389 59.7577 17.5349C59.667 17.6309 59.555 17.6789 59.4217 17.6789ZM59.7737 18.3909V22.7749H59.0457V18.3909H59.7737ZM66.2864 18.3109C66.6278 18.3109 66.9318 18.3829 67.1984 18.5269C67.4651 18.6656 67.6758 18.8762 67.8304 19.1589C67.9851 19.4416 68.0624 19.7856 68.0624 20.1909V22.7749H67.3424V20.2949C67.3424 19.8576 67.2331 19.5242 67.0144 19.2949C66.8011 19.0602 66.5104 18.9429 66.1424 18.9429C65.7638 18.9429 65.4624 19.0656 65.2384 19.3109C65.0144 19.5509 64.9024 19.9002 64.9024 20.3589V22.7749H64.1824V20.2949C64.1824 19.8576 64.0731 19.5242 63.8544 19.2949C63.6411 19.0602 63.3504 18.9429 62.9824 18.9429C62.6038 18.9429 62.3024 19.0656 62.0784 19.3109C61.8544 19.5509 61.7424 19.9002 61.7424 20.3589V22.7749H61.0144V18.3909H61.7424V19.0229C61.8864 18.7936 62.0784 18.6176 62.3184 18.4949C62.5638 18.3722 62.8331 18.3109 63.1264 18.3109C63.4944 18.3109 63.8198 18.3936 64.1024 18.5589C64.3851 18.7242 64.5958 18.9669 64.7344 19.2869C64.8571 18.9776 65.0598 18.7376 65.3424 18.5669C65.6251 18.3962 65.9398 18.3109 66.2864 18.3109ZM69.9846 19.1989C70.1286 18.9482 70.342 18.7402 70.6246 18.5749C70.9126 18.4042 71.246 18.3189 71.6246 18.3189C72.014 18.3189 72.366 18.4122 72.6806 18.5989C73.0006 18.7856 73.2513 19.0496 73.4326 19.3909C73.614 19.7269 73.7046 20.1189 73.7046 20.5669C73.7046 21.0096 73.614 21.4042 73.4326 21.7509C73.2513 22.0976 73.0006 22.3669 72.6806 22.5589C72.366 22.7509 72.014 22.8469 71.6246 22.8469C71.2513 22.8469 70.9206 22.7642 70.6326 22.5989C70.35 22.4282 70.134 22.2176 69.9846 21.9669V24.8549H69.2566V18.3909H69.9846V19.1989ZM72.9606 20.5669C72.9606 20.2362 72.894 19.9482 72.7606 19.7029C72.6273 19.4576 72.446 19.2709 72.2166 19.1429C71.9926 19.0149 71.7446 18.9509 71.4726 18.9509C71.206 18.9509 70.958 19.0176 70.7286 19.1509C70.5046 19.2789 70.3233 19.4682 70.1846 19.7189C70.0513 19.9642 69.9846 20.2496 69.9846 20.5749C69.9846 20.9056 70.0513 21.1962 70.1846 21.4469C70.3233 21.6922 70.5046 21.8816 70.7286 22.0149C70.958 22.1429 71.206 22.2069 71.4726 22.2069C71.7446 22.2069 71.9926 22.1429 72.2166 22.0149C72.446 21.8816 72.6273 21.6922 72.7606 21.4469C72.894 21.1962 72.9606 20.9029 72.9606 20.5669ZM75.3909 16.8549V22.7749H74.6629V16.8549H75.3909ZM77.0076 17.6789C76.869 17.6789 76.7516 17.6309 76.6556 17.5349C76.5596 17.4389 76.5116 17.3216 76.5116 17.1829C76.5116 17.0442 76.5596 16.9269 76.6556 16.8309C76.7516 16.7349 76.869 16.6869 77.0076 16.6869C77.141 16.6869 77.253 16.7349 77.3436 16.8309C77.4396 16.9269 77.4876 17.0442 77.4876 17.1829C77.4876 17.3216 77.4396 17.4389 77.3436 17.5349C77.253 17.6309 77.141 17.6789 77.0076 17.6789ZM77.3596 18.3909V22.7749H76.6316V18.3909H77.3596ZM80.3844 18.9909H79.4644V22.7749H78.7364V18.9909H78.1684V18.3909H78.7364V18.0789C78.7364 17.5882 78.8617 17.2309 79.1124 17.0069C79.3684 16.7776 79.7764 16.6629 80.3364 16.6629V17.2709C80.0164 17.2709 79.7897 17.3349 79.6564 17.4629C79.5284 17.5856 79.4644 17.7909 79.4644 18.0789V18.3909H80.3844V18.9909ZM85.0092 18.3909L82.3692 24.8389H81.6172L82.4812 22.7269L80.7132 18.3909H81.5212L82.8972 21.9429L84.2572 18.3909H85.0092ZM85.605 18.4469C85.6423 17.9562 85.8317 17.5722 86.173 17.2949C86.5143 17.0176 86.957 16.8789 87.501 16.8789C87.8637 16.8789 88.1757 16.9456 88.437 17.0789C88.7037 17.2069 88.9037 17.3829 89.037 17.6069C89.1757 17.8309 89.245 18.0842 89.245 18.3669C89.245 18.6976 89.149 18.9829 88.957 19.2229C88.7703 19.4629 88.525 19.6176 88.221 19.6869V19.7269C88.5677 19.8122 88.8423 19.9802 89.045 20.2309C89.2477 20.4816 89.349 20.8096 89.349 21.2149C89.349 21.5189 89.2797 21.7936 89.141 22.0389C89.0023 22.2789 88.7943 22.4682 88.517 22.6069C88.2397 22.7456 87.9063 22.8149 87.517 22.8149C86.9517 22.8149 86.4877 22.6682 86.125 22.3749C85.7623 22.0762 85.5597 21.6549 85.517 21.1109H86.221C86.2583 21.4309 86.389 21.6922 86.613 21.8949C86.837 22.0976 87.1357 22.1989 87.509 22.1989C87.8823 22.1989 88.165 22.1029 88.357 21.9109C88.5543 21.7136 88.653 21.4602 88.653 21.1509C88.653 20.7509 88.5197 20.4629 88.253 20.2869C87.9863 20.1109 87.5837 20.0229 87.045 20.0229H86.861V19.4149H87.053C87.5437 19.4096 87.9143 19.3296 88.165 19.1749C88.4157 19.0149 88.541 18.7696 88.541 18.4389C88.541 18.1562 88.4477 17.9296 88.261 17.7589C88.0797 17.5882 87.8183 17.5029 87.477 17.5029C87.1463 17.5029 86.8797 17.5882 86.677 17.7589C86.4743 17.9296 86.3543 18.1589 86.317 18.4469H85.605ZM92.7399 22.7749L91.6999 21.1429L90.6999 22.7749H89.9399L91.3559 20.5989L89.9399 18.3909H90.7639L91.8039 20.0149L92.7959 18.3909H93.5559L92.1479 20.5589L93.5639 22.7749H92.7399Z" fill="black" fill-opacity="0.29"/>
</svg>
