<svg width="192" height="166" viewBox="0 0 192 166" fill="none" xmlns="http://www.w3.org/2000/svg">
<g clip-path="url(#clip0_92_510)">
<path d="M14.4174 152.108C15.5238 152.497 16.7116 152.594 17.8666 152.391C19.0215 152.187 20.1046 151.69 21.0114 150.946C23.321 149.007 24.0453 145.815 24.6343 142.858L26.377 134.111L22.7285 136.623C20.1045 138.43 17.4217 140.294 15.605 142.911C13.7884 145.528 12.9958 149.1 14.455 151.932" fill="#E6E6E6"/>
<path d="M14.9808 163.306C14.5216 159.96 14.0491 156.571 14.372 153.19C14.6582 150.187 15.5744 147.254 17.4398 144.848C18.4299 143.574 19.6347 142.482 21 141.622C21.3559 141.398 21.6836 141.962 21.3292 142.185C18.9668 143.678 17.1395 145.883 16.1108 148.481C14.9748 151.371 14.7923 154.521 14.988 157.59C15.1063 159.446 15.3577 161.29 15.6101 163.132C15.63 163.216 15.6176 163.303 15.5753 163.378C15.533 163.452 15.464 163.508 15.3822 163.533C15.2988 163.556 15.2099 163.545 15.1348 163.502C15.0597 163.459 15.0045 163.389 14.9811 163.306L14.9808 163.306Z" fill="#F2F2F2"/>
<path d="M18.2863 157.939C18.7608 158.66 19.413 159.247 20.1801 159.643C20.9472 160.039 21.8035 160.231 22.6663 160.2C24.8841 160.095 26.7322 158.547 28.3958 157.078L33.3174 152.733L30.0602 152.577C27.7178 152.465 25.315 152.359 23.084 153.082C20.8529 153.806 18.7953 155.543 18.3874 157.853" fill="#E6E6E6"/>
<path d="M13.6828 165.229C15.8936 161.317 18.4578 156.969 23.0399 155.58C24.3139 155.195 25.6497 155.057 26.9754 155.173C27.3933 155.21 27.289 155.854 26.8719 155.818C24.6496 155.633 22.4316 156.22 20.5912 157.479C18.8203 158.685 17.4413 160.361 16.2743 162.138C15.5594 163.226 14.9191 164.361 14.2788 165.494C14.0742 165.857 13.4758 165.595 13.6828 165.229Z" fill="#F2F2F2"/>
<path d="M190.583 116.938H68.6966C68.321 116.938 67.961 116.788 67.6954 116.523C67.4298 116.257 67.2804 115.897 67.2799 115.522V2.32879C67.2804 1.95321 67.4299 1.59316 67.6954 1.32759C67.961 1.06202 68.321 0.9126 68.6966 0.912109H190.583C190.959 0.9126 191.319 1.06202 191.585 1.32759C191.85 1.59316 192 1.95321 192 2.32879V115.521C192 115.897 191.85 116.257 191.585 116.523C191.319 116.788 190.959 116.938 190.583 116.938V116.938Z" fill="white"/>
<path d="M190.583 116.938H68.6966C68.321 116.938 67.961 116.788 67.6954 116.523C67.4298 116.257 67.2804 115.897 67.2799 115.522V2.32879C67.2804 1.95321 67.4299 1.59316 67.6954 1.32759C67.961 1.06202 68.321 0.9126 68.6966 0.912109H190.583C190.959 0.9126 191.319 1.06202 191.585 1.32759C191.85 1.59316 192 1.95321 192 2.32879V115.521C192 115.897 191.85 116.257 191.585 116.523C191.319 116.788 190.959 116.938 190.583 116.938V116.938ZM68.6966 1.47766C68.4715 1.47815 68.2558 1.56779 68.0966 1.72695C67.9375 1.88611 67.8478 2.10184 67.8474 2.32693V115.521C67.8478 115.746 67.9375 115.962 68.0966 116.121C68.2558 116.28 68.4715 116.37 68.6966 116.371H190.583C190.809 116.37 191.024 116.281 191.183 116.121C191.343 115.962 191.432 115.746 191.433 115.521V2.32879C191.432 2.1037 191.343 1.88797 191.183 1.72881C191.024 1.56965 190.809 1.48001 190.583 1.47952L68.6966 1.47766Z" fill="#CACACA"/>
<path d="M126.29 30.3262C126.035 30.3266 125.791 30.4281 125.611 30.6085C125.431 30.7888 125.33 31.0332 125.33 31.288C125.33 31.5428 125.431 31.7871 125.611 31.9675C125.791 32.1478 126.035 32.2493 126.29 32.2497H179.065C179.32 32.2493 179.564 32.1478 179.744 31.9675C179.924 31.7871 180.026 31.5428 180.026 31.288C180.026 31.0332 179.924 30.7888 179.744 30.6085C179.564 30.4281 179.32 30.3266 179.065 30.3262H126.29Z" fill="#E4E4E4"/>
<path d="M126.29 36.0972C126.036 36.0978 125.792 36.1994 125.612 36.3797C125.432 36.56 125.331 36.8043 125.331 37.059C125.331 37.3136 125.432 37.5579 125.612 37.7382C125.792 37.9185 126.036 38.0201 126.29 38.0207H153.233C153.488 38.0201 153.732 37.9185 153.912 37.7382C154.092 37.5579 154.193 37.3136 154.193 37.059C154.193 36.8043 154.092 36.56 153.912 36.3797C153.732 36.1994 153.488 36.0978 153.233 36.0972H126.29Z" fill="#E4E4E4"/>
<path d="M80.1629 67.1333C79.9083 67.1339 79.6642 67.2355 79.4844 67.4158C79.3045 67.5961 79.2035 67.8404 79.2035 68.0951C79.2035 68.3498 79.3045 68.5941 79.4844 68.7744C79.6642 68.9547 79.9083 69.0563 80.1629 69.0569H179.117C179.371 69.0563 179.615 68.9547 179.795 68.7744C179.975 68.5941 180.076 68.3498 180.076 68.0951C180.076 67.8404 179.975 67.5961 179.795 67.4158C179.615 67.2355 179.371 67.1339 179.117 67.1333H80.1629Z" fill="#E4E4E4"/>
<path d="M80.1629 72.9048C79.9083 72.9054 79.6642 73.007 79.4844 73.1873C79.3045 73.3676 79.2035 73.6119 79.2035 73.8666C79.2035 74.1212 79.3045 74.3655 79.4844 74.5458C79.6642 74.7261 79.9083 74.8277 80.1629 74.8284H153.284C153.539 74.8277 153.783 74.7261 153.963 74.5458C154.143 74.3655 154.244 74.1212 154.244 73.8666C154.244 73.6119 154.143 73.3676 153.963 73.1873C153.783 73.007 153.539 72.9054 153.284 72.9048H80.1629Z" fill="#E4E4E4"/>
<path d="M80.1629 78.5444C79.9083 78.5451 79.6642 78.6467 79.4844 78.827C79.3045 79.0073 79.2035 79.2515 79.2035 79.5062C79.2035 79.7609 79.3045 80.0052 79.4844 80.1855C79.6642 80.3658 79.9083 80.4674 80.1629 80.468H179.117C179.371 80.4674 179.615 80.3658 179.795 80.1855C179.975 80.0052 180.076 79.7609 180.076 79.5062C180.076 79.2515 179.975 79.0073 179.795 78.827C179.615 78.6467 179.371 78.5451 179.117 78.5444H80.1629Z" fill="#E4E4E4"/>
<path d="M80.1629 84.3159C79.9083 84.3165 79.6642 84.4181 79.4844 84.5984C79.3045 84.7787 79.2035 85.023 79.2035 85.2777C79.2035 85.5324 79.3045 85.7767 79.4844 85.957C79.6642 86.1373 79.9083 86.2389 80.1629 86.2395H153.284C153.539 86.2389 153.783 86.1373 153.963 85.957C154.143 85.7767 154.244 85.5324 154.244 85.2777C154.244 85.023 154.143 84.7787 153.963 84.5984C153.783 84.4181 153.539 84.3165 153.284 84.3159H80.1629Z" fill="#E4E4E4"/>
<path d="M80.1629 90.1064C79.9083 90.1071 79.6642 90.2087 79.4844 90.389C79.3045 90.5693 79.2035 90.8135 79.2035 91.0682C79.2035 91.3229 79.3045 91.5672 79.4844 91.7475C79.6642 91.9278 79.9083 92.0294 80.1629 92.03H179.117C179.371 92.0294 179.615 91.9278 179.795 91.7475C179.975 91.5672 180.076 91.3229 180.076 91.0682C180.076 90.8135 179.975 90.5693 179.795 90.389C179.615 90.2087 179.371 90.1071 179.117 90.1064H80.1629Z" fill="#E4E4E4"/>
<path d="M80.1629 95.8774C79.9083 95.8781 79.6642 95.9797 79.4844 96.16C79.3045 96.3403 79.2035 96.5845 79.2035 96.8392C79.2035 97.0939 79.3045 97.3382 79.4844 97.5185C79.6642 97.6988 79.9083 97.8004 80.1629 97.801H153.284C153.539 97.8004 153.783 97.6988 153.963 97.5185C154.143 97.3382 154.244 97.0939 154.244 96.8392C154.244 96.5845 154.143 96.3403 153.963 96.16C153.783 95.9797 153.539 95.8781 153.284 95.8774H80.1629Z" fill="#E4E4E4"/>
<path d="M95.8363 47.9915C93.1033 47.9915 90.4317 47.1811 88.1592 45.6628C85.8868 44.1444 84.1157 41.9863 83.0698 39.4613C82.0239 36.9364 81.7502 34.158 82.2834 31.4775C82.8166 28.797 84.1326 26.3348 86.0651 24.4023C87.9976 22.4698 90.4598 21.1537 93.1403 20.6205C95.8208 20.0873 98.5992 20.361 101.124 21.4068C103.649 22.4527 105.807 24.2238 107.326 26.4962C108.844 28.7686 109.654 31.4402 109.654 34.1732C109.65 37.8368 108.193 41.3491 105.603 43.9396C103.012 46.5301 99.4998 47.9873 95.8363 47.9915Z" fill="#9FC8FE"/>
<path d="M53.8906 100.238C53.8667 99.7339 53.7325 99.2409 53.4975 98.794C53.2624 98.3471 52.9323 97.9571 52.5303 97.6516C52.1282 97.3462 51.6641 97.1325 51.1706 97.0258C50.677 96.9191 50.1661 96.9219 49.6738 97.034L45.1063 90.5972L40.5177 92.4188L47.0955 101.418C47.3387 102.233 47.8722 102.93 48.595 103.377C49.3178 103.825 50.1796 103.992 51.0172 103.846C51.8548 103.701 52.6099 103.253 53.1395 102.588C53.6691 101.923 53.9363 101.087 53.8906 100.238H53.8906Z" fill="#A0616A"/>
<path d="M44.9887 99.7619L31.1683 81.8327L36.3467 65.5578C36.7262 61.4661 39.2866 60.3235 39.3956 60.2769L39.5617 60.2056L44.0679 72.2223L40.7593 81.0452L48.8802 94.7033L44.9887 99.7619Z" fill="#D54B41"/>
<path d="M92.9848 44.4918C92.4838 44.5546 92.0027 44.7265 91.5753 44.9954C91.1479 45.2643 90.7847 45.6236 90.5112 46.048C90.2377 46.4725 90.0606 46.9517 89.9923 47.452C89.9241 47.9523 89.9664 48.4615 90.1162 48.9437L84.0518 53.9952L86.2227 58.4292L94.6866 51.1753C95.48 50.8699 96.1338 50.2841 96.5241 49.5288C96.9144 48.7736 97.0141 47.9015 96.8043 47.0776C96.5946 46.2538 96.0899 45.5355 95.3859 45.0589C94.6819 44.5824 93.8276 44.3805 92.9848 44.4918Z" fill="#A0616A"/>
<path d="M93.1974 53.4037L76.3903 68.569L59.7638 64.6644C55.655 64.6024 54.3179 62.138 54.263 62.033L54.179 61.8728L65.8114 56.451L74.8637 59.0675L87.853 49.915L93.1974 53.4037Z" fill="#D54B41"/>
<path d="M64.0852 161.214L68.6009 161.214L70.749 143.796L64.0843 143.796L64.0852 161.214Z" fill="#A0616A"/>
<path d="M77.3099 165.408L63.1176 165.408L63.1174 159.925L73.328 159.925C74.384 159.924 75.3967 160.344 76.1435 161.091C76.8902 161.837 77.3098 162.85 77.3098 163.906L77.3099 165.408L77.3099 165.408Z" fill="#75A1DE"/>
<path d="M46.0365 161.214L50.5523 161.214L52.7006 143.796L46.0359 143.796L46.0365 161.214Z" fill="#A0616A"/>
<path d="M59.2613 165.408L45.0691 165.408L45.0688 159.925L55.2794 159.925C55.8023 159.924 56.32 160.027 56.8031 160.228C57.2862 160.428 57.7251 160.721 58.0949 161.091C58.4646 161.46 58.758 161.899 58.9581 162.382C59.1582 162.865 59.2612 163.383 59.2612 163.906L59.2613 165.408Z" fill="#75A1DE"/>
<path d="M44.4305 97.6367L44.7988 123.42L45.1674 157.307L53.2706 156.57L57.3224 109.792L62.4792 156.57H70.8448L71.6875 109.424L68.7408 99.1102L44.4305 97.6367Z" fill="#75A1DE"/>
<path d="M60.2909 101.1C51.4739 101.1 43.358 97.1099 43.2484 97.0551L43.1574 97.0096L42.4175 79.2527C42.203 78.6252 37.978 66.2436 37.2625 62.3081C36.5375 58.3209 47.0448 54.8216 48.3207 54.4124L48.6103 51.2048L60.385 49.936L61.8774 54.0402L66.1017 55.6242C66.5806 55.8039 66.9769 56.153 67.2156 56.6055C67.4543 57.0579 67.5187 57.5821 67.3967 58.0788L65.0489 67.6265L70.783 99.2146L69.5485 99.2681C66.5895 100.604 63.3958 101.1 60.2909 101.1Z" fill="#D54B41"/>
<path d="M59.025 46.8665C63.1334 44.6206 64.6433 39.4695 62.3974 35.3611C60.1516 31.2527 55.0004 29.7428 50.892 31.9887C46.7836 34.2345 45.2738 39.3857 47.5196 43.4941C49.7655 47.6025 54.9166 49.1124 59.025 46.8665Z" fill="#F19959"/>
<path d="M48.092 47.6338C49.7077 49.3548 52.7082 48.4309 52.9188 46.0797C52.9353 45.8972 52.9341 45.7135 52.9152 45.5312C52.8065 44.4897 52.2048 43.5442 52.3489 42.4445C52.3815 42.1708 52.4835 41.91 52.6451 41.6868C53.9326 39.9627 56.9549 42.4579 58.17 40.8971C58.9151 39.9401 58.0393 38.4334 58.611 37.3637C59.3656 35.952 61.6008 36.6484 63.0025 35.8753C64.562 35.0151 64.4687 32.6223 63.4421 31.1669C62.1902 29.392 59.995 28.4449 57.8273 28.3084C55.6595 28.1719 53.5067 28.7579 51.4829 29.5466C49.1834 30.4427 46.9032 31.6811 45.4882 33.703C43.7673 36.1619 43.6017 39.4676 44.4624 42.3428C44.9859 44.0918 46.7726 46.2283 48.092 47.6338Z" fill="#303D60"/>
<path d="M107.726 165.625H0.282005C0.207213 165.625 0.135479 165.595 0.0825929 165.542C0.0297067 165.49 0 165.418 0 165.343C0 165.268 0.0297067 165.197 0.0825929 165.144C0.135479 165.091 0.207213 165.061 0.282005 165.061H107.726C107.801 165.061 107.873 165.091 107.925 165.144C107.978 165.197 108.008 165.268 108.008 165.343C108.008 165.418 107.978 165.49 107.925 165.542C107.873 165.595 107.801 165.625 107.726 165.625Z" fill="#CACACA"/>
<path d="M95.0384 39.3928C94.7892 39.3931 94.5492 39.2988 94.3668 39.129L89.8104 34.8968C89.6189 34.7186 89.506 34.4717 89.4965 34.2102C89.487 33.9488 89.5816 33.6943 89.7597 33.5026C89.9377 33.3109 90.1845 33.1978 90.4459 33.188C90.7073 33.1782 90.9619 33.2726 91.1538 33.4504L95.0132 37.0353L102.649 29.3997C102.74 29.3074 102.849 29.2342 102.969 29.1841C103.089 29.134 103.218 29.1082 103.348 29.1079C103.478 29.1077 103.606 29.1331 103.726 29.1827C103.847 29.2323 103.956 29.3052 104.048 29.3971C104.139 29.489 104.212 29.5981 104.262 29.7182C104.311 29.8383 104.337 29.967 104.337 30.0969C104.336 30.2269 104.31 30.3555 104.26 30.4754C104.21 30.5953 104.137 30.7041 104.045 30.7956L95.7365 39.1038C95.6449 39.1955 95.5361 39.2683 95.4163 39.3179C95.2965 39.3675 95.1681 39.3929 95.0384 39.3928Z" fill="white"/>
</g>
<defs>
<clipPath id="clip0_92_510">
<rect width="192" height="164.756" fill="white" transform="translate(0 0.912109)"/>
</clipPath>
</defs>
</svg>
