<svg width="159" height="160" viewBox="0 0 159 160" fill="none" xmlns="http://www.w3.org/2000/svg">
<g clip-path="url(#clip0_369_88)">
<path d="M15.2904 134.345L13.89 128.822C11.4072 127.77 8.86696 126.858 6.28146 126.092L6.10471 128.659L5.38789 125.831C2.18141 124.914 0 124.511 0 124.511C0 124.511 2.94583 135.716 9.12654 144.282L16.3276 145.547L10.7333 146.354C11.5108 147.289 12.3463 148.175 13.2349 149.005C22.225 157.35 32.2385 161.179 35.6004 157.557C38.9623 153.935 34.3997 144.234 25.4095 135.89C22.6225 133.303 19.1215 131.227 15.6168 129.593L15.2904 134.345Z" fill="#F2F2F2"/>
<path d="M28.6078 128.345L30.2639 122.894C28.6825 120.71 26.9792 118.617 25.162 116.624L23.684 118.73L24.5319 115.939C22.2604 113.498 20.6015 112.025 20.6015 112.025C20.6015 112.025 17.3323 123.139 18.1947 133.667L23.7053 138.472L18.4985 136.271C18.6806 137.474 18.9383 138.664 19.2699 139.834C22.6525 151.625 29.2454 160.079 33.9955 158.716C38.7455 157.353 39.8543 146.69 36.4717 134.9C35.4231 131.244 33.499 127.657 31.3436 124.447L28.6078 128.345Z" fill="#F2F2F2"/>
<path d="M110.949 37.7799H110.076V13.8503C110.076 12.0315 109.718 10.2304 109.022 8.55004C108.326 6.86964 107.305 5.34279 106.019 4.05667C104.733 2.77055 103.206 1.75034 101.526 1.05429C99.8454 0.358248 98.0444 0 96.2255 0H45.5258C41.8524 0 38.3295 1.45923 35.7321 4.05667C33.1347 6.65411 31.6754 10.177 31.6754 13.8503V145.132C31.6754 146.951 32.0337 148.752 32.7297 150.432C33.4258 152.113 34.446 153.64 35.7321 154.926C37.0182 156.212 38.5451 157.232 40.2255 157.928C41.9059 158.624 43.7069 158.982 45.5258 158.982H96.2255C99.8988 158.982 103.422 157.523 106.019 154.926C108.616 152.328 110.076 148.805 110.076 145.132V54.8135H110.949L110.949 37.7799Z" fill="#E6E6E6"/>
<path d="M96.7841 3.60254H90.1667C90.471 4.34873 90.5872 5.15832 90.5049 5.95999C90.4227 6.76165 90.1445 7.53079 89.695 8.19962C89.2454 8.86846 88.6383 9.41647 87.9271 9.79537C87.2158 10.1743 86.4223 10.3724 85.6164 10.3724H56.5711C55.7653 10.3724 54.9718 10.1742 54.2606 9.79522C53.5495 9.41629 52.9424 8.86827 52.4929 8.19945C52.0434 7.53062 51.7653 6.76151 51.683 5.95988C51.6008 5.15825 51.717 4.3487 52.0213 3.60254H45.8402C43.097 3.60254 40.4661 4.69228 38.5264 6.63202C36.5866 8.57177 35.4969 11.2026 35.4969 13.9458V145.037C35.4969 147.78 36.5866 150.411 38.5264 152.351C40.4661 154.291 43.097 155.38 45.8402 155.38H96.7841C99.5273 155.38 102.158 154.291 104.098 152.351C106.038 150.411 107.127 147.78 107.127 145.037V13.9456C107.127 11.2024 106.038 8.57164 104.098 6.63195C102.158 4.69225 99.5273 3.60254 96.7841 3.60254Z" fill="white"/>
<path d="M71.2193 119.439C74.1018 119.439 76.4385 117.102 76.4385 114.219C76.4385 111.337 74.1018 109 71.2193 109C68.3367 109 66 111.337 66 114.219C66 117.102 68.3367 119.439 71.2193 119.439Z" fill="#3E85BD"/>
<path d="M158.406 159.476H5.14042C4.81233 159.476 4.54656 159.36 4.54656 159.216C4.54656 159.073 4.81233 158.956 5.14042 158.956H158.406C158.734 158.956 159 159.073 159 159.216C159 159.36 158.734 159.476 158.406 159.476Z" fill="#3F3D56"/>
<path d="M62.5 52C62.5 52 62.5 45.5001 71 45.5C79.5 45.4999 79.5 52 79.5 52L76 103H66L62.5 52Z" fill="#3E85BD"/>
</g>
<circle cx="117" cy="135" r="20" fill="#D9D9D9"/>
<path d="M125.321 126.679C124.986 126.344 124.444 126.344 124.109 126.679L117.001 133.787L109.893 126.679C109.558 126.344 109.016 126.344 108.681 126.679C108.346 127.014 108.346 127.556 108.681 127.891L115.789 134.999L108.681 142.107C108.346 142.442 108.346 142.985 108.681 143.319C108.848 143.487 109.068 143.571 109.287 143.571C109.506 143.571 109.725 143.487 109.893 143.319L117.001 136.211L124.109 143.319C124.277 143.487 124.496 143.571 124.715 143.571C124.935 143.571 125.154 143.487 125.321 143.319C125.656 142.985 125.656 142.442 125.321 142.107L118.213 134.999L125.321 127.891C125.656 127.556 125.656 127.014 125.321 126.679Z" fill="white"/>
<defs>
<clipPath id="clip0_369_88">
<rect width="159" height="159.476" fill="white"/>
</clipPath>
</defs>
</svg>
