<svg width="7" height="11" viewBox="0 0 7 11" fill="none" xmlns="http://www.w3.org/2000/svg">
<path d="M6.22609 5.07078L1.37833 0.17573C1.26621 0.0624223 1.11653 0 0.95694 0C0.797347 0 0.647673 0.0624223 0.53555 0.17573L0.178546 0.536134C-0.0537586 0.770977 -0.0537586 1.15267 0.178546 1.38715L4.24933 5.49772L0.174029 9.61285C0.0619067 9.72616 0 9.8772 0 10.0383C0 10.1995 0.0619067 10.3506 0.174029 10.464L0.531033 10.8243C0.643245 10.9376 0.79283 11 0.952424 11C1.11202 11 1.26169 10.9376 1.37381 10.8243L6.22609 5.92475C6.33848 5.81108 6.40021 5.65932 6.39985 5.49799C6.40021 5.33603 6.33848 5.18436 6.22609 5.07078Z" fill="#72738E"/>
</svg>
