<svg width="56" height="56" viewBox="0 0 56 56" fill="none" xmlns="http://www.w3.org/2000/svg">
<g filter="url(#filter0_d_410_737)">
<circle cx="28" cy="25" r="20" fill="#3F698E"/>
</g>
<path d="M32.525 33.6L35.45 30.675V33.15H36.2V29.4H32.45V30.15H34.925L32 33.075L32.525 33.6ZM20.5 34C20.0833 34 19.7292 33.8542 19.4375 33.5625C19.1458 33.2708 19 32.9167 19 32.5V17.5C19 17.0833 19.1458 16.7292 19.4375 16.4375C19.7292 16.1458 20.0833 16 20.5 16H35.5C35.9167 16 36.2708 16.1458 36.5625 16.4375C36.8542 16.7292 37 17.0833 37 17.5V25.725C36.7667 25.5917 36.5208 25.4833 36.2625 25.4C36.0042 25.3167 35.75 25.25 35.5 25.2V17.5H20.5V32.5H28.225C28.2917 32.7667 28.3667 33.025 28.45 33.275C28.5333 33.525 28.6333 33.7667 28.75 34H20.5ZM20.5 31.325V32.5V17.5V25.2V25.1V31.325ZM23 30H28.275C28.3417 29.7333 28.4167 29.475 28.5 29.225C28.5833 28.975 28.6917 28.7333 28.825 28.5H23V30ZM23 25.75H31.6C31.8333 25.6333 32.0583 25.5375 32.275 25.4625C32.4917 25.3875 32.7333 25.3167 33 25.25V24.25H23V25.75ZM23 21.5H33V20H23V21.5ZM34.325 35.975C33.025 35.975 31.9167 35.5125 31 34.5875C30.0833 33.6625 29.625 32.5667 29.625 31.3C29.625 30 30.0833 28.8875 31 27.9625C31.9167 27.0375 33.025 26.575 34.325 26.575C35.6083 26.575 36.7125 27.0375 37.6375 27.9625C38.5625 28.8875 39.025 30 39.025 31.3C39.025 32.5667 38.5625 33.6625 37.6375 34.5875C36.7125 35.5125 35.6083 35.975 34.325 35.975Z" fill="white"/>
<defs>
<filter id="filter0_d_410_737" x="0" y="0" width="56" height="56" filterUnits="userSpaceOnUse" color-interpolation-filters="sRGB">
<feFlood flood-opacity="0" result="BackgroundImageFix"/>
<feColorMatrix in="SourceAlpha" type="matrix" values="0 0 0 0 0 0 0 0 0 0 0 0 0 0 0 0 0 0 127 0" result="hardAlpha"/>
<feOffset dy="3"/>
<feGaussianBlur stdDeviation="4"/>
<feComposite in2="hardAlpha" operator="out"/>
<feColorMatrix type="matrix" values="0 0 0 0 0 0 0 0 0 0 0 0 0 0 0 0 0 0 0.29 0"/>
<feBlend mode="normal" in2="BackgroundImageFix" result="effect1_dropShadow_410_737"/>
<feBlend mode="normal" in="SourceGraphic" in2="effect1_dropShadow_410_737" result="shape"/>
</filter>
</defs>
</svg>
