<svg width="159" height="160" viewBox="0 0 159 160" fill="none" xmlns="http://www.w3.org/2000/svg">
<g clip-path="url(#clip0_1_144)">
<path d="M15.2904 134.345L13.89 128.822C11.4072 127.77 8.86696 126.859 6.28146 126.092L6.10471 128.659L5.38789 125.831C2.18141 124.915 0 124.511 0 124.511C0 124.511 2.94583 135.716 9.12654 144.282L16.3276 145.547L10.7333 146.354C11.5108 147.289 12.3463 148.175 13.2349 149.005C22.225 157.35 32.2385 161.179 35.6004 157.557C38.9623 153.935 34.3997 144.234 25.4095 135.89C22.6225 133.303 19.1215 131.227 15.6168 129.593L15.2904 134.345Z" fill="#F2F2F2"/>
<path d="M28.6078 128.345L30.2639 122.894C28.6825 120.71 26.9792 118.617 25.162 116.624L23.684 118.73L24.5319 115.939C22.2604 113.498 20.6015 112.025 20.6015 112.025C20.6015 112.025 17.3323 123.139 18.1947 133.667L23.7053 138.472L18.4985 136.271C18.6806 137.474 18.9383 138.664 19.2699 139.834C22.6525 151.625 29.2454 160.079 33.9955 158.716C38.7455 157.353 39.8543 146.69 36.4717 134.9C35.4231 131.244 33.499 127.657 31.3436 124.447L28.6078 128.345Z" fill="#F2F2F2"/>
<path d="M110.949 37.7799H110.076V13.8503C110.076 12.0315 109.718 10.2304 109.022 8.55004C108.326 6.86964 107.305 5.34279 106.019 4.05667C104.733 2.77055 103.206 1.75034 101.526 1.05429C99.8454 0.358248 98.0444 0 96.2255 0H45.5258C41.8524 0 38.3295 1.45923 35.7321 4.05667C33.1346 6.65411 31.6754 10.177 31.6754 13.8503V145.132C31.6754 146.951 32.0337 148.752 32.7297 150.432C33.4257 152.113 34.446 153.64 35.7321 154.926C37.0182 156.212 38.5451 157.232 40.2255 157.928C41.9059 158.624 43.7069 158.982 45.5258 158.982H96.2255C99.8988 158.982 103.422 157.523 106.019 154.926C108.616 152.328 110.076 148.805 110.076 145.132V54.8135H110.949L110.949 37.7799Z" fill="#E6E6E6"/>
<path d="M96.7841 3.60248H90.1667C90.471 4.34867 90.5872 5.15826 90.505 5.95993C90.4227 6.76159 90.1445 7.53072 89.695 8.19956C89.2455 8.8684 88.6383 9.41641 87.9271 9.79531C87.2158 10.1742 86.4223 10.3724 85.6164 10.3724H56.5711C55.7653 10.3723 54.9718 10.1741 54.2607 9.79516C53.5495 9.41623 52.9424 8.86821 52.4929 8.19938C52.0434 7.53056 51.7653 6.76145 51.683 5.95982C51.6008 5.15819 51.717 4.34864 52.0213 3.60248H45.8402C43.097 3.60248 40.4661 4.69222 38.5264 6.63196C36.5866 8.57171 35.4969 11.2026 35.4969 13.9458V145.037C35.4969 147.78 36.5866 150.411 38.5264 152.351C40.4661 154.291 43.097 155.38 45.8402 155.38H96.7841C99.5274 155.38 102.158 154.291 104.098 152.351C106.038 150.411 107.127 147.78 107.127 145.037V13.9456C107.127 11.2024 106.038 8.57158 104.098 6.63188C102.158 4.69219 99.5273 3.60248 96.7841 3.60248Z" fill="white"/>
<path d="M64.8209 55.8222C64.8207 54.9059 65.062 54.0057 65.5203 53.2122C65.9786 52.4187 66.6378 51.76 67.4316 51.3022C66.6382 50.844 65.7381 50.6027 64.8219 50.6026C63.9057 50.6025 63.0055 50.8436 62.212 51.3017C61.4185 51.7597 60.7595 52.4186 60.3014 53.2121C59.8432 54.0055 59.6021 54.9056 59.6021 55.8219C59.6021 56.7381 59.8432 57.6382 60.3014 58.4317C60.7595 59.2251 61.4185 59.884 62.212 60.3421C63.0055 60.8001 63.9057 61.0412 64.8219 61.0411C65.7381 61.041 66.6382 60.7997 67.4316 60.3415C66.6378 59.8838 65.9786 59.2252 65.5203 58.4318C65.062 57.6385 64.8208 56.7384 64.8209 55.8222Z" fill="#CCCCCC"/>
<path d="M71.3821 55.8222C71.3819 54.9059 71.6231 54.0056 72.0814 53.2122C72.5397 52.4187 73.1989 51.7599 73.9928 51.3022C73.1993 50.844 72.2993 50.6027 71.383 50.6026C70.4668 50.6025 69.5667 50.8436 68.7732 51.3017C67.9797 51.7597 67.3207 52.4186 66.8626 53.2121C66.4044 54.0055 66.1632 54.9056 66.1632 55.8219C66.1632 56.7381 66.4044 57.6382 66.8626 58.4317C67.3207 59.2251 67.9797 59.884 68.7732 60.3421C69.5667 60.8001 70.4668 61.0412 71.383 61.0411C72.2993 61.041 73.1993 60.7997 73.9928 60.3415C73.199 59.8838 72.5398 59.2252 72.0815 58.4318C71.6232 57.6385 71.382 56.7384 71.3821 55.8222Z" fill="#CCCCCC"/>
<path d="M77.7944 61.0411C80.6769 61.0411 83.0136 58.7044 83.0136 55.8219C83.0136 52.9393 80.6769 50.6026 77.7944 50.6026C74.9119 50.6026 72.5751 52.9393 72.5751 55.8219C72.5751 58.7044 74.9119 61.0411 77.7944 61.0411Z" fill="#3E85BD"/>
<path d="M86.517 72.1236H56.098C55.8085 72.1233 55.5308 72.0081 55.326 71.8033C55.1213 71.5985 55.0061 71.3209 55.0057 71.0313V40.6123C55.0061 40.3227 55.1213 40.0451 55.326 39.8403C55.5308 39.6355 55.8085 39.5204 56.098 39.52H86.517C86.8066 39.5204 87.0842 39.6355 87.289 39.8403C87.4938 40.0451 87.609 40.3227 87.6093 40.6123V71.0313C87.609 71.3209 87.4938 71.5985 87.289 71.8033C87.0842 72.0081 86.8066 72.1233 86.517 72.1236ZM56.098 39.9572C55.9243 39.9574 55.7577 40.0265 55.6348 40.1493C55.512 40.2722 55.4429 40.4388 55.4427 40.6125V71.0315C55.4429 71.2053 55.512 71.3718 55.6348 71.4947C55.7577 71.6176 55.9243 71.6867 56.098 71.6868H86.517C86.6908 71.6867 86.8573 71.6176 86.9802 71.4947C87.1031 71.3718 87.1722 71.2053 87.1723 71.0315V40.6125C87.1722 40.4388 87.1031 40.2722 86.9802 40.1493C86.8573 40.0265 86.6908 39.9574 86.517 39.9572H56.098Z" fill="#CCCCCC"/>
<path d="M93.3094 95.4411H46.6559V95.8781H93.3094V95.4411Z" fill="#CCCCCC"/>
<path d="M48.1292 92.7133C48.9429 92.7133 49.6026 92.0537 49.6026 91.24C49.6026 90.4263 48.9429 89.7666 48.1292 89.7666C47.3155 89.7666 46.6559 90.4263 46.6559 91.24C46.6559 92.0537 47.3155 92.7133 48.1292 92.7133Z" fill="#3E85BD"/>
<path d="M93.3094 110.174H46.6559V110.611H93.3094V110.174Z" fill="#CCCCCC"/>
<path d="M48.1292 107.446C48.9429 107.446 49.6026 106.786 49.6026 105.972C49.6026 105.159 48.9429 104.499 48.1292 104.499C47.3155 104.499 46.6559 105.159 46.6559 105.972C46.6559 106.786 47.3155 107.446 48.1292 107.446Z" fill="#3E85BD"/>
<path d="M92.4553 126.95H77.7115C77.4568 126.95 77.2127 126.849 77.0326 126.669C76.8525 126.489 76.7512 126.244 76.7509 125.99V120.822C76.7512 120.567 76.8525 120.323 77.0326 120.143C77.2127 119.963 77.4568 119.862 77.7115 119.862H92.4553C92.71 119.862 92.9541 119.963 93.1342 120.143C93.3143 120.323 93.4156 120.567 93.4159 120.822V125.99C93.4156 126.244 93.3143 126.489 93.1342 126.669C92.9541 126.849 92.71 126.95 92.4553 126.95Z" fill="#3E85BD"/>
<path d="M52.9351 92.7133C53.7488 92.7133 54.4085 92.0537 54.4085 91.24C54.4085 90.4263 53.7488 89.7666 52.9351 89.7666C52.1214 89.7666 51.4618 90.4263 51.4618 91.24C51.4618 92.0537 52.1214 92.7133 52.9351 92.7133Z" fill="#3E85BD"/>
<path d="M57.7407 92.7133C58.5544 92.7133 59.2141 92.0537 59.2141 91.24C59.2141 90.4263 58.5544 89.7666 57.7407 89.7666C56.927 89.7666 56.2674 90.4263 56.2674 91.24C56.2674 92.0537 56.927 92.7133 57.7407 92.7133Z" fill="#3E85BD"/>
<path d="M52.9351 107.446C53.7488 107.446 54.4085 106.786 54.4085 105.972C54.4085 105.159 53.7488 104.499 52.9351 104.499C52.1214 104.499 51.4618 105.159 51.4618 105.972C51.4618 106.786 52.1214 107.446 52.9351 107.446Z" fill="#3E85BD"/>
<path d="M57.7407 107.446C58.5544 107.446 59.2141 106.786 59.2141 105.972C59.2141 105.159 58.5544 104.499 57.7407 104.499C56.927 104.499 56.2674 105.159 56.2674 105.972C56.2674 106.786 56.927 107.446 57.7407 107.446Z" fill="#3E85BD"/>
<path d="M158.406 159.476H5.14044C4.81234 159.476 4.54657 159.36 4.54657 159.216C4.54657 159.073 4.81234 158.956 5.14044 158.956H158.406C158.734 158.956 159 159.072 159 159.216C159 159.36 158.734 159.476 158.406 159.476Z" fill="#3F3D56"/>
<path d="M120.54 104.484C120.644 104.532 120.745 104.588 120.841 104.652L130.415 100.566L130.757 98.0436L134.583 98.0202L134.357 103.805L121.719 107.147C121.693 107.235 121.661 107.321 121.624 107.405C121.441 107.795 121.147 108.122 120.779 108.345C120.411 108.569 119.985 108.678 119.555 108.66C119.125 108.643 118.71 108.498 118.361 108.245C118.013 107.992 117.747 107.642 117.597 107.238C117.448 106.834 117.42 106.395 117.519 105.976C117.618 105.557 117.838 105.177 118.153 104.883C118.467 104.588 118.861 104.394 119.286 104.323C119.711 104.252 120.147 104.308 120.54 104.484Z" fill="#FFB8B8"/>
<path d="M135.974 156.902H133.357L132.112 146.808L135.974 146.808L135.974 156.902Z" fill="#FFB8B8"/>
<path d="M131.487 156.154H136.534V159.332H128.309C128.309 158.489 128.644 157.681 129.24 157.085C129.836 156.489 130.644 156.154 131.487 156.154Z" fill="#2F2E41"/>
<path d="M146.152 156.163L143.547 156.419L141.319 146.496L145.162 146.117L146.152 156.163Z" fill="#FFB8B8"/>
<path d="M141.614 155.858L146.637 155.363L146.948 158.526L138.763 159.332C138.722 158.917 138.763 158.498 138.884 158.098C139.006 157.699 139.204 157.327 139.469 157.005C139.734 156.682 140.059 156.415 140.427 156.218C140.795 156.021 141.199 155.899 141.614 155.858Z" fill="#2F2E41"/>
<path d="M136.702 87.3362C139.598 87.3362 141.945 84.9889 141.945 82.0933C141.945 79.1977 139.598 76.8503 136.702 76.8503C133.807 76.8503 131.459 79.1977 131.459 82.0933C131.459 84.9889 133.807 87.3362 136.702 87.3362Z" fill="#FFB8B8"/>
<path d="M132.772 154.861C132.547 154.862 132.329 154.783 132.157 154.638C131.984 154.494 131.868 154.293 131.829 154.072C130.475 146.552 126.047 121.965 125.941 121.284C125.939 121.269 125.938 121.253 125.938 121.237V119.404C125.938 119.337 125.959 119.272 125.997 119.218L126.582 118.398C126.61 118.359 126.647 118.326 126.689 118.303C126.731 118.28 126.778 118.267 126.827 118.265C130.161 118.109 141.083 117.65 141.61 118.31C142.14 118.972 141.953 120.979 141.91 121.375L141.912 121.416L146.819 152.795C146.857 153.045 146.796 153.3 146.647 153.506C146.499 153.711 146.276 153.849 146.026 153.891L142.961 154.396C142.733 154.432 142.499 154.386 142.302 154.265C142.105 154.144 141.959 153.956 141.888 153.736C140.941 150.707 137.762 140.518 136.661 136.576C136.654 136.551 136.638 136.529 136.617 136.515C136.595 136.501 136.569 136.495 136.543 136.499C136.517 136.502 136.494 136.515 136.477 136.535C136.46 136.554 136.451 136.579 136.452 136.605C136.507 140.364 136.64 149.952 136.685 153.264L136.69 153.62C136.692 153.862 136.604 154.095 136.442 154.275C136.28 154.454 136.057 154.566 135.817 154.589L132.862 154.857C132.832 154.86 132.802 154.861 132.772 154.861Z" fill="#2F2E41"/>
<path d="M133.375 89.3978C132.46 89.9417 131.912 90.9413 131.598 91.9584C131.016 93.8414 130.666 95.7883 130.556 97.756L130.223 103.648L126.113 119.267C129.676 122.281 131.731 121.596 136.526 119.131C141.322 116.665 141.87 119.953 141.87 119.953L142.829 106.663L144.199 92.1401C143.891 91.7697 143.543 91.435 143.161 91.1423C141.895 90.1575 140.421 89.473 138.852 89.1404C137.282 88.8078 135.658 88.8357 134.101 89.2221L133.375 89.3978Z" fill="#3E85BD"/>
<path d="M132.04 107.638C132.15 107.68 132.257 107.73 132.36 107.789L141.827 103.05L141.984 100.483L145.889 100.214L146.098 106.066L133.447 110.249C133.344 110.693 133.108 111.094 132.771 111.399C132.434 111.705 132.012 111.901 131.562 111.962C131.111 112.022 130.652 111.943 130.247 111.736C129.841 111.53 129.509 111.204 129.293 110.804C129.077 110.403 128.988 109.947 129.038 109.494C129.088 109.042 129.275 108.616 129.573 108.272C129.871 107.929 130.267 107.684 130.707 107.571C131.148 107.457 131.613 107.481 132.04 107.638Z" fill="#FFB8B8"/>
<path d="M144.13 92.2068C146.459 93.0289 146.87 101.935 146.87 101.935C144.13 100.428 140.841 102.894 140.841 102.894C140.841 102.894 140.156 100.565 139.334 97.5509C139.086 96.7031 139.056 95.8062 139.248 94.9438C139.439 94.0813 139.846 93.2814 140.43 92.6185C140.43 92.6185 141.801 91.3843 144.13 92.2068Z" fill="#3E85BD"/>
<path d="M141.403 83.4797C140.75 82.957 139.859 83.907 139.859 83.907L139.336 79.2036C139.336 79.2036 136.07 79.5948 133.98 79.073C131.889 78.5512 131.563 80.9675 131.563 80.9675C131.455 79.9915 131.433 79.0078 131.497 78.0279C131.628 76.8521 133.326 75.6762 136.331 74.8922C139.336 74.1083 140.904 77.5053 140.904 77.5053C142.995 78.5504 142.057 84.0023 141.403 83.4797Z" fill="#2F2E41"/>
</g>
<defs>
<clipPath id="clip0_1_144">
<rect width="159" height="159.476" fill="white"/>
</clipPath>
</defs>
</svg>
