<svg width="9" height="5" viewBox="0 0 9 5" fill="none" xmlns="http://www.w3.org/2000/svg">
<path d="M4.14882 0.135756L0.143779 3.92315C0.0510728 4.01075 0 4.12769 0 4.25237C0 4.37706 0.0510728 4.49399 0.143779 4.58159L0.438655 4.86051C0.6308 5.042 0.94309 5.042 1.13494 4.86051L4.49813 1.68014L7.86506 4.86404C7.95777 4.95163 8.08135 5 8.21313 5C8.34505 5 8.46864 4.95163 8.56142 4.86404L8.85622 4.58512C8.94893 4.49745 9 4.38059 9 4.2559C9 4.13122 8.94893 4.01428 8.85622 3.92668L4.84752 0.135756C4.75452 0.0479512 4.63035 -0.000275611 4.49835 9.54935e-07C4.36584 -0.000275611 4.24175 0.0479512 4.14882 0.135756Z" fill="#72738E"/>
</svg>
