<svg width="8" height="8" viewBox="0 0 8 8" fill="none" xmlns="http://www.w3.org/2000/svg">
<path d="M7.11149 6.71716C6.88307 6.94558 6.51279 6.94578 6.28413 6.71761L4.00469 4.44314L1.24206 6.97027C1.01011 7.18245 0.652244 7.17448 0.429957 6.9522C0.194915 6.71716 0.201466 6.33411 0.444408 6.10724L3.29839 3.44209C3.69232 3.07424 4.3069 3.08475 4.68801 3.46586L7.11149 5.88934C7.34009 6.11794 7.34009 6.48856 7.11149 6.71716Z" fill="#72738E"/>
<path d="M7.1696 3.93444C6.94118 4.16286 6.5709 4.16307 6.34223 3.9349L4.06279 1.66042L1.30017 4.18755C1.06821 4.39973 0.710349 4.39177 0.488062 4.16948C0.25302 3.93444 0.259571 3.55139 0.502514 3.32452L3.3565 0.659378C3.75042 0.291521 4.36501 0.302033 4.74612 0.683146L7.1696 3.10663C7.3982 3.33522 7.39819 3.70585 7.1696 3.93444Z" fill="#72738E"/>
</svg>
