<svg width="20" height="20" viewBox="0 0 20 20" fill="none" xmlns="http://www.w3.org/2000/svg">
<path d="M11.6638 0.834678C11.6641 0.670478 11.6159 0.50985 11.5252 0.372968C11.4345 0.236087 11.3054 0.129057 11.1541 0.0653223C11.0027 0.0015875 10.8359 -0.01601 10.6747 0.0147403C10.5134 0.0454907 10.3647 0.123217 10.2475 0.238158L5.37201 4.98699H2.49939C1.83651 4.98699 1.20078 5.25032 0.732053 5.71905C0.263328 6.18777 0 6.8235 0 7.48638V12.4685C0 13.1314 0.263328 13.7671 0.732053 14.2358C1.20078 14.7045 1.83651 14.9679 2.49939 14.9679H5.37035L10.2458 19.7584C10.3629 19.8738 10.5115 19.952 10.6729 19.9831C10.8343 20.0142 11.0014 19.9969 11.153 19.9333C11.3046 19.8697 11.434 19.7627 11.5249 19.6257C11.6158 19.4887 11.6641 19.3279 11.6638 19.1635V0.834678Z" fill="#72738E"/>
<path d="M13.5135 5.3148C13.5816 5.22908 13.666 5.15763 13.7617 5.10453C13.8575 5.05143 13.9628 5.01772 14.0716 5.00534C14.1804 4.99296 14.2905 5.00215 14.3958 5.03238C14.501 5.0626 14.5992 5.11328 14.6849 5.1815H14.6866L14.6882 5.18317L14.6916 5.1865L14.7015 5.19317L14.7265 5.21483L14.8015 5.28148C15.1533 5.61919 15.4597 6.00119 15.713 6.41786C16.1995 7.21767 16.6694 8.40571 16.6694 9.99699C16.6694 11.5866 16.1995 12.7763 15.713 13.5761C15.5191 13.8982 15.2936 14.2002 15.0398 14.4776C14.9334 14.5928 14.8204 14.7018 14.7015 14.8041L14.6882 14.8158C14.6882 14.8158 13.9434 15.2207 13.5152 14.6858C13.3782 14.514 13.3146 14.295 13.3384 14.0766C13.3621 13.8581 13.4711 13.6579 13.6418 13.5195L13.6435 13.5161V13.5178L13.6451 13.5161L13.6751 13.4895C13.9117 13.2568 14.1183 12.9953 14.29 12.7113C14.6382 12.1365 15.0031 11.2417 15.0031 9.99532C15.0031 8.75063 14.6382 7.85751 14.29 7.28432C14.1181 7.00142 13.9116 6.74113 13.6751 6.50951C13.6653 6.50046 13.6553 6.49157 13.6451 6.48285H13.6468C13.4747 6.34535 13.364 6.14525 13.339 5.92635C13.314 5.70744 13.3768 5.48756 13.5135 5.3148Z" fill="#72738E"/>
<path d="M16.3506 1.85145C16.2653 1.78086 16.1668 1.72798 16.0609 1.6959C15.9549 1.66382 15.8436 1.65318 15.7335 1.6646C15.6234 1.67603 15.5166 1.70929 15.4195 1.76244C15.3224 1.81559 15.2368 1.88756 15.1678 1.97416C15.0989 2.06075 15.0478 2.16022 15.0177 2.26677C14.9876 2.37331 14.979 2.48479 14.9925 2.59468C15.006 2.70457 15.0412 2.81067 15.0962 2.90679C15.1511 3.0029 15.2247 3.0871 15.3126 3.15446L15.3309 3.17112L15.4175 3.24611C15.4942 3.31609 15.6108 3.4244 15.7508 3.57103C16.034 3.86595 16.4173 4.30918 16.8022 4.89404C17.5687 6.06208 18.3335 7.78166 18.3335 10.0078C18.3383 11.824 17.8055 13.6009 16.8022 15.1149C16.419 15.6981 16.0357 16.1379 15.7524 16.4312C15.6185 16.5707 15.4784 16.7041 15.3326 16.8311L15.3126 16.8478C15.1496 16.9883 15.0474 17.1865 15.0273 17.4008C15.0072 17.6151 15.0708 17.8288 15.2048 17.9972C15.3387 18.1656 15.5327 18.2757 15.7459 18.3043C15.9592 18.3329 16.1753 18.2779 16.349 18.1508L16.404 18.1058L16.5306 17.9975C17.1619 17.4108 17.7207 16.7507 18.1952 16.0313C19.3771 14.2452 20.0049 12.1496 19.9997 10.0078C20.0039 7.86457 19.3763 5.76767 18.1952 3.97926C17.8297 3.42125 17.4136 2.89806 16.9522 2.41631C16.7779 2.23538 16.5956 2.06247 16.4056 1.8981L16.369 1.86645L16.3573 1.85645L16.3523 1.85311L16.3506 1.85145Z" fill="#72738E"/>
</svg>
