<svg width="14" height="14" viewBox="0 0 14 14" fill="none" xmlns="http://www.w3.org/2000/svg">
<path d="M0 3C0 2.20435 0.316071 1.44129 0.87868 0.87868C1.44129 0.316071 2.20435 0 3 0H4.5C4.63261 0 4.75979 0.0526785 4.85355 0.146447C4.94732 0.240215 5 0.367392 5 0.5C5 0.632608 4.94732 0.759785 4.85355 0.853553C4.75979 0.947321 4.63261 1 4.5 1H3C2.46957 1 1.96086 1.21071 1.58579 1.58579C1.21071 1.96086 1 2.46957 1 3V4.5C1 4.63261 0.947321 4.75979 0.853553 4.85355C0.759785 4.94732 0.632608 5 0.5 5C0.367392 5 0.240215 4.94732 0.146447 4.85355C0.0526785 4.75979 0 4.63261 0 4.5V3ZM9 0.5C9 0.367392 9.05268 0.240215 9.14645 0.146447C9.24022 0.0526785 9.36739 0 9.5 0H11C11.7957 0 12.5587 0.316071 13.1213 0.87868C13.6839 1.44129 14 2.20435 14 3V4.5C14 4.63261 13.9473 4.75979 13.8536 4.85355C13.7598 4.94732 13.6326 5 13.5 5C13.3674 5 13.2402 4.94732 13.1464 4.85355C13.0527 4.75979 13 4.63261 13 4.5V3C13 2.46957 12.7893 1.96086 12.4142 1.58579C12.0391 1.21071 11.5304 1 11 1H9.5C9.36739 1 9.24022 0.947321 9.14645 0.853553C9.05268 0.759785 9 0.632608 9 0.5ZM0.5 9C0.632608 9 0.759785 9.05268 0.853553 9.14645C0.947321 9.24022 1 9.36739 1 9.5V11C1 11.5304 1.21071 12.0391 1.58579 12.4142C1.96086 12.7893 2.46957 13 3 13H4.5C4.63261 13 4.75979 13.0527 4.85355 13.1464C4.94732 13.2402 5 13.3674 5 13.5C5 13.6326 4.94732 13.7598 4.85355 13.8536C4.75979 13.9473 4.63261 14 4.5 14H3C2.20435 14 1.44129 13.6839 0.87868 13.1213C0.316071 12.5587 0 11.7957 0 11V9.5C0 9.36739 0.0526785 9.24022 0.146447 9.14645C0.240215 9.05268 0.367392 9 0.5 9ZM13.5 9C13.6326 9 13.7598 9.05268 13.8536 9.14645C13.9473 9.24022 14 9.36739 14 9.5V11C14 11.7957 13.6839 12.5587 13.1213 13.1213C12.5587 13.6839 11.7957 14 11 14H9.5C9.36739 14 9.24022 13.9473 9.14645 13.8536C9.05268 13.7598 9 13.6326 9 13.5C9 13.3674 9.05268 13.2402 9.14645 13.1464C9.24022 13.0527 9.36739 13 9.5 13H11C11.5304 13 12.0391 12.7893 12.4142 12.4142C12.7893 12.0391 13 11.5304 13 11V9.5C13 9.36739 13.0527 9.24022 13.1464 9.14645C13.2402 9.05268 13.3674 9 13.5 9ZM7 8C7.26522 8 7.51957 7.89464 7.70711 7.70711C7.89464 7.51957 8 7.26522 8 7C8 6.73478 7.89464 6.48043 7.70711 6.29289C7.51957 6.10536 7.26522 6 7 6C6.73478 6 6.48043 6.10536 6.29289 6.29289C6.10536 6.48043 6 6.73478 6 7C6 7.26522 6.10536 7.51957 6.29289 7.70711C6.48043 7.89464 6.73478 8 7 8ZM3 9V6C3 5.73478 3.10536 5.48043 3.29289 5.29289C3.48043 5.10536 3.73478 5 4 5H5L5.703 3.945C5.79435 3.80808 5.91808 3.69583 6.06322 3.61821C6.20835 3.54058 6.37041 3.49998 6.535 3.5H7.465C7.62959 3.49998 7.79165 3.54058 7.93678 3.61821C8.08192 3.69583 8.20565 3.80808 8.297 3.945L9 5H10C10.2652 5 10.5196 5.10536 10.7071 5.29289C10.8946 5.48043 11 5.73478 11 6V9C11 9.26522 10.8946 9.51957 10.7071 9.70711C10.5196 9.89464 10.2652 10 10 10H4C3.73478 10 3.48043 9.89464 3.29289 9.70711C3.10536 9.51957 3 9.26522 3 9ZM9 7C9 6.46957 8.78929 5.96086 8.41421 5.58579C8.03914 5.21071 7.53043 5 7 5C6.46957 5 5.96086 5.21071 5.58579 5.58579C5.21071 5.96086 5 6.46957 5 7C5 7.53043 5.21071 8.03914 5.58579 8.41421C5.96086 8.78929 6.46957 9 7 9C7.53043 9 8.03914 8.78929 8.41421 8.41421C8.78929 8.03914 9 7.53043 9 7Z" fill="white"/>
</svg>
