<svg width="12" height="7" viewBox="0 0 12 7" fill="none" xmlns="http://www.w3.org/2000/svg">
<path d="M6.1566 6.63214L11.2394 1.46822C11.3571 1.34879 11.4219 1.18935 11.4219 1.01935C11.4219 0.849348 11.3571 0.689912 11.2394 0.570477L10.8652 0.190191C10.6213 -0.0572647 10.225 -0.0572647 9.98152 0.190191L5.71328 4.52646L1.44031 0.185379C1.32266 0.0659436 1.16582 -4.59904e-07 0.998578 -4.67403e-07C0.83115 -4.74911e-07 0.674309 0.0659436 0.556562 0.185379L0.182427 0.565665C0.0647735 0.685195 -4.29513e-05 0.844536 -4.29586e-05 1.01454C-4.29658e-05 1.18454 0.0647735 1.34397 0.182427 1.46341L5.26988 6.63214C5.3879 6.75186 5.54549 6.81761 5.71301 6.81723C5.88118 6.81761 6.03867 6.75186 6.1566 6.63214Z" fill="#72738E"/>
</svg>
