<svg width="603" height="518" viewBox="0 0 603 518" fill="none" xmlns="http://www.w3.org/2000/svg">
<g clip-path="url(#clip0_916_4606)">
<path d="M45.2801 474.849C48.7548 476.071 52.4854 476.377 56.1126 475.738C59.7398 475.099 63.1414 473.537 65.9896 471.201C73.243 465.113 75.5176 455.086 77.3675 445.799L82.8407 418.328L71.3822 426.218C63.1413 431.892 54.7154 437.748 49.01 445.967C43.3046 454.185 40.8155 465.405 45.3983 474.297" fill="#E6E6E6"/>
<path d="M47.0489 510.017C45.6067 499.51 44.1228 488.867 45.1369 478.247C46.0356 468.815 48.9132 459.605 54.7716 452.049C57.8811 448.047 61.6649 444.618 65.9529 441.917C67.0707 441.211 68.0998 442.983 66.9867 443.686C59.5673 448.374 53.8285 455.298 50.5978 463.459C47.0298 472.533 46.4569 482.426 47.0715 492.066C47.443 497.896 48.2324 503.687 49.0252 509.472C49.0878 509.733 49.0487 510.009 48.9159 510.243C48.783 510.477 48.5663 510.652 48.3096 510.732C48.0476 510.802 47.7685 510.767 47.5326 510.633C47.2967 510.499 47.1232 510.277 47.0497 510.016L47.0489 510.017Z" fill="#F2F2F2"/>
<path d="M57.4307 493.158C58.9206 495.423 60.969 497.267 63.3783 498.51C65.7876 499.754 68.4767 500.357 71.1864 500.26C78.1517 499.929 83.9561 495.07 89.1807 490.455L104.637 476.808L94.4081 476.318C87.0515 475.966 79.5051 475.635 72.4982 477.906C65.4913 480.178 59.0293 485.635 57.7482 492.888" fill="#E6E6E6"/>
<path d="M42.9726 516.058C49.9161 503.772 57.9691 490.118 72.3599 485.754C76.361 484.545 80.5562 484.111 84.7199 484.478C86.0324 484.591 85.7046 486.614 84.3949 486.501C77.4154 485.922 70.4493 487.764 64.6695 491.72C59.1075 495.505 54.7767 500.769 51.1118 506.35C48.8665 509.769 46.8554 513.333 44.8444 516.892C44.2018 518.03 42.3225 517.208 42.9726 516.058Z" fill="#F2F2F2"/>
<path d="M598.551 364.395H215.75C214.57 364.393 213.44 363.924 212.606 363.09C211.772 362.256 211.302 361.125 211.301 359.945V4.44926C211.302 3.26971 211.772 2.13892 212.606 1.30486C213.44 0.470797 214.57 0.00154196 215.75 0H598.551C599.73 0.00154196 600.861 0.470797 601.695 1.30486C602.529 2.13892 602.999 3.26971 603 4.44926V359.944C602.999 361.124 602.53 362.255 601.695 363.089C600.861 363.923 599.73 364.392 598.551 364.394V364.395Z" fill="white"/>
<path d="M598.551 364.395H215.75C214.57 364.393 213.44 363.924 212.606 363.09C211.772 362.256 211.302 361.125 211.301 359.945V4.44926C211.302 3.26971 211.772 2.13892 212.606 1.30486C213.44 0.470797 214.57 0.00154196 215.75 0H598.551C599.73 0.00154196 600.861 0.470797 601.695 1.30486C602.529 2.13892 602.999 3.26971 603 4.44926V359.944C602.999 361.124 602.53 362.255 601.695 363.089C600.861 363.923 599.73 364.392 598.551 364.394V364.395ZM215.75 1.7762C215.043 1.77773 214.366 2.05924 213.866 2.55911C213.366 3.05897 213.084 3.7365 213.083 4.44342V359.944C213.084 360.651 213.366 361.329 213.866 361.829C214.366 362.329 215.043 362.61 215.75 362.612H598.551C599.258 362.61 599.935 362.329 600.435 361.829C600.935 361.329 601.217 360.651 601.218 359.944V4.44926C601.217 3.74234 600.935 3.06481 600.435 2.56494C599.935 2.06508 599.258 1.78357 598.551 1.78203L215.75 1.7762Z" fill="#CACACA"/>
<path d="M396.631 92.375C395.83 92.3764 395.063 92.6952 394.498 93.2615C393.933 93.8279 393.615 94.5954 393.615 95.3956C393.615 96.1958 393.933 96.9633 394.498 97.5297C395.063 98.096 395.83 98.4148 396.631 98.4162H562.378C563.178 98.4148 563.945 98.096 564.51 97.5297C565.076 96.9633 565.393 96.1958 565.393 95.3956C565.393 94.5954 565.076 93.8279 564.51 93.2615C563.945 92.6952 563.178 92.3764 562.378 92.375H396.631Z" fill="#E4E4E4"/>
<path d="M396.63 110.504C395.831 110.506 395.064 110.825 394.499 111.391C393.934 111.957 393.617 112.725 393.617 113.525C393.617 114.324 393.934 115.092 394.499 115.658C395.064 116.224 395.831 116.543 396.63 116.545H481.248C482.048 116.543 482.814 116.224 483.379 115.658C483.944 115.092 484.261 114.324 484.261 113.525C484.261 112.725 483.944 111.957 483.379 111.391C482.814 110.825 482.048 110.506 481.248 110.504H396.63Z" fill="#E4E4E4"/>
<path d="M251.762 207.973C250.962 207.975 250.196 208.294 249.631 208.86C249.066 209.426 248.749 210.193 248.749 210.993C248.749 211.793 249.066 212.56 249.631 213.127C250.196 213.693 250.962 214.012 251.762 214.014H562.539C563.339 214.012 564.105 213.693 564.67 213.127C565.235 212.56 565.552 211.793 565.552 210.993C565.552 210.193 565.235 209.426 564.67 208.86C564.105 208.294 563.339 207.975 562.539 207.973H251.762Z" fill="#E4E4E4"/>
<path d="M251.762 226.098C250.962 226.1 250.196 226.419 249.631 226.985C249.066 227.551 248.749 228.318 248.749 229.118C248.749 229.918 249.066 230.685 249.631 231.252C250.196 231.818 250.962 232.137 251.762 232.139H481.409C482.209 232.137 482.976 231.818 483.54 231.252C484.105 230.685 484.423 229.918 484.423 229.118C484.423 228.318 484.105 227.551 483.54 226.985C482.976 226.419 482.209 226.1 481.409 226.098H251.762Z" fill="#E4E4E4"/>
<path d="M251.762 243.816C250.962 243.818 250.196 244.137 249.631 244.704C249.066 245.27 248.749 246.037 248.749 246.837C248.749 247.637 249.066 248.404 249.631 248.97C250.196 249.537 250.962 249.856 251.762 249.858H562.539C563.339 249.856 564.105 249.537 564.67 248.97C565.235 248.404 565.552 247.637 565.552 246.837C565.552 246.037 565.235 245.27 564.67 244.704C564.105 244.137 563.339 243.818 562.539 243.816H251.762Z" fill="#E4E4E4"/>
<path d="M251.762 261.941C250.962 261.943 250.196 262.262 249.631 262.829C249.066 263.395 248.749 264.162 248.749 264.962C248.749 265.762 249.066 266.529 249.631 267.095C250.196 267.662 250.962 267.981 251.762 267.983H481.409C482.209 267.981 482.976 267.662 483.54 267.095C484.105 266.529 484.423 265.762 484.423 264.962C484.423 264.162 484.105 263.395 483.54 262.829C482.976 262.262 482.209 261.943 481.409 261.941H251.762Z" fill="#E4E4E4"/>
<path d="M251.762 280.129C250.962 280.131 250.196 280.45 249.631 281.016C249.066 281.582 248.749 282.35 248.749 283.15C248.749 283.949 249.066 284.717 249.631 285.283C250.196 285.849 250.962 286.168 251.762 286.17H562.539C563.339 286.168 564.105 285.849 564.67 285.283C565.235 284.717 565.552 283.949 565.552 283.15C565.552 282.35 565.235 281.582 564.67 281.016C564.105 280.45 563.339 280.131 562.539 280.129H251.762Z" fill="#E4E4E4"/>
<path d="M251.762 298.254C250.962 298.256 250.196 298.575 249.631 299.141C249.066 299.707 248.749 300.475 248.749 301.275C248.749 302.074 249.066 302.842 249.631 303.408C250.196 303.974 250.962 304.293 251.762 304.295H481.409C482.209 304.293 482.976 303.974 483.54 303.408C484.105 302.842 484.423 302.074 484.423 301.275C484.423 300.475 484.105 299.707 483.54 299.141C482.976 298.575 482.209 298.256 481.409 298.254H251.762Z" fill="#E4E4E4"/>
<path d="M300.986 147.858C292.403 147.859 284.012 145.313 276.876 140.545C269.739 135.776 264.176 128.998 260.892 121.068C257.607 113.139 256.747 104.413 258.422 95.9942C260.096 87.5758 264.229 79.843 270.299 73.7736C276.368 67.7043 284.101 63.571 292.519 61.8964C300.938 60.2219 309.664 61.0813 317.593 64.366C325.523 67.6506 332.301 73.213 337.07 80.3498C341.839 87.4866 344.384 95.8772 344.384 104.46C344.371 115.966 339.794 126.997 331.659 135.133C323.523 143.269 312.492 147.845 300.986 147.858Z" fill="#9FC8FE"/>
<path d="M169.25 311.947C169.175 310.363 168.754 308.815 168.016 307.411C167.277 306.008 166.241 304.783 164.978 303.823C163.715 302.864 162.258 302.193 160.708 301.858C159.158 301.523 157.553 301.532 156.007 301.884L141.662 281.668L127.251 287.389L147.909 315.653C148.673 318.211 150.349 320.401 152.619 321.806C154.889 323.212 157.595 323.736 160.226 323.279C162.856 322.822 165.228 321.416 166.891 319.328C168.554 317.239 169.394 314.613 169.25 311.947H169.25Z" fill="#A0616A"/>
<path d="M141.293 310.45L97.8877 254.141L114.151 203.028C115.343 190.178 123.384 186.589 123.726 186.443L124.248 186.219L138.401 223.959L128.009 251.668L153.514 294.563L141.293 310.45Z" fill="#D54B41"/>
<path d="M292.03 136.867C290.456 137.064 288.945 137.604 287.603 138.449C286.261 139.293 285.12 140.422 284.261 141.755C283.402 143.088 282.846 144.593 282.632 146.164C282.417 147.736 282.55 149.335 283.021 150.849L263.975 166.714L270.793 180.64L297.375 157.858C299.866 156.898 301.92 155.059 303.145 152.687C304.371 150.315 304.684 147.576 304.026 144.988C303.367 142.401 301.782 140.145 299.571 138.648C297.36 137.152 294.677 136.518 292.03 136.867Z" fill="#A0616A"/>
<path d="M292.698 164.859L239.914 212.487L187.696 200.225C174.792 200.03 170.592 192.29 170.42 191.96L170.156 191.457L206.689 174.429L235.119 182.647L275.914 153.902L292.698 164.859Z" fill="#D54B41"/>
<path d="M201.267 503.45L215.45 503.449L222.196 448.746L201.265 448.747L201.267 503.45Z" fill="#A0616A"/>
<path d="M242.801 516.617L198.228 516.619L198.228 499.398L230.295 499.397C233.612 499.396 236.792 500.714 239.138 503.059C241.483 505.404 242.8 508.584 242.801 511.901L242.801 516.617L242.801 516.617Z" fill="#75A1DE"/>
<path d="M144.584 503.45L158.766 503.449L165.513 448.746L144.582 448.747L144.584 503.45Z" fill="#A0616A"/>
<path d="M186.117 516.617L141.545 516.619L141.544 499.398L173.611 499.397C175.254 499.396 176.88 499.72 178.397 500.348C179.914 500.977 181.293 501.898 182.454 503.059C183.615 504.22 184.536 505.598 185.165 507.116C185.793 508.633 186.117 510.259 186.117 511.901L186.117 516.617Z" fill="#75A1DE"/>
<path d="M139.539 303.777L140.696 384.754L141.853 491.179L167.302 488.866L180.028 341.952L196.223 488.866H222.496L225.143 340.796L215.888 308.405L139.539 303.777Z" fill="#75A1DE"/>
<path d="M189.351 314.651C161.66 314.653 136.171 302.12 135.827 301.948L135.541 301.805L133.218 246.038C132.544 244.067 119.275 205.181 117.028 192.821C114.751 180.298 147.75 169.309 151.757 168.023L152.667 157.95L189.647 153.965L194.334 166.855L207.601 171.829C209.105 172.394 210.349 173.49 211.099 174.911C211.849 176.332 212.051 177.978 211.668 179.538L204.294 209.524L222.303 308.73L218.426 308.898C209.133 313.095 199.103 314.65 189.351 314.651Z" fill="#D54B41"/>
<path d="M185.375 144.322C198.278 137.268 203.02 121.09 195.967 108.187C188.913 95.2844 172.735 90.5424 159.833 97.5958C146.93 104.649 142.188 120.827 149.241 133.73C156.294 146.633 172.472 151.375 185.375 144.322Z" fill="#F19959"/>
<path d="M151.039 146.736C156.114 152.142 165.537 149.24 166.198 141.856C166.25 141.283 166.246 140.706 166.187 140.133C165.846 136.862 163.956 133.893 164.409 130.439C164.511 129.579 164.831 128.76 165.339 128.059C169.382 122.644 178.874 130.481 182.69 125.579C185.03 122.574 182.28 117.841 184.076 114.482C186.445 110.048 193.465 112.236 197.867 109.807C202.765 107.106 202.472 99.5911 199.248 95.0202C195.316 89.4458 188.422 86.4713 181.614 86.0427C174.806 85.614 168.045 87.4544 161.689 89.9314C154.467 92.7457 147.306 96.6352 142.862 102.985C137.457 110.708 136.937 121.09 139.64 130.119C141.284 135.612 146.896 142.323 151.039 146.736Z" fill="#303D60"/>
<path d="M338.327 517.303H0.885673C0.650778 517.303 0.425489 517.209 0.259393 517.043C0.0932975 516.877 0 516.652 0 516.417C0 516.182 0.0932975 515.957 0.259393 515.791C0.425489 515.625 0.650778 515.531 0.885673 515.531H338.327C338.562 515.531 338.787 515.625 338.953 515.791C339.119 515.957 339.213 516.182 339.213 516.417C339.213 516.652 339.119 516.877 338.953 517.043C338.787 517.209 338.562 517.303 338.327 517.303Z" fill="#CACACA"/>
<path d="M298.479 120.852C297.697 120.853 296.943 120.557 296.37 120.023L282.06 106.732C281.459 106.172 281.104 105.396 281.074 104.575C281.044 103.754 281.342 102.955 281.901 102.353C282.46 101.751 283.235 101.396 284.056 101.365C284.877 101.334 285.677 101.631 286.279 102.189L298.4 113.448L322.381 89.467C322.669 89.1774 323.011 88.9473 323.387 88.7901C323.764 88.6329 324.168 88.5515 324.576 88.5508C324.984 88.55 325.388 88.6299 325.765 88.7857C326.142 88.9415 326.485 89.1703 326.774 89.4589C327.062 89.7475 327.291 90.0902 327.447 90.4674C327.602 90.8446 327.682 91.2489 327.681 91.657C327.68 92.0651 327.599 92.469 327.442 92.8455C327.284 93.2221 327.054 93.5639 326.765 93.8513L300.672 119.944C300.384 120.232 300.042 120.461 299.666 120.616C299.29 120.772 298.887 120.852 298.479 120.852Z" fill="white"/>
</g>
<defs>
<clipPath id="clip0_916_4606">
<rect width="603" height="517.438" fill="white"/>
</clipPath>
</defs>
</svg>
