<svg width="333" height="396" viewBox="0 0 333 396" fill="none" xmlns="http://www.w3.org/2000/svg">
<path d="M129.118 324.33C122.521 317.526 112.96 313.624 102.888 313.624L102.499 313.625C95.8646 313.627 89.3485 311.867 83.6172 308.525L83.0209 308.178L83.5012 307.683C86.1017 304.993 88.2731 301.918 89.9394 298.568C88.756 299.671 87.3445 300.501 85.8049 300.998C84.2653 301.496 82.6352 301.649 81.0299 301.446C79.3352 301.244 77.7082 300.661 76.271 299.74C74.8338 298.82 73.6237 297.586 72.7315 296.131C69.2111 290.419 65.0146 282.314 65.0146 276.14C65.0201 270.921 66.1129 265.76 68.2232 260.987C70.3335 256.214 73.4152 251.933 77.2717 248.417C79.7132 246.215 81.6633 243.524 82.995 240.518C84.3266 237.513 85.0098 234.26 85.0001 230.973L84.9981 230.505C84.9975 226.177 85.5264 221.865 86.5731 217.665L86.6793 217.241L87.1157 217.256C89.9294 217.352 92.7446 217.116 95.5032 216.553C92.9157 216.236 90.3843 215.563 87.981 214.553L87.5116 214.363L87.6709 213.882C98.6521 207.083 123.44 210.604 137.827 177.686C149.494 150.994 190.657 201.38 190.657 230.505C190.657 233.477 187.716 237.404 189.917 239.368C213.718 260.601 197.296 274.236 192.118 287.956C190.89 291.211 193.553 294.785 193.553 298.306C193.553 298.904 193.538 299.521 193.508 300.14L193.462 301.091L192.669 300.563C191.099 299.535 189.644 298.341 188.328 297.003C189.693 300.144 190.336 303.551 190.21 306.973C190.085 310.396 189.193 313.746 187.601 316.779C185.107 321.486 182.694 324.856 180.429 326.795C173.175 333.003 163.822 336.206 154.284 335.748C144.747 335.289 135.744 331.205 129.118 324.33H129.118Z" fill="#F9F9F9"/>
<path d="M168.964 395.153C169.127 395.152 169.283 395.094 169.406 394.987C169.528 394.881 169.608 394.734 169.631 394.573C169.66 394.372 172.465 374.14 169.945 347.251C167.619 322.418 160.147 286.65 137.763 257.274C137.709 257.203 137.642 257.144 137.566 257.1C137.489 257.055 137.405 257.026 137.317 257.014C137.229 257.002 137.14 257.008 137.054 257.03C136.969 257.053 136.888 257.092 136.818 257.146C136.747 257.199 136.688 257.267 136.644 257.343C136.599 257.42 136.57 257.504 136.558 257.592C136.546 257.68 136.552 257.769 136.575 257.855C136.597 257.94 136.637 258.021 136.691 258.091C158.881 287.213 166.293 322.719 168.603 347.377C171.108 374.109 168.325 394.184 168.296 394.383C168.283 394.479 168.29 394.576 168.317 394.669C168.345 394.762 168.391 394.847 168.455 394.92C168.518 394.993 168.596 395.052 168.684 395.092C168.772 395.132 168.868 395.153 168.964 395.152V395.153Z" fill="#A7A6B0"/>
<path d="M150.698 298.713C150.84 298.713 150.979 298.668 151.094 298.584C151.209 298.5 151.295 298.382 151.339 298.247C151.383 298.112 151.383 297.966 151.339 297.83C151.296 297.695 151.21 297.577 151.095 297.493C144.717 293.176 137.827 289.669 130.583 287.052C119.267 282.909 102.058 279.153 84.3422 284.791C84.2577 284.818 84.1792 284.861 84.1114 284.918C84.0435 284.975 83.9876 285.045 83.9468 285.123C83.906 285.202 83.8811 285.288 83.8735 285.376C83.866 285.465 83.8759 285.554 83.9028 285.638C83.9297 285.723 83.973 285.801 84.0302 285.869C84.0874 285.936 84.1574 285.992 84.2362 286.033C84.315 286.073 84.401 286.098 84.4893 286.105C84.5777 286.113 84.6666 286.103 84.751 286.076C102.104 280.553 119.001 284.247 130.12 288.318C137.247 290.89 144.026 294.338 150.302 298.584C150.417 298.668 150.556 298.713 150.698 298.713Z" fill="#A7A6B0"/>
<path d="M181.55 221.865C181.561 221.723 181.526 221.581 181.451 221.46C181.376 221.339 181.264 221.245 181.132 221.191C181 221.138 180.855 221.127 180.717 221.161C180.578 221.195 180.454 221.272 180.363 221.381C175.597 227.432 171.603 234.051 168.471 241.087C163.524 252.076 158.538 268.97 162.886 287.046C162.907 287.132 162.944 287.213 162.996 287.285C163.048 287.356 163.114 287.417 163.189 287.463C163.265 287.51 163.349 287.541 163.436 287.555C163.524 287.568 163.613 287.565 163.699 287.544C163.786 287.523 163.867 287.486 163.938 287.434C164.01 287.382 164.071 287.316 164.117 287.24C164.163 287.165 164.194 287.081 164.208 286.993C164.221 286.906 164.218 286.816 164.197 286.73C159.938 269.025 164.84 252.438 169.701 241.641C172.779 234.718 176.707 228.204 181.393 222.25C181.485 222.142 181.54 222.007 181.55 221.865Z" fill="#A7A6B0"/>
<path d="M311.58 394.437H257.916L257.685 394.018C256.999 392.774 256.337 391.455 255.718 390.1C250.19 378.266 247.853 364.731 245.792 352.789L244.24 343.788C244.052 342.698 244.193 341.577 244.646 340.568C245.099 339.558 245.843 338.707 246.783 338.123C247.722 337.54 248.815 337.249 249.92 337.29C251.026 337.33 252.094 337.7 252.988 338.351C261.144 344.286 269.302 350.214 277.464 356.137C280.555 358.386 284.084 360.988 287.464 363.801C287.79 362.217 288.131 360.628 288.473 359.062C288.708 357.98 289.26 356.993 290.06 356.228C290.859 355.462 291.869 354.952 292.959 354.764C294.05 354.575 295.172 354.716 296.182 355.169C297.192 355.622 298.044 356.366 298.629 357.306L304.908 367.394C309.487 374.76 313.529 382.02 312.706 389.849C312.71 389.944 312.702 390.04 312.684 390.133C312.519 391.42 312.214 392.684 311.773 393.903L311.58 394.437Z" fill="#F0F0F0"/>
<path d="M286.577 183.461L276.22 145.128C275.776 143.505 274.712 142.121 273.258 141.276C271.803 140.431 270.075 140.191 268.445 140.609C267.602 140.825 266.812 141.211 266.123 141.742C265.434 142.274 264.86 142.94 264.437 143.701C264.014 144.461 263.75 145.3 263.661 146.166C263.573 147.032 263.661 147.906 263.922 148.737L275.901 188.226L282.168 212.528C281.256 213.225 280.579 214.187 280.232 215.281C279.884 216.376 279.882 217.551 280.226 218.647C280.569 219.743 281.242 220.706 282.152 221.407C283.062 222.107 284.166 222.51 285.313 222.561C286.461 222.612 287.596 222.309 288.565 221.693C289.534 221.076 290.29 220.176 290.729 219.115C291.169 218.055 291.272 216.884 291.023 215.763C290.774 214.641 290.186 213.624 289.339 212.848L286.577 183.461Z" fill="#A0616A"/>
<path d="M199.429 175.206L230.897 150.989C232.227 149.959 233.099 148.447 233.324 146.78C233.55 145.113 233.111 143.424 232.102 142.078C231.58 141.381 230.922 140.798 230.167 140.364C229.413 139.931 228.578 139.655 227.713 139.555C226.849 139.454 225.973 139.531 225.139 139.78C224.305 140.029 223.531 140.445 222.863 141.003L190.946 167.161L170.883 182.239C169.89 181.662 168.743 181.404 167.599 181.501C166.455 181.598 165.368 182.045 164.486 182.781C163.605 183.517 162.971 184.507 162.672 185.616C162.373 186.725 162.422 187.899 162.813 188.978C163.204 190.058 163.918 190.992 164.858 191.652C165.798 192.311 166.918 192.666 168.066 192.667C169.215 192.668 170.336 192.316 171.277 191.657C172.218 190.999 172.934 190.067 173.327 188.988L199.429 175.206Z" fill="#A0616A"/>
<path d="M225.076 180.775L223.689 211.754L267.242 202.288C263.535 189.84 261.014 187.717 263.8 179.054L225.076 180.775Z" fill="#A0616A"/>
<path d="M251.856 123.98H237.344L231.112 134.645L228.142 134.481C226.69 134.401 225.236 134.618 223.871 135.118C222.505 135.619 221.256 136.393 220.199 137.393C219.142 138.392 218.301 139.597 217.726 140.933C217.151 142.269 216.854 143.709 216.854 145.163L220.513 150.834C220.513 150.834 213.969 162.238 223.395 167.849C223.395 167.849 221.714 178.419 223.395 178.305C225.076 178.192 228.949 176.04 225.076 178.192C221.204 180.343 221.493 180.632 221.994 181.133L222.495 181.634L263.213 188.471C263.213 188.471 264.404 180.577 264.532 179.169C264.661 177.761 263.8 181.204 264.661 177.761C265.521 174.319 266.812 175.61 265.521 174.319C264.23 173.029 273.885 157.037 269.918 150.834L276.278 144.631C276.278 138.681 266.721 133.858 260.771 133.858H260.009L251.856 123.98Z" fill="#E6E6E6"/>
<path d="M216.889 382.499H211.015L208.221 359.843L216.89 359.843L216.889 382.499Z" fill="#A0616A"/>
<path d="M199.164 391.161C199.167 391.819 199.429 392.449 199.894 392.915C200.358 393.38 200.988 393.644 201.646 393.648H212.703L213.046 392.938L214.61 389.711L215.215 392.938L215.349 393.648H219.52L219.46 392.933L218.348 379.597L216.894 379.508L210.608 379.135L209.064 379.041V383.023C207.892 384.269 198.697 388.981 199.164 391.161Z" fill="#2F2E41"/>
<path d="M304.185 367.113L299.246 370.291L284.638 352.749L291.929 348.06L304.185 367.113Z" fill="#A0616A"/>
<path d="M293.964 383.993C294.322 384.545 294.884 384.933 295.527 385.073C296.17 385.213 296.842 385.094 297.398 384.742L306.697 378.76L306.601 377.977L306.17 374.417L308.425 376.803L308.922 377.328L312.43 375.072L311.993 374.503L303.842 363.889L302.57 364.601L297.083 367.688L295.733 368.444L297.887 371.793C297.576 373.475 292.392 382.413 293.964 383.993Z" fill="#2F2E41"/>
<path d="M331.585 394.851L149.708 395.028C149.526 395.027 149.352 394.955 149.224 394.826C149.096 394.697 149.024 394.523 149.024 394.341C149.024 394.16 149.096 393.986 149.224 393.857C149.352 393.728 149.526 393.656 149.708 393.655L331.585 393.478C331.767 393.478 331.941 393.551 332.069 393.68C332.197 393.809 332.269 393.983 332.269 394.164C332.269 394.346 332.197 394.52 332.069 394.649C331.941 394.777 331.767 394.85 331.585 394.851Z" fill="#CACACA"/>
<path d="M266.561 198.789C266.561 198.789 238.721 213.515 223.996 203.468C223.996 203.468 220.775 219.069 219.484 220.36C218.193 221.65 216.137 222.213 217.595 223.653C219.054 225.092 219.866 227.037 217.093 229.507C214.321 231.977 211.556 231.193 214.23 233.736C216.903 236.279 206.146 298.667 206.146 298.667C206.146 298.667 207.867 356.685 206.146 358.44C204.425 360.195 202.125 360.588 204.35 362.758C206.576 364.928 206.576 363.245 206.576 366.238V369.23L207.595 372.205H221.565C221.565 372.205 224.936 368.289 221.565 364.887C218.193 361.486 222.591 360.555 223.619 357.363C224.647 354.171 226.368 357.613 224.647 354.171C222.926 350.729 222.1 351.384 222.083 349.12C222.066 346.857 247.451 258.223 247.451 258.223L250.526 307.28L287.509 361.007L298.395 352.843C298.395 352.843 290.469 341.686 292.323 340.152C294.176 338.618 286.86 336.694 289.167 334.964C291.474 333.234 285.921 331.49 288.014 329.196C290.107 326.903 285.13 321.122 282.246 321.122C279.363 321.122 275.316 311.486 275.316 311.486L281.357 235.361L266.561 198.789Z" fill="#CBCBCB"/>
<path d="M237.051 92.6675C236.854 92.9261 235.285 92.7868 233.397 92.5112C229.665 91.9663 229.156 92.6138 226.366 95.1517C222.325 98.8279 224.623 121.251 222.637 126.109L221.995 126.582C223.268 126.339 224.518 125.989 225.732 125.536C226.417 123.373 227.105 121.202 227.797 119.04C228.451 120.722 228.861 122.489 229.017 124.286C229.978 123.908 230.933 122.981 234.947 121.739C236.969 120.368 251.593 118.989 253.473 118.386C258.244 102.152 250.555 95.5863 237.051 92.6675Z" fill="#2F2E41"/>
<path d="M241.99 117.7C249.708 117.7 255.965 111.443 255.965 103.725C255.965 96.0068 249.708 89.75 241.99 89.75C234.271 89.75 228.015 96.0068 228.015 103.725C228.015 111.443 234.271 117.7 241.99 117.7Z" fill="#A0616A"/>
<path d="M250.788 91.4382C250 91.322 249.242 91.0562 248.554 90.6552C248.214 90.4493 247.937 90.1516 247.758 89.7963C247.578 89.4409 247.501 89.0422 247.538 88.6455C247.71 87.6526 248.832 87.0597 249.838 87.1201C250.84 87.2645 251.791 87.6496 252.612 88.2424C252.521 87.2828 252.111 86.3813 251.447 85.6827C250.783 84.9841 249.904 84.529 248.95 84.3904C250.273 84.3191 251.649 84.2563 252.872 84.7651C254.095 85.274 255.115 86.534 254.894 87.8405C256.951 87.5755 258.979 89.0087 259.829 90.9007C260.678 92.7927 260.509 95.0146 259.831 96.9743C259.764 97.2745 259.633 97.5567 259.448 97.8019C259.262 98.0471 259.026 98.2496 258.756 98.3955C258.063 98.6583 257.319 98.2177 256.719 97.7835C253.586 95.515 250.734 92.8813 248.224 89.9381" fill="#2F2E41"/>
<path d="M256.88 118.583C256.288 118.862 256.596 119.9 256.136 120.364C255.936 120.561 255.695 120.711 255.43 120.803C255.361 119.937 255.159 119.087 254.832 118.282C254.772 118.136 254.673 117.972 254.518 117.985C254.337 118.007 254.29 118.243 254.286 118.42C254.249 119.295 254.055 120.156 253.713 120.962C253.709 120.971 253.705 120.984 253.7 120.993C253.567 120.988 253.429 120.984 253.3 120.98C252.302 120.941 250.091 118.377 249.6 119.246C251.33 116.178 253.438 111.566 253.761 108.059C253.873 107.325 253.818 106.575 253.602 105.865C253.488 105.511 253.276 105.198 252.99 104.961C252.704 104.725 252.356 104.575 251.988 104.531C251.806 104.522 251.625 104.554 251.457 104.624C251.289 104.694 251.139 104.801 251.017 104.935C250.895 105.07 250.804 105.23 250.751 105.404C250.698 105.578 250.684 105.762 250.71 105.942L250.461 105.908C248.146 104.023 250.142 100.749 247.449 99.4537C246.537 99.0148 240.952 100.482 239.967 100.224C239.945 99.1859 239.734 98.1606 239.343 97.1991C239.282 97.0528 239.183 96.8893 239.029 96.9022C238.848 96.9237 238.801 97.1603 238.796 97.3367C238.76 98.2118 238.566 99.0732 238.224 99.8796C236.859 99.686 235.469 99.759 234.132 100.095C232.953 100.404 231.835 100.938 230.651 101.222C230.066 101.401 229.451 101.459 228.843 101.393C228.235 101.326 227.647 101.136 227.115 100.835C225.613 99.828 225.351 97.5992 226.099 95.9556C226.641 94.9009 227.373 93.9556 228.259 93.1675C228.935 92.5135 229.636 91.8853 230.337 91.2571C230.965 90.6935 231.594 90.1298 232.222 89.5662C233.013 88.8219 233.855 88.1346 234.743 87.5095C236.161 86.5802 237.754 85.9505 239.424 85.659C241.093 85.3674 242.805 85.4203 244.454 85.8143C246.433 86.2876 249.079 85.6207 250.891 86.5457C251.837 87.0319 253.933 88.895 254.763 89.5576C256.889 91.2485 255.45 89.8707 257.775 90.8484C263.318 93.1796 260.867 116.706 256.88 118.583Z" fill="#2F2E41"/>
<path d="M102.146 220.587C150.011 220.587 188.813 181.785 188.813 133.919C188.813 86.0543 150.011 47.252 102.146 47.252C54.2809 47.252 15.4785 86.0543 15.4785 133.919C15.4785 181.785 54.2809 220.587 102.146 220.587Z" fill="white"/>
<path d="M102.146 221.452C53.8803 221.452 14.6133 182.185 14.6133 133.919C14.6133 85.6537 53.8803 46.3867 102.146 46.3867C150.411 46.3867 189.678 85.6537 189.678 133.919C189.678 182.185 150.411 221.452 102.146 221.452ZM102.146 48.1169C54.8344 48.1169 16.3435 86.6078 16.3435 133.919C16.3435 181.231 54.8344 219.722 102.146 219.722C149.457 219.722 187.948 181.231 187.948 133.919C187.948 86.6078 149.457 48.1169 102.146 48.1169Z" fill="#C4C4C4"/>
<path d="M90.3233 179.027C88.8267 179.027 87.3506 178.678 86.0121 178.009C84.6736 177.339 83.5093 176.367 82.6116 175.17L58.9674 143.644C58.2079 142.631 57.6552 141.478 57.3411 140.252C57.0269 139.026 56.9574 137.749 57.1365 136.496C57.3156 135.243 57.7397 134.037 58.3848 132.948C59.0298 131.858 59.8831 130.907 60.8959 130.147C61.9088 129.388 63.0613 128.835 64.2877 128.521C65.5141 128.207 66.7903 128.137 68.0436 128.316C69.2968 128.495 70.5025 128.92 71.5919 129.565C72.6812 130.21 73.6328 131.063 74.3924 132.076L89.8612 152.699L129.591 93.1055C131.01 90.9798 133.215 89.5045 135.721 89.0041C138.228 88.5036 140.83 89.0189 142.957 90.4366C145.084 91.8543 146.56 94.0585 147.062 96.5646C147.564 99.0706 147.051 101.673 145.634 103.801L98.3457 174.734C97.4902 176.016 96.3397 177.075 94.9905 177.822C93.6414 178.568 92.1329 178.98 90.5916 179.024C90.5022 179.025 90.4128 179.027 90.3233 179.027Z" fill="#79797B"/>
<path d="M191.438 52.6659C191.679 51.0089 189.944 49.3848 187.562 49.0382C185.18 48.6917 183.054 49.754 182.812 51.4109C182.571 53.0679 184.307 54.6921 186.689 55.0386C189.071 55.3852 191.197 54.3229 191.438 52.6659Z" fill="#E6E6E6"/>
<path d="M219.797 49.8993C220.038 48.2424 218.303 46.6182 215.921 46.2717C213.539 45.9251 211.412 46.9874 211.171 48.6444C210.93 50.3013 212.666 51.9255 215.048 52.272C217.43 52.6186 219.556 51.5563 219.797 49.8993Z" fill="#3F3D56"/>
<path d="M183.674 29.7099C183.915 28.0529 182.18 26.4287 179.798 26.0822C177.416 25.7356 175.29 26.7979 175.049 28.4549C174.808 30.1118 176.543 31.736 178.925 32.0826C181.307 32.4291 183.433 31.3668 183.674 29.7099Z" fill="#FF6584"/>
<path d="M171.351 20.304C171.362 18.7828 170.514 17.5432 169.456 17.5352C168.398 17.5272 167.53 18.7538 167.519 20.275C167.507 21.7962 168.356 23.0358 169.414 23.0438C170.472 23.0518 171.339 21.8251 171.351 20.304Z" fill="#E6E6E6"/>
<path d="M167.169 2.78542C167.181 1.26426 166.332 0.0246246 165.274 0.0166227C164.216 0.00862089 163.349 1.23528 163.337 2.75644C163.326 4.2776 164.174 5.51723 165.232 5.52523C166.291 5.53323 167.158 4.30657 167.169 2.78542Z" fill="#3F3D56"/>
<path d="M199.669 33.6135C199.681 32.0924 198.832 30.8527 197.774 30.8447C196.716 30.8367 195.849 32.0634 195.837 33.5846C195.826 35.1057 196.674 36.3454 197.732 36.3534C198.791 36.3614 199.658 35.1347 199.669 33.6135Z" fill="#E6E6E6"/>
<path d="M185.963 40.4573C185.974 38.9362 185.126 37.6965 184.068 37.6885C183.009 37.6805 182.142 38.9072 182.131 40.4283C182.119 41.9495 182.968 43.1891 184.026 43.1971C185.084 43.2051 185.951 41.9785 185.963 40.4573Z" fill="#FF6584"/>
<path d="M205.04 53.1058C205.052 51.5846 204.203 50.345 203.145 50.337C202.087 50.329 201.22 51.5556 201.208 53.0768C201.197 54.5979 202.045 55.8375 203.104 55.8455C204.162 55.8535 205.029 54.6269 205.04 53.1058Z" fill="#3F3D56"/>
<path d="M28.7984 257.984C29.0395 256.327 27.304 254.703 24.9221 254.357C22.5403 254.01 20.4139 255.072 20.1728 256.729C19.9318 258.386 21.6672 260.01 24.0491 260.357C26.431 260.704 28.5573 259.641 28.7984 257.984Z" fill="#E6E6E6"/>
<path d="M57.1578 255.218C57.3988 253.561 55.6634 251.937 53.2815 251.59C50.8996 251.243 48.7733 252.306 48.5322 253.963C48.2911 255.62 50.0266 257.244 52.4085 257.59C54.7904 257.937 56.9167 256.875 57.1578 255.218Z" fill="#3F3D56"/>
<path d="M21.0352 235.027C21.2763 233.37 19.5409 231.746 17.159 231.4C14.7771 231.053 12.6507 232.115 12.4097 233.772C12.1686 235.429 13.904 237.053 16.2859 237.4C18.6678 237.747 20.7941 236.684 21.0352 235.027Z" fill="#FF6584"/>
<path d="M8.7113 225.621C8.72281 224.1 7.8743 222.861 6.8161 222.853C5.75791 222.845 4.89073 224.071 4.87923 225.592C4.86772 227.114 5.71625 228.353 6.77445 228.361C7.83264 228.369 8.6998 227.143 8.7113 225.621Z" fill="#E6E6E6"/>
<path d="M4.53013 208.103C4.54164 206.582 3.69313 205.342 2.63493 205.334C1.57674 205.326 0.709576 206.553 0.698074 208.074C0.686571 209.595 1.53508 210.835 2.59328 210.843C3.65147 210.851 4.51863 209.624 4.53013 208.103Z" fill="#3F3D56"/>
<path d="M37.0301 238.931C37.0416 237.41 36.1931 236.17 35.1349 236.162C34.0767 236.154 33.2096 237.381 33.1981 238.902C33.1866 240.423 34.0351 241.663 35.0933 241.671C36.1515 241.679 37.0186 240.452 37.0301 238.931Z" fill="#E6E6E6"/>
<path d="M23.3236 245.776C23.3351 244.254 22.4866 243.015 21.4284 243.007C20.3702 242.999 19.503 244.226 19.4915 245.747C19.48 247.268 20.3286 248.507 21.3868 248.515C22.4449 248.523 23.3121 247.297 23.3236 245.776Z" fill="#FF6584"/>
<path d="M42.4007 258.423C42.4122 256.902 41.5637 255.662 40.5055 255.654C39.4473 255.646 38.5802 256.873 38.5687 258.394C38.5572 259.915 39.4057 261.155 40.4639 261.163C41.5221 261.171 42.3892 259.944 42.4007 258.423Z" fill="#3F3D56"/>
</svg>
