<svg width="76" height="15" viewBox="0 0 76 15" fill="none" xmlns="http://www.w3.org/2000/svg">
<path d="M1.59816 14.7294C0.715053 14.7294 0 14.0144 0 13.1313V1.59816C0 0.715053 0.715053 0 1.59816 0C2.48127 0 3.19632 0.715053 3.19632 1.59816V13.1313C3.19632 14.0144 2.48127 14.7294 1.59816 14.7294Z" fill="#595959"/>
<path d="M9.53095 5.90625H2.57812V8.806H9.53095V5.90625Z" fill="#595959"/>
<path d="M10.7232 14.7294C9.84005 14.7294 9.125 14.0144 9.125 13.1313V1.59816C9.125 0.715053 9.84005 0 10.7232 0C11.6063 0 12.3213 0.715053 12.3213 1.59816V13.1313C12.3213 14.0144 11.6063 14.7294 10.7232 14.7294Z" fill="#595959"/>
<path d="M16.4575 14.7287C15.5744 14.7287 14.8594 14.0137 14.8594 13.1306V5.09035C14.8594 4.20724 15.5744 3.49219 16.4575 3.49219C17.3406 3.49219 18.0557 4.20724 18.0557 5.09035V13.1306C18.0557 14.0137 17.3406 14.7287 16.4575 14.7287Z" fill="#595959"/>
<path d="M16.5244 3.06451C17.3707 3.06451 18.0567 2.3785 18.0567 1.53226C18.0567 0.686015 17.3707 0 16.5244 0C15.6782 0 14.9922 0.686015 14.9922 1.53226C14.9922 2.3785 15.6782 3.06451 16.5244 3.06451Z" fill="#595959"/>
<path d="M26.2822 7.7133C26.9215 7.18937 27.8639 7.28493 28.3878 7.92419L31.9367 12.2573C32.4606 12.8966 32.3651 13.839 31.7258 14.363C31.0866 14.8869 30.1441 14.7913 29.6202 14.1521L26.0713 9.81892C25.5507 9.17965 25.6429 8.23723 26.2822 7.7133Z" fill="#595959"/>
<path d="M27.393 10.0395H22.0614C21.3661 10.0395 20.8125 9.47937 20.8125 8.7742C20.8125 8.06903 21.3628 7.50885 22.0614 7.50885H27.3271C29.1757 7.50885 30.1313 6.57302 30.1313 5.02759C30.1313 3.48215 29.2086 2.54632 27.4094 2.54632H22.0614C21.3661 2.54632 20.8125 1.98614 20.8125 1.28097C20.8125 0.575804 21.3628 0.015625 22.0614 0.015625H27.3139C30.7475 0.015625 32.4346 1.96966 32.4346 5.06054C32.4346 8.14812 30.731 10.0395 27.393 10.0395Z" fill="#595959"/>
<path d="M29.257 2.53906H23.5234V3.00039H29.257V2.53906Z" fill="#595959"/>
<path d="M29.257 7.05469H23.5234V7.51601H29.257V7.05469Z" fill="#595959"/>
<path d="M27.4531 2.8355C28.3362 2.45985 29.2754 2.51916 29.8586 3.03321C30.399 3.50772 30.4419 4.1997 30.4847 4.84556C30.5407 5.71878 30.3661 7.13241 29.7268 7.31694C29.3742 7.41909 29.1139 7.08628 28.2769 7.11923C28.0528 7.12911 27.8716 7.15877 27.7497 7.18513C28.7943 6.87868 29.4731 5.87036 29.3643 4.81261C29.2918 4.09755 28.7415 3.32319 28.0298 3.00026C27.809 2.9014 27.6047 2.85527 27.4531 2.8355Z" fill="#595959"/>
<path d="M22.1034 14.699C22.9588 14.699 23.6522 14.0056 23.6522 13.1503C23.6522 12.295 22.9588 11.6016 22.1034 11.6016C21.2481 11.6016 20.5547 12.295 20.5547 13.1503C20.5547 14.0056 21.2481 14.699 22.1034 14.699Z" fill="#595959"/>
<path d="M22.1034 10.0395C21.2467 10.0395 20.5547 9.34756 20.5547 8.49082V1.56436C20.5547 0.707612 21.2467 0.015625 22.1034 0.015625C22.9602 0.015625 23.6522 0.707612 23.6522 1.56436V8.48752C23.6522 9.34427 22.9602 10.0395 22.1034 10.0395Z" fill="#595959"/>
<path d="M44.7352 2.8668H36.9256C36.1347 2.8668 35.4922 2.22424 35.4922 1.4334C35.4922 0.642559 36.1347 0 36.9256 0H44.7352C45.526 0 46.1686 0.642559 46.1686 1.4334C46.1686 2.22424 45.526 2.8668 44.7352 2.8668Z" fill="#595959"/>
<path d="M36.7433 14.6635C35.8602 14.6635 35.1452 13.9452 35.1484 13.0621L35.1616 1.59488C35.1616 0.71177 35.88 -0.00328383 36.7631 1.13432e-05C37.6462 1.13432e-05 38.3612 0.718359 38.3579 1.60147L38.3448 13.0687C38.3448 13.9485 37.6264 14.6635 36.7433 14.6635Z" fill="#595959"/>
<path d="M44.7039 14.6637H36.8943C36.1035 14.6637 35.4609 14.0211 35.4609 13.2303C35.4609 12.4394 36.1035 11.7969 36.8943 11.7969H44.7039C45.4947 11.7969 46.1373 12.4394 46.1373 13.2303C46.1373 14.0211 45.4947 14.6637 44.7039 14.6637Z" fill="#595959"/>
<path d="M43.7495 8.79649H38.0818C37.291 8.79649 36.6484 8.15393 36.6484 7.36309C36.6484 6.57225 37.291 5.92969 38.0818 5.92969H43.7495C44.5404 5.92969 45.1829 6.57225 45.1829 7.36309C45.1829 8.15393 44.5404 8.79649 43.7495 8.79649Z" fill="#595959"/>
<path d="M58.0796 3.29347H50.303C49.4034 3.29347 48.6719 2.56195 48.6719 1.66236C48.6719 0.762779 49.4034 0.03125 50.303 0.03125H58.0796C58.9792 0.03125 59.7107 0.762779 59.7107 1.66236C59.7107 2.56195 58.9792 3.29347 58.0796 3.29347Z" fill="#AD1927"/>
<path d="M58.064 9.07472H50.2874C49.3878 9.07472 48.6562 8.3432 48.6562 7.44361C48.6562 6.54403 49.3878 5.8125 50.2874 5.8125H58.064C58.9636 5.8125 59.6951 6.54403 59.6951 7.44361C59.6951 8.34649 58.9636 9.07472 58.064 9.07472Z" fill="#AD1927"/>
<path d="M58.064 14.7388H50.2874C49.3878 14.7388 48.6562 14.0073 48.6562 13.1077C48.6562 12.2081 49.3878 11.4766 50.2874 11.4766H58.064C58.9636 11.4766 59.6951 12.2081 59.6951 13.1077C59.6951 14.0106 58.9636 14.7388 58.064 14.7388Z" fill="#AD1927"/>
<path d="M63.4259 0.356266C64.0257 -0.134716 64.9055 -0.0457459 65.3965 0.553976L75.1073 12.4133C75.5983 13.013 75.5094 13.8928 74.9096 14.3838C74.3099 14.8748 73.4301 14.7858 72.9391 14.1861L63.2315 2.32678C62.7406 1.73035 62.8295 0.847247 63.4259 0.356266Z" fill="#AD1927"/>
<path d="M63.0312 14.3714C63.6243 14.869 64.5074 14.7899 65.005 14.2001L69.7566 8.53568C70.2542 7.94255 70.1751 7.05944 69.5853 6.56187C68.9921 6.0643 68.109 6.14339 67.6115 6.73322L62.8598 12.3976C62.3623 12.9908 62.438 13.8739 63.0312 14.3714Z" fill="#AD1927"/>
<path d="M73.7787 3.29177C74.6704 3.29177 75.3933 2.56888 75.3933 1.67714C75.3933 0.785397 74.6704 0.0625 73.7787 0.0625C72.887 0.0625 72.1641 0.785397 72.1641 1.67714C72.1641 2.56888 72.887 3.29177 73.7787 3.29177Z" fill="#595959"/>
</svg>
