<?xml version="1.0" encoding="utf-8"?>
<!-- Generator: Adobe Illustrator 25.0.1, SVG Export Plug-In . SVG Version: 6.00 Build 0)  -->
<svg version="1.1" xmlns="http://www.w3.org/2000/svg" xmlns:xlink="http://www.w3.org/1999/xlink" x="0px" y="0px"
	 viewBox="0 0 3000 2000" style="enable-background:new 0 0 3000 2000;" xml:space="preserve">
<style type="text/css">
	.st0{fill:#FFFFFF;}
	.st1{fill:#595959;}
	.st2{fill:#AD1927;}
</style>
<g id="Background">
	<rect x="2" y="1" class="st0" width="2999" height="1997"/>
</g>
<g id="LOGO">
	<path class="st1" d="M405.5,1228L405.5,1228c-26.8,0-48.5-21.7-48.5-48.5v-350c0-26.8,21.7-48.5,48.5-48.5h0
		c26.8,0,48.5,21.7,48.5,48.5v350C454,1206.3,432.3,1228,405.5,1228z"/>
	<rect x="435" y="960" class="st1" width="211" height="88"/>
	<path class="st1" d="M682.5,1228L682.5,1228c-26.8,0-48.5-21.7-48.5-48.5v-350c0-26.8,21.7-48.5,48.5-48.5h0
		c26.8,0,48.5,21.7,48.5,48.5v350C731,1206.3,709.3,1228,682.5,1228z"/>
	<path id="I_3_" class="st1" d="M856.5,1228L856.5,1228c-26.8,0-48.5-21.7-48.5-48.5v-244c0-26.8,21.7-48.5,48.5-48.5h0
		c26.8,0,48.5,21.7,48.5,48.5v244C905,1206.3,883.3,1228,856.5,1228z"/>
	<circle class="st1" cx="858.5" cy="827.5" r="46.5"/>
	<path class="st1" d="M1154.8,1015.2L1154.8,1015.2c19.4-15.9,48-13,63.9,6.4l107.7,131.5c15.9,19.4,13,48-6.4,63.9l0,0
		c-19.4,15.9-48,13-63.9-6.4l-107.7-131.5C1132.6,1059.7,1135.4,1031.1,1154.8,1015.2z"/>
	<g>
		<path class="st1" d="M1188.4,1085.6h-161.8c-21.1,0-37.9-17-37.9-38.4c0-21.4,16.7-38.4,37.9-38.4h159.8
			c56.1,0,85.1-28.4,85.1-75.3c0-46.9-28-75.3-82.6-75.3h-162.3c-21.1,0-37.9-17-37.9-38.4c0-21.4,16.7-38.4,37.9-38.4H1186
			c104.2,0,155.4,59.3,155.4,153.1C1341.4,1028.2,1289.7,1085.6,1188.4,1085.6z"/>
	</g>
	<rect x="1071" y="858" class="st1" width="174" height="14"/>
	<rect x="1071" y="995" class="st1" width="174" height="14"/>
	<path class="st1" d="M1190,867c26.8-11.4,55.3-9.6,73,6c16.4,14.4,17.7,35.4,19,55c1.7,26.5-3.6,69.4-23,75c-10.7,3.1-18.6-7-44-6
		c-6.8,0.3-12.3,1.2-16,2c31.7-9.3,52.3-39.9,49-72c-2.2-21.7-18.9-45.2-40.5-55C1200.8,869,1194.6,867.6,1190,867z"/>
	<circle class="st1" cx="1028" cy="1180" r="47"/>
	<path class="st1" d="M1028,1085.6L1028,1085.6c-26,0-47-21-47-47V828.4c0-26,21-47,47-47l0,0c26,0,47,21,47,47v210.1
		C1075,1064.5,1054,1085.6,1028,1085.6z"/>
	<path class="st1" d="M1714.5,868h-237c-24,0-43.5-19.5-43.5-43.5v0c0-24,19.5-43.5,43.5-43.5h237c24,0,43.5,19.5,43.5,43.5v0
		C1758,848.5,1738.5,868,1714.5,868z"/>
	<path id="I_2_" class="st1" d="M1472.2,1226L1472.2,1226c-26.8,0-48.5-21.8-48.4-48.6l0.4-348c0-26.8,21.8-48.5,48.6-48.4l0,0
		c26.8,0,48.5,21.8,48.4,48.6l-0.4,348C1520.8,1204.3,1499,1226,1472.2,1226z"/>
	<path class="st1" d="M1713.5,1226h-237c-24,0-43.5-19.5-43.5-43.5l0,0c0-24,19.5-43.5,43.5-43.5h237c24,0,43.5,19.5,43.5,43.5l0,0
		C1757,1206.5,1737.5,1226,1713.5,1226z"/>
	<path class="st1" d="M1684.5,1048h-172c-24,0-43.5-19.5-43.5-43.5v0c0-24,19.5-43.5,43.5-43.5h172c24,0,43.5,19.5,43.5,43.5v0
		C1728,1028.5,1708.5,1048,1684.5,1048z"/>
	<path class="st2" d="M2119.5,881h-236c-27.3,0-49.5-22.2-49.5-49.5v0c0-27.3,22.2-49.5,49.5-49.5h236c27.3,0,49.5,22.2,49.5,49.5v0
		C2169,858.8,2146.8,881,2119.5,881z"/>
	<path class="st2" d="M2119.1,1056.4h-236c-27.3,0-49.5-22.2-49.5-49.5v0c0-27.3,22.2-49.5,49.5-49.5h236
		c27.3,0,49.5,22.2,49.5,49.5v0C2168.6,1034.3,2146.4,1056.4,2119.1,1056.4z"/>
	<path class="st2" d="M2119.1,1228.4h-236c-27.3,0-49.5-22.2-49.5-49.5l0,0c0-27.3,22.2-49.5,49.5-49.5h236
		c27.3,0,49.5,22.2,49.5,49.5l0,0C2168.6,1206.3,2146.4,1228.4,2119.1,1228.4z"/>
	<path class="st2" d="M2281.9,791.9L2281.9,791.9c18.2-14.9,44.9-12.2,59.8,6l294.7,359.9c14.9,18.2,12.2,44.9-6,59.8l0,0
		c-18.2,14.9-44.9,12.2-59.8-6L2276,851.7C2261.1,833.6,2263.8,806.8,2281.9,791.9z"/>
	<path class="st2" d="M2269.8,1217.2L2269.8,1217.2c18,15.1,44.8,12.7,59.9-5.2l144.2-171.9c15.1-18,12.7-44.8-5.2-59.9v0
		c-18-15.1-44.8-12.7-59.9,5.2l-144.2,171.9C2249.5,1175.3,2251.8,1202.1,2269.8,1217.2z"/>
	<circle class="st1" cx="2596" cy="832" r="49"/>
	<g>
	</g>
	<g>
	</g>
	<g>
	</g>
	<g>
	</g>
	<g>
	</g>
	<g>
	</g>
	<g>
	</g>
	<g>
	</g>
	<g>
	</g>
	<g>
	</g>
	<g>
	</g>
	<g>
	</g>
	<g>
	</g>
	<g>
	</g>
	<g>
	</g>
</g>
</svg>
