<svg width="16" height="16" viewBox="0 0 16 16" fill="none" xmlns="http://www.w3.org/2000/svg">
<path d="M7.49375 11.75H8.61875V7.25H7.49375V11.75ZM8 5.8625C8.175 5.8625 8.32187 5.80625 8.44062 5.69375C8.55937 5.58125 8.61875 5.4375 8.61875 5.2625C8.61875 5.0875 8.55937 4.9375 8.44062 4.8125C8.32187 4.6875 8.175 4.625 8 4.625C7.825 4.625 7.67812 4.6875 7.55937 4.8125C7.44062 4.9375 7.38125 5.0875 7.38125 5.2625C7.38125 5.4375 7.44062 5.58125 7.55937 5.69375C7.67812 5.80625 7.825 5.8625 8 5.8625ZM8 15.5C6.975 15.5 6.00625 15.3031 5.09375 14.9094C4.18125 14.5156 3.38437 13.9781 2.70312 13.2969C2.02187 12.6156 1.48437 11.8187 1.09062 10.9062C0.696875 9.99375 0.5 9.01875 0.5 7.98125C0.5 6.95625 0.696875 5.9875 1.09062 5.075C1.48437 4.1625 2.02187 3.36875 2.70312 2.69375C3.38437 2.01875 4.18125 1.48437 5.09375 1.09062C6.00625 0.696875 6.98125 0.5 8.01875 0.5C9.04375 0.5 10.0125 0.696875 10.925 1.09062C11.8375 1.48437 12.6312 2.01875 13.3062 2.69375C13.9812 3.36875 14.5156 4.1625 14.9094 5.075C15.3031 5.9875 15.5 6.9625 15.5 8C15.5 9.025 15.3031 9.99375 14.9094 10.9062C14.5156 11.8187 13.9812 12.6156 13.3062 13.2969C12.6312 13.9781 11.8375 14.5156 10.925 14.9094C10.0125 15.3031 9.0375 15.5 8 15.5ZM8.01875 14.375C9.78125 14.375 11.2812 13.7531 12.5187 12.5094C13.7562 11.2656 14.375 9.75625 14.375 7.98125C14.375 6.21875 13.7562 4.71875 12.5187 3.48125C11.2812 2.24375 9.775 1.625 8 1.625C6.2375 1.625 4.73437 2.24375 3.49062 3.48125C2.24687 4.71875 1.625 6.225 1.625 8C1.625 9.7625 2.24687 11.2656 3.49062 12.5094C4.73437 13.7531 6.24375 14.375 8.01875 14.375Z" fill="#FF4752"/>
</svg>
