<svg width="106" height="10" viewBox="0 0 106 10" fill="none" xmlns="http://www.w3.org/2000/svg">
<path d="M4.887 2.563C4.887 3.085 4.707 3.52 4.347 3.868C3.993 4.21 3.45 4.381 2.718 4.381H1.512V7H0.693V0.727H2.718C3.426 0.727 3.963 0.898 4.329 1.24C4.701 1.582 4.887 2.023 4.887 2.563ZM2.718 3.706C3.174 3.706 3.51 3.607 3.726 3.409C3.942 3.211 4.05 2.929 4.05 2.563C4.05 1.789 3.606 1.402 2.718 1.402H1.512V3.706H2.718ZM8.74891 7.063C8.16691 7.063 7.63591 6.928 7.15591 6.658C6.67591 6.382 6.29491 6.001 6.01291 5.515C5.73691 5.023 5.59891 4.471 5.59891 3.859C5.59891 3.247 5.73691 2.698 6.01291 2.212C6.29491 1.72 6.67591 1.339 7.15591 1.069C7.63591 0.793 8.16691 0.655 8.74891 0.655C9.33691 0.655 9.87091 0.793 10.3509 1.069C10.8309 1.339 11.2089 1.717 11.4849 2.203C11.7609 2.689 11.8989 3.241 11.8989 3.859C11.8989 4.477 11.7609 5.029 11.4849 5.515C11.2089 6.001 10.8309 6.382 10.3509 6.658C9.87091 6.928 9.33691 7.063 8.74891 7.063ZM8.74891 6.352C9.18691 6.352 9.57991 6.25 9.92791 6.046C10.2819 5.842 10.5579 5.551 10.7559 5.173C10.9599 4.795 11.0619 4.357 11.0619 3.859C11.0619 3.355 10.9599 2.917 10.7559 2.545C10.5579 2.167 10.2849 1.876 9.93691 1.672C9.58891 1.468 9.19291 1.366 8.74891 1.366C8.30491 1.366 7.90891 1.468 7.56091 1.672C7.21291 1.876 6.93691 2.167 6.73291 2.545C6.53491 2.917 6.43591 3.355 6.43591 3.859C6.43591 4.357 6.53491 4.795 6.73291 5.173C6.93691 5.551 7.21291 5.842 7.56091 6.046C7.91491 6.25 8.31091 6.352 8.74891 6.352ZM20.8641 0.727L19.0461 7H18.1281L16.6701 1.951L15.1581 7L14.2491 7.009L12.4941 0.727H13.3671L14.7351 6.046L16.2471 0.727H17.1651L18.6051 6.028L19.9821 0.727H20.8641ZM22.5794 1.393V3.49H24.8654V4.165H22.5794V6.325H25.1354V7H21.7604V0.718H25.1354V1.393H22.5794ZM29.6776 7L28.1836 4.435H27.1936V7H26.3746V0.727H28.3996C28.8736 0.727 29.2726 0.808 29.5966 0.97C29.9266 1.132 30.1726 1.351 30.3346 1.627C30.4966 1.903 30.5776 2.218 30.5776 2.572C30.5776 3.004 30.4516 3.385 30.1996 3.715C29.9536 4.045 29.5816 4.264 29.0836 4.372L30.6586 7H29.6776ZM27.1936 3.778H28.3996C28.8436 3.778 29.1766 3.67 29.3986 3.454C29.6206 3.232 29.7316 2.938 29.7316 2.572C29.7316 2.2 29.6206 1.912 29.3986 1.708C29.1826 1.504 28.8496 1.402 28.3996 1.402H27.1936V3.778ZM33.8032 0.727C34.4872 0.727 35.0782 0.856 35.5762 1.114C36.0802 1.366 36.4642 1.729 36.7282 2.203C36.9982 2.677 37.1332 3.235 37.1332 3.877C37.1332 4.519 36.9982 5.077 36.7282 5.551C36.4642 6.019 36.0802 6.379 35.5762 6.631C35.0782 6.877 34.4872 7 33.8032 7H31.8502V0.727H33.8032ZM33.8032 6.325C34.6132 6.325 35.2312 6.112 35.6572 5.686C36.0832 5.254 36.2962 4.651 36.2962 3.877C36.2962 3.097 36.0802 2.488 35.6482 2.05C35.2222 1.612 34.6072 1.393 33.8032 1.393H32.6692V6.325H33.8032ZM43.7539 3.769C43.9819 3.805 44.1889 3.898 44.3749 4.048C44.5669 4.198 44.7169 4.384 44.8249 4.606C44.9389 4.828 44.9959 5.065 44.9959 5.317C44.9959 5.635 44.9149 5.923 44.7529 6.181C44.5909 6.433 44.3539 6.634 44.0419 6.784C43.7359 6.928 43.3729 7 42.9529 7H40.6129V0.727H42.8629C43.2889 0.727 43.6519 0.799 43.9519 0.943C44.2519 1.081 44.4769 1.27 44.6269 1.51C44.7769 1.75 44.8519 2.02 44.8519 2.32C44.8519 2.692 44.7499 3.001 44.5459 3.247C44.3479 3.487 44.0839 3.661 43.7539 3.769ZM41.4319 3.436H42.8089C43.1929 3.436 43.4899 3.346 43.6999 3.166C43.9099 2.986 44.0149 2.737 44.0149 2.419C44.0149 2.101 43.9099 1.852 43.6999 1.672C43.4899 1.492 43.1869 1.402 42.7909 1.402H41.4319V3.436ZM42.8809 6.325C43.2889 6.325 43.6069 6.229 43.8349 6.037C44.0629 5.845 44.1769 5.578 44.1769 5.236C44.1769 4.888 44.0569 4.615 43.8169 4.417C43.5769 4.213 43.2559 4.111 42.8539 4.111H41.4319V6.325H42.8809ZM50.5245 0.727L48.4815 4.633V7H47.6625V4.633L45.6105 0.727H46.5195L48.0675 3.904L49.6155 0.727H50.5245ZM57.2077 3.355V4.048H53.6167V3.355H57.2077ZM63.1332 7.063C62.7192 7.063 62.3472 6.991 62.0172 6.847C61.6932 6.697 61.4382 6.493 61.2522 6.235C61.0662 5.971 60.9702 5.668 60.9642 5.326H61.8372C61.8672 5.62 61.9872 5.869 62.1972 6.073C62.4132 6.271 62.7252 6.37 63.1332 6.37C63.5232 6.37 63.8292 6.274 64.0512 6.082C64.2792 5.884 64.3932 5.632 64.3932 5.326C64.3932 5.086 64.3272 4.891 64.1952 4.741C64.0632 4.591 63.8982 4.477 63.7002 4.399C63.5022 4.321 63.2352 4.237 62.8992 4.147C62.4852 4.039 62.1522 3.931 61.9002 3.823C61.6542 3.715 61.4412 3.547 61.2612 3.319C61.0872 3.085 61.0002 2.773 61.0002 2.383C61.0002 2.041 61.0872 1.738 61.2612 1.474C61.4352 1.21 61.6782 1.006 61.9902 0.862C62.3082 0.718 62.6712 0.646 63.0792 0.646C63.6672 0.646 64.1472 0.793 64.5192 1.087C64.8972 1.381 65.1102 1.771 65.1582 2.257H64.2582C64.2282 2.017 64.1022 1.807 63.8802 1.627C63.6582 1.441 63.3642 1.348 62.9982 1.348C62.6562 1.348 62.3772 1.438 62.1612 1.618C61.9452 1.792 61.8372 2.038 61.8372 2.356C61.8372 2.584 61.9002 2.77 62.0262 2.914C62.1582 3.058 62.3172 3.169 62.5032 3.247C62.6952 3.319 62.9622 3.403 63.3042 3.499C63.7182 3.613 64.0512 3.727 64.3032 3.841C64.5552 3.949 64.7712 4.12 64.9512 4.354C65.1312 4.582 65.2212 4.894 65.2212 5.29C65.2212 5.596 65.1402 5.884 64.9782 6.154C64.8162 6.424 64.5762 6.643 64.2582 6.811C63.9402 6.979 63.5652 7.063 63.1332 7.063ZM66.8494 1.267C66.6934 1.267 66.5614 1.213 66.4534 1.105C66.3454 0.997 66.2914 0.865 66.2914 0.708999C66.2914 0.553 66.3454 0.421 66.4534 0.313C66.5614 0.205 66.6934 0.151 66.8494 0.151C66.9994 0.151 67.1254 0.205 67.2274 0.313C67.3354 0.421 67.3894 0.553 67.3894 0.708999C67.3894 0.865 67.3354 0.997 67.2274 1.105C67.1254 1.213 66.9994 1.267 66.8494 1.267ZM67.2454 2.068V7H66.4264V2.068H67.2454ZM74.5722 1.978C74.9562 1.978 75.2982 2.059 75.5982 2.221C75.8982 2.377 76.1352 2.614 76.3092 2.932C76.4832 3.25 76.5702 3.637 76.5702 4.093V7H75.7602V4.21C75.7602 3.718 75.6372 3.343 75.3912 3.085C75.1512 2.821 74.8242 2.689 74.4102 2.689C73.9842 2.689 73.6452 2.827 73.3932 3.103C73.1412 3.373 73.0152 3.766 73.0152 4.282V7H72.2052V4.21C72.2052 3.718 72.0822 3.343 71.8362 3.085C71.5962 2.821 71.2692 2.689 70.8552 2.689C70.4292 2.689 70.0902 2.827 69.8382 3.103C69.5862 3.373 69.4602 3.766 69.4602 4.282V7H68.6412V2.068H69.4602V2.779C69.6222 2.521 69.8382 2.323 70.1082 2.185C70.3842 2.047 70.6872 1.978 71.0172 1.978C71.4312 1.978 71.7972 2.071 72.1152 2.257C72.4332 2.443 72.6702 2.716 72.8262 3.076C72.9642 2.728 73.1922 2.458 73.5102 2.266C73.8282 2.074 74.1822 1.978 74.5722 1.978ZM78.7327 2.977C78.8947 2.695 79.1347 2.461 79.4527 2.275C79.7767 2.083 80.1517 1.987 80.5777 1.987C81.0157 1.987 81.4117 2.092 81.7657 2.302C82.1257 2.512 82.4077 2.809 82.6117 3.193C82.8157 3.571 82.9177 4.012 82.9177 4.516C82.9177 5.014 82.8157 5.458 82.6117 5.848C82.4077 6.238 82.1257 6.541 81.7657 6.757C81.4117 6.973 81.0157 7.081 80.5777 7.081C80.1577 7.081 79.7857 6.988 79.4617 6.802C79.1437 6.61 78.9007 6.373 78.7327 6.091V9.34H77.9137V2.068H78.7327V2.977ZM82.0807 4.516C82.0807 4.144 82.0057 3.82 81.8557 3.544C81.7057 3.268 81.5017 3.058 81.2437 2.914C80.9917 2.77 80.7127 2.698 80.4067 2.698C80.1067 2.698 79.8277 2.773 79.5697 2.923C79.3177 3.067 79.1137 3.28 78.9577 3.562C78.8077 3.838 78.7327 4.159 78.7327 4.525C78.7327 4.897 78.8077 5.224 78.9577 5.506C79.1137 5.782 79.3177 5.995 79.5697 6.145C79.8277 6.289 80.1067 6.361 80.4067 6.361C80.7127 6.361 80.9917 6.289 81.2437 6.145C81.5017 5.995 81.7057 5.782 81.8557 5.506C82.0057 5.224 82.0807 4.894 82.0807 4.516ZM84.8147 0.34V7H83.9957V0.34H84.8147ZM86.6336 1.267C86.4776 1.267 86.3456 1.213 86.2376 1.105C86.1296 0.997 86.0756 0.865 86.0756 0.708999C86.0756 0.553 86.1296 0.421 86.2376 0.313C86.3456 0.205 86.4776 0.151 86.6336 0.151C86.7836 0.151 86.9096 0.205 87.0116 0.313C87.1196 0.421 87.1736 0.553 87.1736 0.708999C87.1736 0.865 87.1196 0.997 87.0116 1.105C86.9096 1.213 86.7836 1.267 86.6336 1.267ZM87.0296 2.068V7H86.2106V2.068H87.0296ZM90.4324 2.743H89.3974V7H88.5784V2.743H87.9394V2.068H88.5784V1.717C88.5784 1.165 88.7194 0.763 89.0014 0.511C89.2894 0.253 89.7484 0.123999 90.3784 0.123999V0.808C90.0184 0.808 89.7634 0.88 89.6134 1.024C89.4694 1.162 89.3974 1.393 89.3974 1.717V2.068H90.4324V2.743ZM95.6353 2.068L92.6653 9.322H91.8193L92.7913 6.946L90.8023 2.068H91.7113L93.2593 6.064L94.7893 2.068H95.6353ZM96.3056 2.131C96.3476 1.579 96.5606 1.147 96.9446 0.834999C97.3286 0.523 97.8266 0.367 98.4386 0.367C98.8466 0.367 99.1976 0.442 99.4916 0.592C99.7916 0.736 100.017 0.934 100.167 1.186C100.323 1.438 100.401 1.723 100.401 2.041C100.401 2.413 100.293 2.734 100.077 3.004C99.8666 3.274 99.5906 3.448 99.2486 3.526V3.571C99.6386 3.667 99.9476 3.856 100.176 4.138C100.404 4.42 100.518 4.789 100.518 5.245C100.518 5.587 100.44 5.896 100.284 6.172C100.128 6.442 99.8936 6.655 99.5816 6.811C99.2696 6.967 98.8946 7.045 98.4566 7.045C97.8206 7.045 97.2986 6.88 96.8906 6.55C96.4826 6.214 96.2546 5.74 96.2066 5.128H96.9986C97.0406 5.488 97.1876 5.782 97.4396 6.01C97.6916 6.238 98.0276 6.352 98.4476 6.352C98.8676 6.352 99.1856 6.244 99.4016 6.028C99.6236 5.806 99.7346 5.521 99.7346 5.173C99.7346 4.723 99.5846 4.399 99.2846 4.201C98.9846 4.003 98.5316 3.904 97.9256 3.904H97.7186V3.22H97.9346C98.4866 3.214 98.9036 3.124 99.1856 2.95C99.4676 2.77 99.6086 2.494 99.6086 2.122C99.6086 1.804 99.5036 1.549 99.2936 1.357C99.0896 1.165 98.7956 1.069 98.4116 1.069C98.0396 1.069 97.7396 1.165 97.5116 1.357C97.2836 1.549 97.1486 1.807 97.1066 2.131H96.3056ZM104.332 7L103.162 5.164L102.037 7H101.182L102.775 4.552L101.182 2.068H102.109L103.279 3.895L104.395 2.068H105.25L103.666 4.507L105.259 7H104.332Z" fill="black" fill-opacity="0.29"/>
</svg>
