<svg width="442" height="491" viewBox="0 0 442 491" fill="none" xmlns="http://www.w3.org/2000/svg">
<path d="M298.297 275.147C298.827 274.989 299.369 274.873 299.917 274.8L321.816 230.303L315.13 220.28L328.938 208.214L346.295 229.454L310.945 280.902C311.814 282.848 312.071 285.012 311.681 287.107C311.29 289.202 310.271 291.129 308.759 292.631C307.247 294.133 305.314 295.139 303.216 295.516C301.118 295.892 298.955 295.621 297.015 294.738C295.075 293.855 293.45 292.403 292.356 290.574C291.262 288.745 290.75 286.626 290.889 284.5C291.028 282.373 291.811 280.339 293.135 278.668C294.458 276.997 296.258 275.769 298.297 275.147V275.147Z" fill="#A0616A"/>
<path d="M335.679 214.361C335.381 214.676 335.038 214.945 334.663 215.162L312.257 228.151C311.719 228.463 311.121 228.66 310.503 228.73C309.884 228.799 309.258 228.74 308.663 228.555C308.069 228.37 307.52 228.064 307.05 227.655C306.58 227.247 306.2 226.746 305.933 226.183L295.036 203.161C294.572 202.192 294.473 201.088 294.755 200.052C295.037 199.016 295.682 198.115 296.573 197.516L310.462 188.067C311.33 187.478 312.375 187.21 313.419 187.309C314.463 187.408 315.44 187.869 316.18 188.611L335.594 208.093C336.419 208.922 336.89 210.04 336.906 211.21C336.922 212.38 336.482 213.51 335.679 214.361H335.679Z" fill="#CCCCCC"/>
<path d="M367.139 469.332L355.309 472.551L337.264 428.454L354.724 423.703L367.139 469.332Z" fill="#A0616A"/>
<path d="M345.94 471.47L368.754 465.263L372.662 479.628L335.483 489.743C334.97 487.857 334.833 485.888 335.081 483.949C335.329 482.009 335.956 480.138 336.927 478.441C337.898 476.744 339.194 475.255 340.74 474.059C342.286 472.863 344.053 471.984 345.94 471.47Z" fill="#2F2E41"/>
<path d="M266.008 478.359L253.749 478.358L247.916 431.07L266.01 431.071L266.008 478.359Z" fill="#A0616A"/>
<path d="M244.992 474.855H268.635V489.742H230.105C230.105 487.787 230.49 485.852 231.238 484.045C231.986 482.239 233.083 480.598 234.465 479.216C235.847 477.833 237.488 476.737 239.295 475.989C241.101 475.241 243.037 474.855 244.992 474.855Z" fill="#2F2E41"/>
<path d="M278.925 172.37C292.49 172.37 303.486 161.373 303.486 147.809C303.486 134.244 292.49 123.248 278.925 123.248C265.361 123.248 254.364 134.244 254.364 147.809C254.364 161.373 265.361 172.37 278.925 172.37Z" fill="#A0616A"/>
<path d="M265.258 444.643H248.504C247.359 444.641 246.257 444.204 245.422 443.42C244.588 442.635 244.082 441.563 244.009 440.42C239.016 361.059 241.937 304.131 253.198 261.267C253.248 261.08 253.308 260.895 253.381 260.715L254.278 258.472C254.609 257.635 255.185 256.918 255.931 256.413C256.676 255.909 257.556 255.64 258.456 255.643H292.908C293.557 255.643 294.199 255.783 294.789 256.054C295.379 256.325 295.903 256.721 296.325 257.214L301.004 262.674C301.096 262.781 301.181 262.889 301.263 263.003C322.364 292.429 341.275 349.958 363.176 427.282C363.499 428.406 363.371 429.611 362.818 430.642C362.265 431.672 361.332 432.446 360.217 432.798L342.212 438.56C341.179 438.886 340.063 438.829 339.067 438.401C338.071 437.973 337.262 437.202 336.787 436.228L290.065 339.321C289.738 338.644 289.202 338.09 288.536 337.741C287.87 337.392 287.109 337.267 286.366 337.384C285.623 337.502 284.938 337.855 284.412 338.392C283.886 338.929 283.546 339.622 283.444 340.367L269.716 440.753C269.566 441.829 269.032 442.815 268.213 443.53C267.394 444.244 266.345 444.639 265.258 444.643Z" fill="#2F2E41"/>
<path d="M299.116 263.074C299.069 263.074 299.022 263.073 298.974 263.072L257.126 261.751C256.05 261.72 255.021 261.305 254.226 260.579C253.432 259.853 252.924 258.865 252.797 257.796C247.492 214.855 262.041 203.351 268.543 200.399C269.086 200.154 269.557 199.772 269.909 199.292C270.262 198.811 270.484 198.248 270.555 197.656L271.118 193.155C271.214 192.36 271.521 191.605 272.007 190.969C282.2 177.764 296.12 173.536 303.509 172.191C304.109 172.083 304.724 172.098 305.317 172.236C305.91 172.373 306.47 172.629 306.961 172.99C307.452 173.35 307.865 173.806 308.174 174.33C308.483 174.855 308.683 175.437 308.761 176.041L309.603 182.503C309.689 183.12 309.935 183.703 310.317 184.195C331.576 211.987 307.892 253.022 302.929 260.965C302.523 261.61 301.961 262.142 301.294 262.511C300.627 262.88 299.878 263.073 299.116 263.074Z" fill="#CCCCCC"/>
<path d="M328.478 150.574C322.999 142.859 316.429 135.98 308.973 130.153C302.775 125.312 295.875 121.175 288.264 119.197C280.651 117.218 272.245 117.555 265.3 121.246C258.355 124.937 251.175 132.271 251.131 140.135C251.117 142.662 251.76 146.08 254.248 145.643L254.968 145.739C260.97 144.526 266.972 143.314 272.975 142.102C275.531 150.974 278.088 159.846 280.644 168.717C281.183 170.587 281.906 172.678 283.681 173.476C285.353 174.227 287.285 173.519 288.977 172.813C289.255 172.697 291.645 167.331 291.645 167.331C291.705 167.164 291.808 167.015 291.945 166.901C292.081 166.786 292.246 166.711 292.422 166.681C292.597 166.652 292.777 166.67 292.944 166.733C293.11 166.797 293.256 166.904 293.368 167.043L294.788 168.818C295.059 169.157 295.433 169.398 295.854 169.506C296.275 169.613 296.719 169.581 297.12 169.414C306.908 165.327 316.697 161.241 326.485 157.155C327.838 156.59 329.35 155.853 329.742 154.44C330.118 153.087 329.291 151.719 328.478 150.574Z" fill="#2F2E41"/>
<path d="M441 490.643H140C139.735 490.643 139.48 490.538 139.293 490.35C139.105 490.163 139 489.908 139 489.643C139 489.378 139.105 489.124 139.293 488.936C139.48 488.748 139.735 488.643 140 488.643H441C441.265 488.643 441.52 488.748 441.707 488.936C441.895 489.124 442 489.378 442 489.643C442 489.908 441.895 490.163 441.707 490.35C441.52 490.538 441.265 490.643 441 490.643Z" fill="#3F3D56"/>
<path d="M277.817 334.807C277.137 334.804 276.475 334.585 275.928 334.182L271.376 330.875C270.998 330.599 270.543 330.45 270.075 330.45C269.607 330.45 269.152 330.599 268.774 330.875L264.222 334.182C263.673 334.58 263.012 334.795 262.333 334.795C261.655 334.795 260.994 334.581 260.445 334.182C259.896 333.783 259.487 333.221 259.277 332.575C259.067 331.93 259.067 331.235 259.277 330.589L261.016 325.238C261.161 324.794 261.162 324.315 261.017 323.87C260.873 323.425 260.59 323.038 260.212 322.764L255.66 319.456C255.111 319.057 254.702 318.495 254.492 317.849C254.283 317.204 254.283 316.509 254.492 315.863C254.702 315.218 255.111 314.656 255.66 314.257C256.209 313.858 256.87 313.643 257.548 313.643H263.175C263.643 313.644 264.098 313.496 264.477 313.221C264.855 312.947 265.136 312.559 265.28 312.114L267.019 306.763C267.228 306.117 267.637 305.555 268.186 305.156C268.735 304.757 269.396 304.542 270.075 304.542C270.753 304.542 271.415 304.757 271.964 305.156C272.513 305.555 272.921 306.117 273.131 306.763L274.87 312.114C275.013 312.559 275.295 312.947 275.673 313.221C276.051 313.496 276.507 313.644 276.975 313.643H282.601C283.28 313.643 283.941 313.858 284.49 314.257C285.039 314.656 285.448 315.218 285.657 315.863C285.867 316.509 285.867 317.204 285.657 317.849C285.448 318.495 285.039 319.057 284.49 319.456L279.938 322.763C279.559 323.037 279.277 323.425 279.133 323.87C278.988 324.315 278.989 324.794 279.134 325.238L280.873 330.589C281.09 331.234 281.094 331.932 280.884 332.579C280.673 333.226 280.26 333.788 279.705 334.182C279.158 334.585 278.497 334.804 277.817 334.807Z" fill="#FFC145"/>
<path d="M295.212 324.109C296.498 323.207 297.571 322.035 298.354 320.674C299.138 319.313 299.613 317.796 299.747 316.231C299.881 314.667 299.671 313.091 299.13 311.617C298.59 310.142 297.732 308.804 296.619 307.697L304.392 213.825L281.248 217.009L280.808 308.214C279.071 310.208 278.127 312.77 278.153 315.414C278.179 318.058 279.174 320.6 280.95 322.56C282.725 324.519 285.158 325.759 287.787 326.045C290.415 326.33 293.057 325.642 295.212 324.109Z" fill="#A0616A"/>
<path d="M305.904 227.342C305.471 227.342 305.04 227.28 304.624 227.157L279.778 219.849C279.181 219.674 278.626 219.376 278.15 218.975C277.674 218.575 277.286 218.079 277.011 217.521C276.736 216.962 276.579 216.353 276.552 215.731C276.525 215.109 276.626 214.488 276.851 213.908L286.046 190.154C286.43 189.151 287.161 188.319 288.107 187.81C289.053 187.301 290.15 187.149 291.199 187.383L307.613 190.951C308.638 191.174 309.553 191.748 310.199 192.573C310.846 193.399 311.184 194.424 311.156 195.472L310.392 222.965C310.359 224.134 309.872 225.245 309.035 226.062C308.197 226.88 307.075 227.339 305.904 227.342H305.904Z" fill="#CCCCCC"/>
<path d="M172.21 155.865H2.79043C2.05062 155.865 1.34134 155.57 0.818215 155.047C0.295087 154.524 0.000830362 153.815 0 153.075V102.449C0.000830362 101.709 0.295087 101 0.818215 100.476C1.34134 99.9533 2.05062 99.659 2.79043 99.6582H172.21C172.949 99.659 173.659 99.9533 174.182 100.476C174.705 101 174.999 101.709 175 102.449V153.075C174.999 153.815 174.705 154.524 174.182 155.047C173.659 155.57 172.949 155.865 172.21 155.865ZM2.79043 100.455C2.262 100.456 1.75539 100.666 1.38173 101.04C1.00807 101.414 0.797878 101.92 0.797266 102.449V153.075C0.797878 153.603 1.00807 154.11 1.38173 154.484C1.75539 154.857 2.262 155.068 2.79043 155.068H172.21C172.738 155.068 173.245 154.857 173.618 154.484C173.992 154.11 174.202 153.603 174.203 153.075V102.449C174.202 101.92 173.992 101.414 173.618 101.04C173.245 100.666 172.738 100.456 172.21 100.455H2.79043Z" fill="#3F3D56"/>
<path d="M76.9263 177.183C76.5942 177.181 76.2711 177.074 76.0038 176.877L73.7809 175.262C73.5964 175.128 73.374 175.055 73.1456 175.055C72.9172 175.055 72.6947 175.128 72.5103 175.262L70.2873 176.877C70.0193 177.072 69.6964 177.177 69.365 177.177C69.0336 177.177 68.7108 177.072 68.4426 176.877C68.1745 176.683 67.975 176.408 67.8725 176.093C67.7701 175.778 67.7701 175.438 67.8724 175.123L68.7216 172.51C68.7925 172.293 68.7928 172.059 68.7222 171.841C68.6517 171.624 68.5139 171.435 68.3289 171.301L66.106 169.686C65.8379 169.491 65.6383 169.217 65.5359 168.901C65.4335 168.586 65.4335 168.247 65.5359 167.932C65.6383 167.616 65.8379 167.342 66.106 167.147C66.3741 166.952 66.6969 166.847 67.0283 166.847H69.7761C70.0045 166.848 70.227 166.776 70.4118 166.641C70.5965 166.507 70.7339 166.318 70.8041 166.1L71.6531 163.487C71.7554 163.172 71.955 162.897 72.2231 162.703C72.4912 162.508 72.8142 162.403 73.1456 162.403C73.477 162.403 73.7999 162.508 74.068 162.703C74.3361 162.897 74.5357 163.172 74.6381 163.487L75.4871 166.1C75.5573 166.318 75.6946 166.507 75.8794 166.641C76.0641 166.776 76.2867 166.848 76.5151 166.847H79.2628C79.5942 166.847 79.9171 166.952 80.1852 167.147C80.4532 167.342 80.6528 167.616 80.7552 167.932C80.8576 168.247 80.8576 168.586 80.7552 168.901C80.6528 169.217 80.4532 169.491 80.1852 169.686L77.9622 171.301C77.7772 171.435 77.6395 171.624 77.5689 171.841C77.4984 172.059 77.4986 172.293 77.5696 172.51L78.4187 175.123C78.5249 175.438 78.5267 175.778 78.424 176.094C78.3213 176.41 78.1195 176.685 77.8486 176.877C77.5814 177.074 77.2583 177.181 76.9263 177.183Z" fill="#FFC145"/>
<path d="M99.4524 177.183C99.1203 177.181 98.7972 177.074 98.53 176.877L96.307 175.262C96.1226 175.128 95.9001 175.055 95.6717 175.055C95.4433 175.055 95.2209 175.128 95.0364 175.262L92.8135 176.877C92.5454 177.072 92.2225 177.177 91.8911 177.177C91.5598 177.177 91.2369 177.072 90.9688 176.877C90.7007 176.683 90.5011 176.408 90.3987 176.093C90.2962 175.778 90.2962 175.438 90.3986 175.123L91.2477 172.51C91.3187 172.293 91.3189 172.059 91.2483 171.841C91.1778 171.624 91.0401 171.435 90.8551 171.301L88.6321 169.686C88.364 169.491 88.1645 169.217 88.0621 168.901C87.9597 168.586 87.9598 168.247 88.0622 167.932C88.1646 167.616 88.3641 167.342 88.6322 167.147C88.9003 166.952 89.2232 166.847 89.5546 166.847H92.3022C92.5306 166.848 92.7532 166.776 92.9379 166.641C93.1226 166.507 93.26 166.318 93.3302 166.1L94.1793 163.487C94.2817 163.172 94.4812 162.897 94.7493 162.703C95.0174 162.508 95.3403 162.403 95.6718 162.403C96.0032 162.403 96.3261 162.508 96.5942 162.703C96.8623 162.897 97.0618 163.172 97.1642 163.487L98.0132 166.1C98.0834 166.318 98.2208 166.507 98.4056 166.641C98.5903 166.776 98.8129 166.848 99.0413 166.847H101.789C102.12 166.847 102.443 166.952 102.711 167.147C102.979 167.342 103.179 167.616 103.281 167.932C103.384 168.247 103.384 168.586 103.281 168.901C103.179 169.217 102.979 169.491 102.711 169.686L100.488 171.301C100.303 171.435 100.166 171.624 100.095 171.841C100.024 172.059 100.025 172.293 100.096 172.51L100.945 175.123C101.051 175.438 101.053 175.778 100.95 176.094C100.847 176.41 100.646 176.685 100.375 176.877C100.107 177.074 99.7845 177.181 99.4524 177.183Z" fill="#FFC145"/>
<path d="M121.979 177.183C121.646 177.181 121.323 177.074 121.056 176.877L118.833 175.262C118.649 175.128 118.426 175.055 118.198 175.055C117.97 175.055 117.747 175.128 117.563 175.262L115.34 176.877C115.072 177.072 114.749 177.177 114.417 177.177C114.086 177.177 113.763 177.072 113.495 176.877C113.227 176.683 113.027 176.408 112.925 176.093C112.822 175.778 112.822 175.438 112.925 175.123L113.774 172.51C113.845 172.293 113.845 172.059 113.774 171.841C113.704 171.624 113.566 171.435 113.381 171.301L111.158 169.686C110.89 169.491 110.691 169.217 110.588 168.901C110.486 168.586 110.486 168.247 110.588 167.932C110.691 167.616 110.89 167.342 111.158 167.147C111.426 166.952 111.749 166.847 112.081 166.847H114.828C115.057 166.848 115.279 166.776 115.464 166.641C115.649 166.507 115.786 166.318 115.856 166.1L116.705 163.487C116.808 163.172 117.007 162.897 117.275 162.703C117.544 162.508 117.866 162.403 118.198 162.403C118.529 162.403 118.852 162.508 119.12 162.703C119.388 162.897 119.588 163.172 119.69 163.487L120.539 166.1C120.61 166.318 120.747 166.507 120.932 166.641C121.116 166.776 121.339 166.848 121.567 166.847H124.315C124.646 166.847 124.969 166.952 125.237 167.147C125.506 167.342 125.705 167.616 125.807 167.932C125.91 168.247 125.91 168.586 125.807 168.901C125.705 169.217 125.506 169.491 125.238 169.686L123.015 171.301C122.83 171.435 122.692 171.624 122.621 171.841C122.551 172.059 122.551 172.293 122.622 172.51L123.471 175.123C123.577 175.438 123.579 175.778 123.476 176.094C123.374 176.41 123.172 176.685 122.901 176.877C122.634 177.074 122.311 177.181 121.979 177.183Z" fill="#FFC145"/>
<path d="M144.505 177.183C144.173 177.181 143.85 177.074 143.582 176.877L141.359 175.262C141.175 175.127 140.953 175.055 140.724 175.055C140.496 175.055 140.273 175.127 140.089 175.262L137.866 176.877C137.598 177.072 137.275 177.177 136.944 177.177C136.612 177.177 136.289 177.072 136.021 176.877C135.753 176.683 135.553 176.408 135.451 176.093C135.349 175.778 135.349 175.438 135.451 175.123L136.3 172.51C136.371 172.293 136.371 172.059 136.301 171.841C136.23 171.624 136.092 171.435 135.907 171.301L133.684 169.686C133.416 169.491 133.217 169.217 133.114 168.901C133.012 168.586 133.012 168.247 133.114 167.932C133.217 167.616 133.416 167.342 133.684 167.147C133.953 166.952 134.275 166.847 134.607 166.847H137.354C137.583 166.848 137.805 166.776 137.99 166.641C138.175 166.507 138.312 166.318 138.383 166.1L139.232 163.487C139.334 163.172 139.533 162.897 139.802 162.703C140.07 162.508 140.393 162.403 140.724 162.403C141.055 162.403 141.378 162.508 141.646 162.703C141.915 162.897 142.114 163.172 142.216 163.487L143.066 166.1C143.136 166.318 143.273 166.507 143.458 166.641C143.643 166.776 143.865 166.848 144.094 166.847H146.841C147.173 166.847 147.495 166.952 147.764 167.147C148.032 167.342 148.231 167.616 148.334 167.932C148.436 168.247 148.436 168.586 148.334 168.901C148.231 169.217 148.032 169.491 147.764 169.686L145.541 171.301C145.356 171.435 145.218 171.624 145.147 171.841C145.077 172.059 145.077 172.293 145.148 172.51L145.997 175.123C146.103 175.438 146.105 175.778 146.003 176.094C145.9 176.41 145.698 176.685 145.427 176.877C145.16 177.074 144.837 177.181 144.505 177.183Z" fill="#FFC145"/>
<path d="M159.47 177.337C159.105 177.336 158.75 177.219 158.456 177.002C158.159 176.791 157.937 176.489 157.824 176.142C157.711 175.795 157.714 175.421 157.83 175.075L158.679 172.462C158.74 172.276 158.74 172.075 158.68 171.889C158.619 171.703 158.501 171.541 158.343 171.426L156.12 169.811C155.825 169.597 155.606 169.295 155.494 168.949C155.381 168.603 155.381 168.23 155.494 167.884C155.606 167.537 155.825 167.236 156.12 167.022C156.414 166.808 156.769 166.693 157.133 166.693H159.881C160.076 166.693 160.267 166.631 160.426 166.516C160.584 166.401 160.702 166.239 160.762 166.052L161.611 163.439C161.723 163.093 161.943 162.791 162.237 162.577C162.532 162.364 162.886 162.248 163.25 162.248C163.614 162.248 163.969 162.364 164.263 162.577C164.558 162.791 164.777 163.093 164.89 163.439L165.739 166.052C165.799 166.239 165.916 166.401 166.075 166.516C166.233 166.631 166.424 166.693 166.62 166.693H169.367C169.731 166.693 170.086 166.808 170.381 167.022C170.675 167.236 170.894 167.537 171.007 167.884C171.119 168.23 171.119 168.603 171.007 168.949C170.894 169.295 170.675 169.597 170.381 169.811L168.158 171.426C167.999 171.541 167.881 171.703 167.821 171.889C167.76 172.075 167.76 172.276 167.821 172.462L168.67 175.075C168.783 175.421 168.783 175.794 168.67 176.14C168.558 176.486 168.338 176.788 168.044 177.002C167.749 177.216 167.395 177.331 167.031 177.331C166.667 177.331 166.312 177.216 166.018 177.002L163.795 175.387C163.637 175.272 163.446 175.21 163.25 175.21C163.054 175.21 162.864 175.272 162.706 175.387L160.483 177.002C160.189 177.219 159.834 177.336 159.47 177.337ZM163.25 174.412C163.614 174.412 163.969 174.528 164.263 174.742L166.486 176.357C166.644 176.472 166.835 176.534 167.031 176.534C167.226 176.534 167.417 176.472 167.575 176.357C167.734 176.242 167.851 176.08 167.912 175.894C167.972 175.708 167.972 175.507 167.912 175.321L167.063 172.708C166.95 172.362 166.949 171.989 167.062 171.642C167.174 171.296 167.394 170.994 167.689 170.781L169.912 169.166C170.07 169.051 170.188 168.889 170.248 168.703C170.309 168.517 170.309 168.316 170.248 168.13C170.188 167.944 170.07 167.782 169.912 167.667C169.754 167.552 169.563 167.49 169.367 167.49H166.62C166.255 167.491 165.901 167.376 165.606 167.162C165.311 166.947 165.092 166.645 164.98 166.299L164.131 163.686C164.071 163.5 163.953 163.338 163.795 163.222C163.636 163.107 163.446 163.046 163.25 163.046C163.054 163.046 162.864 163.107 162.706 163.222C162.547 163.338 162.429 163.5 162.369 163.686L161.52 166.299C161.408 166.645 161.189 166.948 160.894 167.162C160.6 167.376 160.245 167.491 159.881 167.49H157.133C156.937 167.49 156.747 167.552 156.588 167.667C156.43 167.782 156.312 167.944 156.252 168.13C156.191 168.316 156.191 168.517 156.252 168.703C156.312 168.889 156.43 169.051 156.588 169.166L158.811 170.781C159.106 170.995 159.326 171.296 159.438 171.643C159.551 171.989 159.551 172.362 159.438 172.708L158.588 175.321C158.528 175.507 158.528 175.708 158.588 175.894C158.649 176.08 158.767 176.242 158.925 176.357C159.083 176.472 159.274 176.534 159.469 176.534C159.665 176.534 159.856 176.472 160.014 176.357L162.237 174.742C162.531 174.528 162.886 174.412 163.25 174.412Z" fill="#3F3D56"/>
<path d="M21.9249 111.617C21.2376 111.617 20.5786 111.89 20.0927 112.376C19.6067 112.862 19.3337 113.521 19.3337 114.208C19.3337 114.896 19.6067 115.555 20.0927 116.04C20.5786 116.526 21.2376 116.799 21.9249 116.799H153.075C153.762 116.799 154.421 116.526 154.907 116.04C155.393 115.555 155.666 114.896 155.666 114.208C155.666 113.521 155.393 112.862 154.907 112.376C154.421 111.89 153.762 111.617 153.075 111.617H21.9249Z" fill="#CCCCCC"/>
<path d="M21.9249 125.171C21.2376 125.171 20.5786 125.444 20.0927 125.93C19.6067 126.416 19.3337 127.075 19.3337 127.762C19.3337 128.449 19.6067 129.108 20.0927 129.594C20.5786 130.08 21.2376 130.353 21.9249 130.353H153.075C153.762 130.353 154.421 130.08 154.907 129.594C155.393 129.108 155.666 128.449 155.666 127.762C155.666 127.075 155.393 126.416 154.907 125.93C154.421 125.444 153.762 125.171 153.075 125.171H21.9249Z" fill="#CCCCCC"/>
<path d="M21.9249 138.724C21.2376 138.724 20.5786 138.997 20.0927 139.483C19.6067 139.969 19.3337 140.628 19.3337 141.315C19.3337 142.003 19.6067 142.662 20.0927 143.148C20.5786 143.634 21.2376 143.907 21.9249 143.907H153.075C153.762 143.907 154.421 143.634 154.907 143.148C155.393 142.662 155.666 142.003 155.666 141.315C155.666 140.628 155.393 139.969 154.907 139.483C154.421 138.997 153.762 138.724 153.075 138.724H21.9249Z" fill="#CCCCCC"/>
<path d="M21.9249 111.617C21.2376 111.617 20.5786 111.89 20.0927 112.376C19.6067 112.862 19.3337 113.521 19.3337 114.208C19.3337 114.896 19.6067 115.555 20.0927 116.04C20.5786 116.526 21.2376 116.799 21.9249 116.799H153.075C153.762 116.799 154.421 116.526 154.907 116.04C155.393 115.555 155.666 114.896 155.666 114.208C155.666 113.521 155.393 112.862 154.907 112.376C154.421 111.89 153.762 111.617 153.075 111.617H21.9249Z" fill="#CCCCCC"/>
<path d="M21.9249 125.171C21.2376 125.171 20.5786 125.444 20.0927 125.93C19.6067 126.416 19.3337 127.075 19.3337 127.762C19.3337 128.449 19.6067 129.108 20.0927 129.594C20.5786 130.08 21.2376 130.353 21.9249 130.353H153.075C153.762 130.353 154.421 130.08 154.907 129.594C155.393 129.108 155.666 128.449 155.666 127.762C155.666 127.075 155.393 126.416 154.907 125.93C154.421 125.444 153.762 125.171 153.075 125.171H21.9249Z" fill="#CCCCCC"/>
<path d="M21.9249 138.724C21.2376 138.724 20.5786 138.997 20.0927 139.483C19.6067 139.969 19.3337 140.628 19.3337 141.315C19.3337 142.003 19.6067 142.662 20.0927 143.148C20.5786 143.634 21.2376 143.907 21.9249 143.907H153.075C153.762 143.907 154.421 143.634 154.907 143.148C155.393 142.662 155.666 142.003 155.666 141.315C155.666 140.628 155.393 139.969 154.907 139.483C154.421 138.997 153.762 138.724 153.075 138.724H21.9249Z" fill="#CCCCCC"/>
<path d="M172.21 56.2073H2.79043C2.05062 56.2064 1.34134 55.9122 0.818215 55.3891C0.295087 54.8659 0.000830362 54.1567 0 53.4168V2.79043C0.000830362 2.05062 0.295087 1.34134 0.818215 0.818215C1.34134 0.295087 2.05062 0.000830362 2.79043 0H172.21C172.949 0.000829309 173.659 0.295087 174.182 0.818215C174.705 1.34134 174.999 2.05062 175 2.79043V53.4168C174.999 54.1567 174.705 54.8659 174.182 55.3891C173.659 55.9122 172.949 56.2064 172.21 56.2073ZM2.79043 0.797266C2.262 0.797878 1.75539 1.00807 1.38173 1.38172C1.00807 1.75538 0.797878 2.262 0.797266 2.79043V53.4168C0.797878 53.9453 1.00807 54.4519 1.38173 54.8256C1.75539 55.1992 2.262 55.4094 2.79043 55.41H172.21C172.738 55.4094 173.245 55.1992 173.618 54.8256C173.992 54.4519 174.202 53.9453 174.203 53.4168V2.79043C174.202 2.262 173.992 1.75538 173.618 1.38172C173.245 1.00806 172.738 0.79787 172.21 0.797266H2.79043Z" fill="#3F3D56"/>
<path d="M76.9263 77.5242C76.5942 77.5229 76.2711 77.4159 76.0038 77.2188L73.7809 75.6037C73.5964 75.4691 73.374 75.3965 73.1456 75.3965C72.9172 75.3965 72.6947 75.4691 72.5103 75.6037L70.2873 77.2188C70.0193 77.4136 69.6964 77.5185 69.365 77.5185C69.0336 77.5185 68.7108 77.4136 68.4426 77.2189C68.1745 77.0241 67.975 76.7495 67.8725 76.4343C67.7701 76.1192 67.7701 75.7797 67.8724 75.4645L68.7216 72.8513C68.7925 72.6342 68.7928 72.4002 68.7222 72.183C68.6517 71.9658 68.5139 71.7766 68.3289 71.6426L66.106 70.0276C65.8379 69.8328 65.6383 69.5582 65.5359 69.243C65.4335 68.9278 65.4335 68.5883 65.5359 68.2732C65.6383 67.958 65.8379 67.6833 66.106 67.4885C66.3741 67.2938 66.6969 67.1888 67.0283 67.1888H69.7761C70.0045 67.1893 70.227 67.1172 70.4118 66.983C70.5965 66.8487 70.7339 66.6593 70.8041 66.442L71.6531 63.8288C71.7554 63.5136 71.955 63.239 72.2231 63.0441C72.4912 62.8493 72.8142 62.7444 73.1456 62.7444C73.477 62.7444 73.7999 62.8493 74.068 63.0441C74.3361 63.239 74.5357 63.5136 74.6381 63.8288L75.4871 66.442C75.5573 66.6593 75.6946 66.8487 75.8794 66.983C76.0641 67.1172 76.2867 67.1893 76.5151 67.1888H79.2628C79.5942 67.1889 79.9171 67.2938 80.1852 67.4886C80.4532 67.6834 80.6528 67.958 80.7552 68.2732C80.8576 68.5883 80.8576 68.9278 80.7552 69.243C80.6528 69.5582 80.4532 69.8328 80.1852 70.0276L77.9622 71.6426C77.7772 71.7766 77.6395 71.9658 77.5689 72.183C77.4984 72.4002 77.4986 72.6342 77.5696 72.8513L78.4187 75.4645C78.5249 75.7793 78.5267 76.12 78.424 76.436C78.3213 76.752 78.1195 77.0265 77.8486 77.2188C77.5814 77.4159 77.2583 77.5229 76.9263 77.5242Z" fill="#FFC145"/>
<path d="M99.4524 77.5242C99.1203 77.5229 98.7972 77.4159 98.53 77.2188L96.307 75.6037C96.1226 75.4691 95.9001 75.3965 95.6717 75.3965C95.4433 75.3965 95.2209 75.4691 95.0364 75.6037L92.8135 77.2188C92.5454 77.4136 92.2225 77.5185 91.8911 77.5185C91.5598 77.5185 91.2369 77.4136 90.9688 77.2189C90.7007 77.0241 90.5011 76.7495 90.3987 76.4343C90.2962 76.1192 90.2962 75.7797 90.3986 75.4645L91.2477 72.8513C91.3187 72.6342 91.3189 72.4002 91.2483 72.183C91.1778 71.9658 91.0401 71.7766 90.8551 71.6426L88.6321 70.0276C88.364 69.8328 88.1645 69.5581 88.0621 69.243C87.9597 68.9278 87.9598 68.5883 88.0622 68.2731C88.1646 67.958 88.3641 67.6833 88.6322 67.4886C88.9003 67.2938 89.2232 67.1889 89.5546 67.1888H92.3022C92.5306 67.1893 92.7532 67.1172 92.9379 66.983C93.1226 66.8487 93.26 66.6593 93.3302 66.442L94.1793 63.8288C94.2817 63.5136 94.4812 63.2389 94.7493 63.0441C95.0174 62.8493 95.3403 62.7444 95.6718 62.7444C96.0032 62.7444 96.3261 62.8493 96.5942 63.0441C96.8623 63.2389 97.0618 63.5136 97.1642 63.8288L98.0132 66.442C98.0834 66.6593 98.2208 66.8487 98.4056 66.983C98.5903 67.1172 98.8129 67.1893 99.0413 67.1888H101.789C102.12 67.1889 102.443 67.2938 102.711 67.4886C102.979 67.6833 103.179 67.958 103.281 68.2731C103.384 68.5883 103.384 68.9278 103.281 69.243C103.179 69.5581 102.979 69.8328 102.711 70.0276L100.488 71.6426C100.303 71.7765 100.166 71.9657 100.095 72.183C100.024 72.4002 100.025 72.6342 100.096 72.8513L100.945 75.4645C101.051 75.7793 101.053 76.12 100.95 76.436C100.847 76.752 100.646 77.0265 100.375 77.2188C100.107 77.4159 99.7845 77.5229 99.4524 77.5242Z" fill="#FFC145"/>
<path d="M121.979 77.5242C121.646 77.5229 121.323 77.4159 121.056 77.2188L118.833 75.6037C118.649 75.4694 118.426 75.397 118.198 75.397C117.97 75.397 117.747 75.4694 117.563 75.6037L115.34 77.2188C115.072 77.4136 114.749 77.5185 114.417 77.5185C114.086 77.5185 113.763 77.4136 113.495 77.2189C113.227 77.0241 113.027 76.7494 112.925 76.4343C112.822 76.1191 112.822 75.7797 112.925 75.4645L113.774 72.8513C113.845 72.6342 113.845 72.4002 113.774 72.183C113.704 71.9658 113.566 71.7766 113.381 71.6426L111.158 70.0276C110.89 69.8328 110.691 69.5581 110.588 69.243C110.486 68.9278 110.486 68.5883 110.588 68.2731C110.691 67.958 110.89 67.6833 111.158 67.4886C111.426 67.2938 111.749 67.1889 112.081 67.1888H114.828C115.057 67.1893 115.279 67.1172 115.464 66.983C115.649 66.8487 115.786 66.6593 115.856 66.442L116.705 63.8288C116.808 63.5136 117.007 63.2389 117.275 63.0441C117.544 62.8493 117.866 62.7444 118.198 62.7444C118.529 62.7444 118.852 62.8493 119.12 63.0441C119.388 63.2389 119.588 63.5136 119.69 63.8288L120.539 66.442C120.61 66.6593 120.747 66.8487 120.932 66.983C121.116 67.1172 121.339 67.1893 121.567 67.1888H124.315C124.646 67.1889 124.969 67.2938 125.237 67.4886C125.506 67.6833 125.705 67.958 125.807 68.2731C125.91 68.5883 125.91 68.9278 125.807 69.243C125.705 69.5581 125.506 69.8328 125.238 70.0276L123.015 71.6426C122.83 71.7766 122.692 71.9658 122.621 72.183C122.551 72.4002 122.551 72.6342 122.622 72.8513L123.471 75.4645C123.577 75.7793 123.579 76.12 123.476 76.436C123.374 76.752 123.172 77.0265 122.901 77.2188C122.634 77.4159 122.311 77.5229 121.979 77.5242Z" fill="#FFC145"/>
<path d="M159.47 77.6792C159.105 77.6777 158.75 77.5604 158.456 77.344C158.159 77.1327 157.937 76.8312 157.824 76.484C157.711 76.1368 157.714 75.7626 157.83 75.4166L158.679 72.8035C158.74 72.6175 158.74 72.417 158.68 72.2308C158.619 72.0447 158.501 71.8826 158.343 71.7678L156.12 70.1527C155.825 69.9387 155.606 69.637 155.494 69.2908C155.381 68.9446 155.381 68.5717 155.494 68.2255C155.606 67.8792 155.825 67.5775 156.12 67.3636C156.414 67.1496 156.769 67.0344 157.133 67.0344H159.881C160.076 67.0348 160.267 66.973 160.426 66.8579C160.584 66.7429 160.702 66.5805 160.762 66.3942L161.611 63.7811C161.723 63.4349 161.943 63.1332 162.237 62.9193C162.532 62.7053 162.886 62.5901 163.25 62.5901C163.614 62.5901 163.969 62.7053 164.263 62.9193C164.558 63.1332 164.777 63.4349 164.89 63.7811L165.739 66.3942C165.799 66.5805 165.916 66.7429 166.075 66.8579C166.233 66.973 166.424 67.0348 166.62 67.0344H169.367C169.731 67.0345 170.086 67.1497 170.381 67.3637C170.675 67.5776 170.894 67.8793 171.007 68.2255C171.119 68.5717 171.119 68.9446 171.007 69.2908C170.894 69.637 170.675 69.9387 170.381 70.1527L168.158 71.7678C167.999 71.8825 167.881 72.0447 167.821 72.2308C167.76 72.4169 167.76 72.6175 167.821 72.8035L168.67 75.4166C168.783 75.7628 168.783 76.1358 168.67 76.482C168.558 76.8282 168.338 77.1299 168.044 77.3438C167.749 77.5578 167.395 77.673 167.031 77.673C166.667 77.673 166.312 77.5578 166.018 77.3438L163.795 75.7289C163.637 75.6135 163.446 75.5513 163.25 75.5513C163.054 75.5513 162.864 75.6135 162.706 75.7289L160.483 77.3438C160.189 77.5603 159.834 77.6778 159.47 77.6792ZM163.25 74.7537C163.614 74.7538 163.969 74.8693 164.263 75.0838L166.486 76.6988C166.644 76.8138 166.835 76.8758 167.031 76.8758C167.226 76.8759 167.417 76.8139 167.575 76.6989C167.734 76.5839 167.851 76.4218 167.912 76.2357C167.972 76.0496 167.972 75.8491 167.912 75.6631L167.063 73.05C166.95 72.7038 166.949 72.3307 167.062 71.9843C167.174 71.6379 167.394 71.3363 167.689 71.1228L169.912 69.5076C170.07 69.3926 170.188 69.2305 170.248 69.0444C170.309 68.8583 170.309 68.6579 170.248 68.4719C170.188 68.2858 170.07 68.1236 169.912 68.0087C169.754 67.8937 169.563 67.8317 169.367 67.8317H166.62C166.255 67.8324 165.901 67.7174 165.606 67.5034C165.311 67.2893 165.092 66.9872 164.98 66.6407L164.131 64.0276C164.071 63.8415 163.953 63.6793 163.795 63.5643C163.636 63.4493 163.446 63.3874 163.25 63.3874C163.054 63.3874 162.864 63.4493 162.706 63.5643C162.547 63.6793 162.429 63.8415 162.369 64.0276L161.52 66.6407C161.408 66.9872 161.189 67.2893 160.894 67.5034C160.6 67.7174 160.245 67.8324 159.881 67.8317H157.133C156.937 67.8317 156.747 67.8936 156.588 68.0086C156.43 68.1236 156.312 68.2858 156.252 68.4718C156.191 68.6579 156.191 68.8583 156.252 69.0444C156.312 69.2305 156.43 69.3926 156.588 69.5076L158.811 71.1228C159.106 71.3363 159.326 71.638 159.438 71.9843C159.551 72.3307 159.551 72.7038 159.438 73.05L158.588 75.6631C158.528 75.8491 158.528 76.0496 158.588 76.2356C158.649 76.4217 158.767 76.5839 158.925 76.6988C159.083 76.8138 159.274 76.8758 159.469 76.8757C159.665 76.8757 159.856 76.8138 160.014 76.6988L162.237 75.0838C162.531 74.8693 162.886 74.7538 163.25 74.7537Z" fill="#3F3D56"/>
<path d="M136.747 77.6152C136.383 77.6137 136.028 77.4964 135.734 77.28C135.437 77.0687 135.215 76.7672 135.102 76.42C134.989 76.0728 134.991 75.6986 135.108 75.3527L135.957 72.7395C136.018 72.5535 136.018 72.353 135.958 72.1669C135.897 71.9807 135.779 71.8186 135.621 71.7038L133.398 70.0887C133.103 69.8747 132.884 69.573 132.771 69.2268C132.659 68.8806 132.659 68.5077 132.772 68.1615C132.884 67.8153 133.103 67.5136 133.398 67.2996C133.692 67.0857 134.047 66.9704 134.411 66.9705H137.159C137.354 66.9708 137.545 66.909 137.703 66.794C137.862 66.6789 137.98 66.5165 138.04 66.3303L138.889 63.7172C139.001 63.371 139.221 63.0693 139.515 62.8553C139.81 62.6414 140.164 62.5261 140.528 62.5261C140.892 62.5261 141.247 62.6414 141.541 62.8553C141.836 63.0693 142.055 63.371 142.168 63.7172L143.017 66.3303C143.077 66.5165 143.194 66.6789 143.353 66.7939C143.511 66.909 143.702 66.9708 143.898 66.9705H146.645C147.009 66.9705 147.364 67.0857 147.658 67.2997C147.953 67.5136 148.172 67.8153 148.285 68.1615C148.397 68.5077 148.397 68.8806 148.285 69.2268C148.172 69.573 147.953 69.8747 147.659 70.0887L145.436 71.7038C145.277 71.8186 145.159 71.9807 145.098 72.1668C145.038 72.353 145.038 72.5535 145.099 72.7396L145.948 75.3527C146.061 75.6989 146.061 76.0718 145.948 76.418C145.836 76.7642 145.616 77.0659 145.322 77.2798C145.027 77.4938 144.673 77.609 144.309 77.609C143.945 77.609 143.59 77.4938 143.296 77.2798L141.073 75.6649C140.915 75.5495 140.724 75.4874 140.528 75.4874C140.332 75.4874 140.142 75.5495 139.984 75.6649L137.761 77.2798C137.467 77.4963 137.112 77.6138 136.747 77.6152ZM140.528 74.6897C140.892 74.6898 141.247 74.8053 141.541 75.0198L143.764 76.6348C143.922 76.7498 144.113 76.8118 144.309 76.8119C144.504 76.8119 144.695 76.75 144.853 76.635C145.012 76.52 145.129 76.3578 145.19 76.1717C145.25 75.9856 145.25 75.7852 145.19 75.5991L144.341 72.986C144.228 72.6398 144.227 72.2667 144.34 71.9203C144.452 71.574 144.672 71.2723 144.967 71.0588L147.19 69.4436C147.348 69.3286 147.466 69.1665 147.526 68.9804C147.587 68.7944 147.587 68.5939 147.526 68.4079C147.466 68.2218 147.348 68.0597 147.19 67.9447C147.032 67.8297 146.841 67.7677 146.645 67.7677H143.898C143.533 67.7684 143.178 67.6534 142.884 67.4394C142.589 67.2253 142.37 66.9233 142.258 66.5767L141.409 63.9636C141.349 63.7775 141.231 63.6153 141.073 63.5003C140.914 63.3853 140.724 63.3234 140.528 63.3234C140.332 63.3234 140.142 63.3853 139.983 63.5003C139.825 63.6153 139.707 63.7775 139.647 63.9636L138.798 66.5767C138.686 66.9232 138.467 67.2253 138.172 67.4394C137.878 67.6534 137.523 67.7684 137.159 67.7677H134.411C134.215 67.7677 134.025 67.8297 133.866 67.9446C133.708 68.0596 133.59 68.2218 133.53 68.4078C133.469 68.5939 133.469 68.7943 133.53 68.9804C133.59 69.1665 133.708 69.3286 133.866 69.4436L136.089 71.0588C136.384 71.2723 136.604 71.574 136.716 71.9204C136.829 72.2667 136.829 72.6398 136.716 72.986L135.866 75.5991C135.806 75.7852 135.806 75.9856 135.866 76.1716C135.927 76.3577 136.045 76.5199 136.203 76.6349C136.361 76.7498 136.552 76.8118 136.747 76.8118C136.943 76.8117 137.134 76.7498 137.292 76.6348L139.515 75.0198C139.809 74.8054 140.164 74.6898 140.528 74.6897Z" fill="#3F3D56"/>
<path d="M21.9249 11.959C21.2376 11.959 20.5786 12.232 20.0927 12.7179C19.6067 13.2038 19.3337 13.8629 19.3337 14.5501C19.3337 15.2373 19.6067 15.8964 20.0927 16.3823C20.5786 16.8682 21.2376 17.1412 21.9249 17.1412H153.075C153.762 17.1412 154.421 16.8682 154.907 16.3823C155.393 15.8964 155.666 15.2373 155.666 14.5501C155.666 13.8629 155.393 13.2038 154.907 12.7179C154.421 12.232 153.762 11.959 153.075 11.959H21.9249Z" fill="#CCCCCC"/>
<path d="M21.9249 25.5125C21.2376 25.5125 20.5786 25.7854 20.0927 26.2714C19.6067 26.7573 19.3337 27.4164 19.3337 28.1036C19.3337 28.7908 19.6067 29.4498 20.0927 29.9358C20.5786 30.4217 21.2376 30.6947 21.9249 30.6947H153.075C153.762 30.6947 154.421 30.4217 154.907 29.9358C155.393 29.4498 155.666 28.7908 155.666 28.1036C155.666 27.4164 155.393 26.7573 154.907 26.2714C154.421 25.7854 153.762 25.5125 153.075 25.5125H21.9249Z" fill="#CCCCCC"/>
<path d="M21.9249 39.0662C21.2376 39.0662 20.5786 39.3392 20.0927 39.8251C19.6067 40.311 19.3337 40.9701 19.3337 41.6573C19.3337 42.3445 19.6067 43.0035 20.0927 43.4895C20.5786 43.9754 21.2376 44.2484 21.9249 44.2484H153.075C153.762 44.2484 154.421 43.9754 154.907 43.4895C155.393 43.0035 155.666 42.3445 155.666 41.6573C155.666 40.9701 155.393 40.311 154.907 39.8251C154.421 39.3392 153.762 39.0662 153.075 39.0662H21.9249Z" fill="#CCCCCC"/>
<path d="M21.9249 11.959C21.2376 11.959 20.5786 12.232 20.0927 12.7179C19.6067 13.2038 19.3337 13.8629 19.3337 14.5501C19.3337 15.2373 19.6067 15.8964 20.0927 16.3823C20.5786 16.8682 21.2376 17.1412 21.9249 17.1412H153.075C153.762 17.1412 154.421 16.8682 154.907 16.3823C155.393 15.8964 155.666 15.2373 155.666 14.5501C155.666 13.8629 155.393 13.2038 154.907 12.7179C154.421 12.232 153.762 11.959 153.075 11.959H21.9249Z" fill="#CCCCCC"/>
<path d="M21.9249 25.5125C21.2376 25.5125 20.5786 25.7854 20.0927 26.2714C19.6067 26.7573 19.3337 27.4164 19.3337 28.1036C19.3337 28.7908 19.6067 29.4498 20.0927 29.9358C20.5786 30.4217 21.2376 30.6947 21.9249 30.6947H153.075C153.762 30.6947 154.421 30.4217 154.907 29.9358C155.393 29.4498 155.666 28.7908 155.666 28.1036C155.666 27.4164 155.393 26.7573 154.907 26.2714C154.421 25.7854 153.762 25.5125 153.075 25.5125H21.9249Z" fill="#CCCCCC"/>
<path d="M21.9249 39.0662C21.2376 39.0662 20.5786 39.3392 20.0927 39.8251C19.6067 40.311 19.3337 40.9701 19.3337 41.6573C19.3337 42.3445 19.6067 43.0035 20.0927 43.4895C20.5786 43.9754 21.2376 44.2484 21.9249 44.2484H153.075C153.762 44.2484 154.421 43.9754 154.907 43.4895C155.393 43.0035 155.666 42.3445 155.666 41.6573C155.666 40.9701 155.393 40.311 154.907 39.8251C154.421 39.3392 153.762 39.0662 153.075 39.0662H21.9249Z" fill="#CCCCCC"/>
</svg>
