<svg width="442" height="451" viewBox="0 0 442 451" fill="none" xmlns="http://www.w3.org/2000/svg">
<path d="M298.297 235.147C298.827 234.989 299.369 234.873 299.917 234.8L321.816 190.303L315.13 180.281L328.938 168.214L346.295 189.454L310.945 240.902C311.814 242.848 312.071 245.012 311.681 247.107C311.29 249.202 310.271 251.129 308.759 252.631C307.247 254.133 305.314 255.139 303.216 255.516C301.118 255.892 298.955 255.621 297.015 254.738C295.075 253.855 293.45 252.403 292.356 250.574C291.262 248.745 290.75 246.627 290.889 244.5C291.028 242.373 291.811 240.339 293.135 238.668C294.458 236.997 296.258 235.769 298.297 235.147V235.147Z" fill="#A0616A"/>
<path d="M335.679 174.361C335.381 174.676 335.038 174.945 334.663 175.162L312.257 188.151C311.719 188.463 311.121 188.66 310.503 188.73C309.884 188.799 309.258 188.74 308.663 188.555C308.069 188.37 307.52 188.064 307.05 187.655C306.58 187.247 306.2 186.746 305.933 186.183L295.036 163.161C294.572 162.192 294.473 161.088 294.755 160.052C295.037 159.016 295.682 158.115 296.573 157.516L310.462 148.067C311.33 147.478 312.375 147.21 313.419 147.309C314.463 147.408 315.44 147.869 316.18 148.611L335.594 168.093C336.419 168.922 336.89 170.04 336.906 171.21C336.922 172.38 336.482 173.51 335.679 174.361H335.679Z" fill="#CCCCCC"/>
<path d="M367.139 429.332L355.309 432.551L337.264 388.454L354.724 383.703L367.139 429.332Z" fill="#A0616A"/>
<path d="M345.94 431.47L368.754 425.263L372.662 439.628L335.483 449.743C334.97 447.857 334.833 445.888 335.081 443.949C335.329 442.009 335.956 440.138 336.927 438.441C337.898 436.744 339.194 435.255 340.74 434.059C342.286 432.863 344.053 431.984 345.94 431.47Z" fill="#2F2E41"/>
<path d="M266.008 438.359L253.749 438.358L247.916 391.07L266.01 391.071L266.008 438.359Z" fill="#A0616A"/>
<path d="M244.992 434.856H268.635V449.742H230.105C230.105 447.787 230.49 445.852 231.238 444.045C231.986 442.239 233.083 440.598 234.465 439.216C235.847 437.834 237.488 436.737 239.295 435.989C241.101 435.241 243.037 434.856 244.992 434.856Z" fill="#2F2E41"/>
<path d="M278.925 132.37C292.49 132.37 303.486 121.373 303.486 107.809C303.486 94.2438 292.49 83.2475 278.925 83.2475C265.361 83.2475 254.364 94.2438 254.364 107.809C254.364 121.373 265.361 132.37 278.925 132.37Z" fill="#A0616A"/>
<path d="M265.258 404.643H248.504C247.359 404.641 246.257 404.204 245.422 403.42C244.588 402.636 244.082 401.563 244.009 400.421C239.016 321.059 241.937 264.131 253.198 221.267C253.248 221.08 253.308 220.895 253.381 220.715L254.278 218.472C254.609 217.635 255.185 216.918 255.931 216.413C256.676 215.909 257.556 215.64 258.456 215.643H292.908C293.557 215.643 294.199 215.783 294.789 216.054C295.379 216.325 295.903 216.721 296.325 217.215L301.004 222.674C301.096 222.781 301.181 222.889 301.263 223.004C322.364 252.429 341.275 309.958 363.176 387.282C363.499 388.406 363.371 389.611 362.818 390.642C362.265 391.672 361.332 392.446 360.217 392.799L342.212 398.56C341.179 398.886 340.063 398.829 339.067 398.401C338.071 397.973 337.262 397.202 336.787 396.228L290.065 299.321C289.738 298.644 289.202 298.09 288.536 297.741C287.87 297.392 287.109 297.267 286.366 297.384C285.623 297.502 284.938 297.855 284.412 298.392C283.886 298.93 283.546 299.622 283.444 300.367L269.716 400.753C269.566 401.829 269.032 402.815 268.213 403.53C267.394 404.244 266.345 404.64 265.258 404.643Z" fill="#2F2E41"/>
<path d="M299.116 223.074C299.069 223.074 299.022 223.073 298.974 223.072L257.126 221.751C256.05 221.72 255.021 221.305 254.226 220.579C253.432 219.853 252.924 218.865 252.797 217.796C247.492 174.855 262.041 163.351 268.543 160.399C269.086 160.154 269.557 159.772 269.91 159.292C270.262 158.811 270.484 158.248 270.555 157.656L271.118 153.155C271.214 152.36 271.521 151.605 272.007 150.969C282.2 137.764 296.12 133.536 303.509 132.191C304.109 132.083 304.724 132.098 305.317 132.236C305.91 132.373 306.47 132.629 306.961 132.99C307.452 133.35 307.865 133.806 308.174 134.33C308.484 134.855 308.683 135.437 308.761 136.041L309.603 142.503C309.689 143.12 309.935 143.703 310.317 144.195C331.576 171.987 307.892 213.022 302.929 220.965C302.523 221.61 301.961 222.142 301.294 222.511C300.627 222.88 299.878 223.073 299.116 223.074Z" fill="#CCCCCC"/>
<path d="M328.479 110.574C322.999 102.859 316.429 95.9801 308.973 90.1532C302.775 85.3117 295.876 81.1755 288.264 79.1969C280.651 77.2183 272.245 77.5551 265.3 81.2461C258.355 84.9371 251.175 92.2706 251.131 100.135C251.117 102.662 251.76 106.08 254.248 105.643L254.968 105.739C260.97 104.526 266.973 103.314 272.975 102.102C275.531 110.974 278.088 119.846 280.644 128.717C281.183 130.587 281.906 132.678 283.681 133.476C285.353 134.227 287.285 133.519 288.977 132.813C289.255 132.697 291.645 127.331 291.645 127.331C291.705 127.164 291.808 127.015 291.945 126.901C292.082 126.786 292.246 126.711 292.422 126.681C292.597 126.652 292.778 126.67 292.944 126.733C293.11 126.797 293.256 126.904 293.368 127.043L294.788 128.818C295.059 129.157 295.433 129.398 295.854 129.506C296.275 129.613 296.719 129.581 297.12 129.414C306.908 125.327 316.697 121.241 326.485 117.155C327.838 116.59 329.35 115.853 329.742 114.44C330.118 113.087 329.291 111.719 328.479 110.574Z" fill="#2F2E41"/>
<path d="M441 450.643H140C139.735 450.643 139.48 450.538 139.293 450.35C139.105 450.163 139 449.908 139 449.643C139 449.378 139.105 449.124 139.293 448.936C139.48 448.749 139.735 448.643 140 448.643H441C441.265 448.643 441.52 448.749 441.707 448.936C441.895 449.124 442 449.378 442 449.643C442 449.908 441.895 450.163 441.707 450.35C441.52 450.538 441.265 450.643 441 450.643Z" fill="#3F3D56"/>
<path d="M277.817 294.807C277.137 294.805 276.475 294.585 275.928 294.182L271.376 290.875C270.998 290.599 270.543 290.45 270.075 290.45C269.607 290.45 269.152 290.599 268.774 290.875L264.222 294.182C263.673 294.581 263.012 294.795 262.333 294.795C261.655 294.795 260.994 294.581 260.445 294.182C259.896 293.783 259.487 293.221 259.277 292.575C259.067 291.93 259.067 291.235 259.277 290.589L261.016 285.238C261.161 284.794 261.162 284.315 261.017 283.87C260.873 283.425 260.59 283.038 260.212 282.764L255.66 279.456C255.111 279.057 254.702 278.495 254.492 277.849C254.283 277.204 254.283 276.509 254.492 275.864C254.702 275.218 255.111 274.656 255.66 274.257C256.209 273.858 256.87 273.643 257.548 273.643H263.175C263.643 273.644 264.098 273.496 264.477 273.222C264.855 272.947 265.136 272.559 265.28 272.114L267.019 266.763C267.228 266.117 267.637 265.555 268.186 265.156C268.735 264.757 269.396 264.542 270.075 264.542C270.753 264.542 271.415 264.757 271.964 265.156C272.513 265.555 272.921 266.117 273.131 266.763L274.87 272.114C275.013 272.559 275.295 272.947 275.673 273.222C276.051 273.496 276.507 273.644 276.975 273.643H282.601C283.28 273.643 283.941 273.858 284.49 274.257C285.039 274.656 285.448 275.218 285.657 275.864C285.867 276.509 285.867 277.204 285.657 277.849C285.448 278.495 285.039 279.057 284.49 279.456L279.938 282.763C279.559 283.038 279.277 283.425 279.133 283.87C278.988 284.315 278.989 284.794 279.134 285.238L280.873 290.589C281.09 291.234 281.094 291.932 280.884 292.579C280.673 293.226 280.26 293.788 279.705 294.182C279.158 294.585 278.497 294.804 277.817 294.807Z" fill="#9FC8FE"/>
<path d="M295.212 284.109C296.498 283.207 297.571 282.035 298.354 280.674C299.138 279.313 299.613 277.796 299.747 276.231C299.881 274.667 299.671 273.091 299.13 271.617C298.59 270.142 297.732 268.804 296.619 267.697L304.392 173.825L281.248 177.009L280.808 268.214C279.071 270.208 278.127 272.77 278.153 275.414C278.179 278.058 279.174 280.6 280.95 282.56C282.725 284.519 285.158 285.759 287.787 286.045C290.415 286.33 293.057 285.642 295.212 284.109Z" fill="#A0616A"/>
<path d="M305.905 187.342C305.471 187.342 305.04 187.28 304.624 187.157L279.778 179.849C279.181 179.674 278.626 179.376 278.15 178.975C277.674 178.575 277.286 178.079 277.011 177.521C276.736 176.962 276.58 176.353 276.552 175.731C276.525 175.109 276.626 174.488 276.851 173.908L286.046 150.154C286.43 149.151 287.161 148.319 288.107 147.81C289.053 147.301 290.15 147.149 291.199 147.382L307.613 150.951C308.638 151.174 309.553 151.748 310.199 152.573C310.846 153.399 311.184 154.424 311.156 155.472L310.392 182.964C310.359 184.134 309.873 185.245 309.035 186.062C308.197 186.88 307.075 187.339 305.904 187.342H305.905Z" fill="#CCCCCC"/>
<path d="M172.21 155.866H2.79043C2.05062 155.865 1.34134 155.57 0.818215 155.047C0.295087 154.524 0.000830362 153.815 0 153.075V102.449C0.000830362 101.709 0.295087 101 0.818215 100.477C1.34134 99.9534 2.05062 99.6591 2.79043 99.6583H172.21C172.949 99.6591 173.659 99.9534 174.182 100.477C174.705 101 174.999 101.709 175 102.449V153.075C174.999 153.815 174.705 154.524 174.182 155.047C173.659 155.57 172.949 155.865 172.21 155.866V155.866ZM2.79043 100.456C2.262 100.456 1.75539 100.666 1.38173 101.04C1.00807 101.414 0.797878 101.92 0.797266 102.449V153.075C0.797878 153.604 1.00807 154.11 1.38173 154.484C1.75539 154.857 2.262 155.068 2.79043 155.068H172.21C172.738 155.068 173.245 154.858 173.618 154.484C173.992 154.11 174.202 153.604 174.203 153.075V102.449C174.202 101.92 173.992 101.414 173.618 101.04C173.245 100.666 172.738 100.456 172.21 100.456H2.79043Z" fill="#3F3D56"/>
<path d="M76.9263 177.183C76.5942 177.181 76.2711 177.074 76.0038 176.877L73.7809 175.262C73.5965 175.127 73.374 175.055 73.1456 175.055C72.9172 175.055 72.6947 175.127 72.5103 175.262L70.2874 176.877C70.0193 177.072 69.6964 177.177 69.365 177.177C69.0336 177.177 68.7108 177.072 68.4427 176.877C68.1746 176.682 67.975 176.408 67.8726 176.093C67.7701 175.777 67.7701 175.438 67.8724 175.123L68.7216 172.51C68.7926 172.293 68.7928 172.059 68.7222 171.841C68.6517 171.624 68.514 171.435 68.329 171.301L66.106 169.686C65.8379 169.491 65.6383 169.216 65.5359 168.901C65.4335 168.586 65.4335 168.247 65.5359 167.931C65.6383 167.616 65.8379 167.342 66.106 167.147C66.3741 166.952 66.6969 166.847 67.0283 166.847H69.7761C70.0045 166.848 70.227 166.775 70.4118 166.641C70.5965 166.507 70.7339 166.318 70.8041 166.1L71.6531 163.487C71.7555 163.172 71.955 162.897 72.2231 162.702C72.4913 162.508 72.8142 162.403 73.1456 162.403C73.477 162.403 73.7999 162.508 74.068 162.702C74.3362 162.897 74.5357 163.172 74.6381 163.487L75.4871 166.1C75.5573 166.318 75.6946 166.507 75.8794 166.641C76.0641 166.775 76.2867 166.848 76.5151 166.847H79.2628C79.5942 166.847 79.9171 166.952 80.1852 167.147C80.4533 167.342 80.6528 167.616 80.7552 167.932C80.8576 168.247 80.8576 168.586 80.7552 168.901C80.6528 169.216 80.4533 169.491 80.1852 169.686L77.9622 171.301C77.7772 171.435 77.6395 171.624 77.569 171.841C77.4984 172.059 77.4986 172.293 77.5696 172.51L78.4187 175.123C78.5249 175.438 78.5267 175.778 78.424 176.094C78.3213 176.41 78.1196 176.685 77.8486 176.877C77.5814 177.074 77.2583 177.181 76.9263 177.183V177.183Z" fill="#9FC8FE"/>
<path d="M99.4524 177.183C99.1203 177.181 98.7973 177.074 98.53 176.877L96.307 175.262C96.1226 175.127 95.9001 175.055 95.6718 175.055C95.4434 175.055 95.2209 175.127 95.0365 175.262L92.8135 176.877C92.5454 177.072 92.2226 177.177 91.8912 177.177C91.5598 177.177 91.2369 177.072 90.9688 176.877C90.7007 176.682 90.5011 176.408 90.3987 176.093C90.2963 175.777 90.2962 175.438 90.3986 175.123L91.2477 172.51C91.3187 172.293 91.3189 172.059 91.2484 171.841C91.1778 171.624 91.0401 171.435 90.8551 171.301L88.6322 169.686C88.3641 169.491 88.1645 169.216 88.0622 168.901C87.9598 168.586 87.9598 168.247 88.0622 167.931C88.1646 167.616 88.3642 167.342 88.6323 167.147C88.9003 166.952 89.2232 166.847 89.5546 166.847H92.3023C92.5306 166.848 92.7532 166.775 92.9379 166.641C93.1227 166.507 93.26 166.318 93.3302 166.1L94.1793 163.487C94.2817 163.172 94.4812 162.897 94.7494 162.702C95.0175 162.508 95.3404 162.403 95.6718 162.403C96.0032 162.403 96.3261 162.508 96.5942 162.702C96.8623 162.897 97.0619 163.172 97.1642 163.487L98.0132 166.1C98.0834 166.318 98.2208 166.507 98.4056 166.641C98.5904 166.775 98.813 166.848 99.0413 166.847H101.789C102.12 166.847 102.443 166.952 102.711 167.147C102.979 167.342 103.179 167.616 103.281 167.931C103.384 168.247 103.384 168.586 103.281 168.901C103.179 169.216 102.979 169.491 102.711 169.686L100.488 171.301C100.303 171.435 100.166 171.624 100.095 171.841C100.025 172.059 100.025 172.293 100.096 172.51L100.945 175.123C101.051 175.438 101.053 175.778 100.95 176.094C100.847 176.41 100.646 176.685 100.375 176.877C100.108 177.074 99.7845 177.181 99.4524 177.183V177.183Z" fill="#9FC8FE"/>
<path d="M121.979 177.183C121.646 177.181 121.323 177.074 121.056 176.877L118.833 175.262C118.649 175.128 118.426 175.055 118.198 175.055C117.97 175.055 117.747 175.128 117.563 175.262L115.34 176.877C115.072 177.072 114.749 177.177 114.417 177.177C114.086 177.177 113.763 177.072 113.495 176.877C113.227 176.682 113.027 176.408 112.925 176.093C112.822 175.777 112.822 175.438 112.925 175.123L113.774 172.51C113.845 172.293 113.845 172.059 113.774 171.841C113.704 171.624 113.566 171.435 113.381 171.301L111.158 169.686C110.89 169.491 110.691 169.216 110.588 168.901C110.486 168.586 110.486 168.247 110.588 167.931C110.691 167.616 110.89 167.342 111.158 167.147C111.426 166.952 111.749 166.847 112.081 166.847H114.828C115.057 166.848 115.279 166.775 115.464 166.641C115.649 166.507 115.786 166.318 115.856 166.1L116.705 163.487C116.808 163.172 117.007 162.897 117.275 162.702C117.544 162.508 117.867 162.403 118.198 162.403C118.529 162.403 118.852 162.508 119.12 162.702C119.388 162.897 119.588 163.172 119.69 163.487L120.539 166.1C120.61 166.318 120.747 166.507 120.932 166.641C121.117 166.775 121.339 166.848 121.567 166.847H124.315C124.646 166.847 124.969 166.952 125.237 167.147C125.506 167.342 125.705 167.616 125.808 167.931C125.91 168.247 125.91 168.586 125.808 168.901C125.705 169.216 125.506 169.491 125.238 169.686L123.015 171.301C122.83 171.435 122.692 171.624 122.621 171.841C122.551 172.059 122.551 172.293 122.622 172.51L123.471 175.123C123.577 175.438 123.579 175.778 123.476 176.094C123.374 176.41 123.172 176.685 122.901 176.877C122.634 177.074 122.311 177.181 121.979 177.183V177.183Z" fill="#9FC8FE"/>
<path d="M144.505 177.183C144.173 177.181 143.85 177.074 143.582 176.877L141.359 175.262C141.175 175.127 140.952 175.055 140.724 175.055C140.496 175.055 140.273 175.127 140.089 175.262L137.866 176.877C137.598 177.072 137.275 177.177 136.944 177.177C136.612 177.177 136.289 177.072 136.021 176.877C135.753 176.682 135.553 176.408 135.451 176.093C135.349 175.777 135.349 175.438 135.451 175.123L136.3 172.51C136.371 172.293 136.371 172.059 136.301 171.841C136.23 171.624 136.092 171.435 135.907 171.301L133.684 169.686C133.416 169.491 133.217 169.216 133.114 168.901C133.012 168.586 133.012 168.247 133.114 167.931C133.217 167.616 133.416 167.342 133.684 167.147C133.953 166.952 134.275 166.847 134.607 166.847H137.354C137.583 166.848 137.805 166.775 137.99 166.641C138.175 166.507 138.312 166.318 138.383 166.1L139.232 163.487C139.334 163.172 139.533 162.897 139.802 162.702C140.07 162.508 140.393 162.403 140.724 162.403C141.055 162.403 141.378 162.508 141.646 162.702C141.915 162.897 142.114 163.172 142.216 163.487L143.066 166.1C143.136 166.318 143.273 166.507 143.458 166.641C143.643 166.775 143.865 166.848 144.094 166.847H146.841C147.173 166.847 147.495 166.952 147.764 167.147C148.032 167.342 148.231 167.616 148.334 167.931C148.436 168.247 148.436 168.586 148.334 168.901C148.231 169.216 148.032 169.491 147.764 169.686L145.541 171.301C145.356 171.435 145.218 171.624 145.147 171.841C145.077 172.059 145.077 172.293 145.148 172.51L145.997 175.123C146.103 175.438 146.105 175.778 146.003 176.094C145.9 176.41 145.698 176.685 145.427 176.877C145.16 177.074 144.837 177.181 144.505 177.183V177.183Z" fill="#9FC8FE"/>
<path d="M159.47 177.337C159.105 177.336 158.75 177.219 158.457 177.002C158.159 176.791 157.937 176.489 157.824 176.142C157.712 175.795 157.714 175.421 157.83 175.075L158.679 172.462C158.74 172.276 158.74 172.075 158.68 171.889C158.619 171.703 158.501 171.541 158.343 171.426L156.12 169.811C155.825 169.597 155.606 169.295 155.494 168.949C155.381 168.603 155.381 168.23 155.494 167.884C155.606 167.537 155.825 167.236 156.12 167.022C156.414 166.808 156.769 166.693 157.133 166.693H159.881C160.076 166.693 160.267 166.631 160.426 166.516C160.584 166.401 160.702 166.239 160.762 166.052L161.611 163.439C161.723 163.093 161.943 162.792 162.237 162.578C162.532 162.364 162.886 162.248 163.25 162.248C163.614 162.248 163.969 162.364 164.263 162.578C164.558 162.792 164.777 163.093 164.89 163.439L165.739 166.052C165.799 166.239 165.917 166.401 166.075 166.516C166.233 166.631 166.424 166.693 166.62 166.693H169.367C169.731 166.693 170.086 166.808 170.381 167.022C170.675 167.236 170.894 167.538 171.007 167.884C171.119 168.23 171.119 168.603 171.007 168.949C170.894 169.295 170.675 169.597 170.381 169.811L168.158 171.426C167.999 171.541 167.881 171.703 167.821 171.889C167.76 172.075 167.76 172.276 167.821 172.462L168.67 175.075C168.783 175.421 168.783 175.794 168.67 176.14C168.558 176.486 168.338 176.788 168.044 177.002C167.75 177.216 167.395 177.331 167.031 177.331C166.667 177.331 166.312 177.216 166.018 177.002L163.795 175.387C163.637 175.272 163.446 175.21 163.25 175.21C163.054 175.21 162.864 175.272 162.706 175.387L160.483 177.002C160.189 177.219 159.834 177.336 159.47 177.337V177.337ZM163.25 174.412C163.614 174.412 163.969 174.528 164.263 174.742L166.486 176.357C166.644 176.472 166.835 176.534 167.031 176.534C167.226 176.534 167.417 176.472 167.575 176.357C167.734 176.242 167.852 176.08 167.912 175.894C167.972 175.708 167.972 175.507 167.912 175.321L167.063 172.708C166.95 172.362 166.949 171.989 167.062 171.643C167.174 171.296 167.394 170.995 167.689 170.781L169.912 169.166C170.07 169.051 170.188 168.889 170.248 168.703C170.309 168.517 170.309 168.316 170.248 168.13C170.188 167.944 170.07 167.782 169.912 167.667C169.754 167.552 169.563 167.49 169.367 167.49H166.62C166.256 167.491 165.901 167.376 165.606 167.162C165.311 166.948 165.092 166.645 164.98 166.299L164.131 163.686C164.071 163.5 163.953 163.338 163.795 163.223C163.636 163.108 163.446 163.046 163.25 163.046C163.055 163.046 162.864 163.108 162.706 163.223C162.547 163.338 162.43 163.5 162.369 163.686L161.52 166.299C161.408 166.645 161.189 166.948 160.894 167.162C160.6 167.376 160.245 167.491 159.881 167.49H157.133C156.937 167.49 156.747 167.552 156.588 167.667C156.43 167.782 156.312 167.944 156.252 168.13C156.191 168.316 156.191 168.517 156.252 168.703C156.312 168.889 156.43 169.051 156.588 169.166L158.811 170.781C159.106 170.995 159.326 171.296 159.439 171.643C159.551 171.989 159.551 172.362 159.438 172.708L158.588 175.321C158.528 175.507 158.528 175.708 158.588 175.894C158.649 176.08 158.767 176.242 158.925 176.357C159.083 176.472 159.274 176.534 159.47 176.534C159.665 176.534 159.856 176.472 160.014 176.357L162.237 174.742C162.531 174.528 162.886 174.412 163.25 174.412V174.412Z" fill="#3F3D56"/>
<path d="M21.9248 111.617C21.2376 111.617 20.5786 111.89 20.0926 112.376C19.6067 112.862 19.3337 113.521 19.3337 114.208C19.3337 114.896 19.6067 115.555 20.0926 116.041C20.5786 116.527 21.2376 116.8 21.9248 116.8H153.075C153.762 116.8 154.421 116.527 154.907 116.041C155.393 115.555 155.666 114.896 155.666 114.208C155.666 113.521 155.393 112.862 154.907 112.376C154.421 111.89 153.762 111.617 153.075 111.617H21.9248Z" fill="#CCCCCC"/>
<path d="M21.9248 125.171C21.2376 125.171 20.5786 125.444 20.0926 125.93C19.6067 126.416 19.3337 127.075 19.3337 127.762C19.3337 128.449 19.6067 129.108 20.0926 129.594C20.5786 130.08 21.2376 130.353 21.9248 130.353H153.075C153.762 130.353 154.421 130.08 154.907 129.594C155.393 129.108 155.666 128.449 155.666 127.762C155.666 127.075 155.393 126.416 154.907 125.93C154.421 125.444 153.762 125.171 153.075 125.171H21.9248Z" fill="#CCCCCC"/>
<path d="M21.9248 138.724C21.2376 138.724 20.5786 138.997 20.0926 139.483C19.6067 139.969 19.3337 140.628 19.3337 141.315C19.3337 142.003 19.6067 142.662 20.0926 143.148C20.5786 143.634 21.2376 143.907 21.9248 143.907H153.075C153.762 143.907 154.421 143.634 154.907 143.148C155.393 142.662 155.666 142.003 155.666 141.315C155.666 140.628 155.393 139.969 154.907 139.483C154.421 138.997 153.762 138.724 153.075 138.724H21.9248Z" fill="#CCCCCC"/>
<path d="M21.9248 111.617C21.2376 111.617 20.5786 111.89 20.0926 112.376C19.6067 112.862 19.3337 113.521 19.3337 114.208C19.3337 114.896 19.6067 115.555 20.0926 116.041C20.5786 116.527 21.2376 116.8 21.9248 116.8H153.075C153.762 116.8 154.421 116.527 154.907 116.041C155.393 115.555 155.666 114.896 155.666 114.208C155.666 113.521 155.393 112.862 154.907 112.376C154.421 111.89 153.762 111.617 153.075 111.617H21.9248Z" fill="#CCCCCC"/>
<path d="M21.9248 125.171C21.2376 125.171 20.5786 125.444 20.0926 125.93C19.6067 126.416 19.3337 127.075 19.3337 127.762C19.3337 128.449 19.6067 129.108 20.0926 129.594C20.5786 130.08 21.2376 130.353 21.9248 130.353H153.075C153.762 130.353 154.421 130.08 154.907 129.594C155.393 129.108 155.666 128.449 155.666 127.762C155.666 127.075 155.393 126.416 154.907 125.93C154.421 125.444 153.762 125.171 153.075 125.171H21.9248Z" fill="#CCCCCC"/>
<path d="M21.9248 138.724C21.2376 138.724 20.5786 138.997 20.0926 139.483C19.6067 139.969 19.3337 140.628 19.3337 141.315C19.3337 142.003 19.6067 142.662 20.0926 143.148C20.5786 143.634 21.2376 143.907 21.9248 143.907H153.075C153.762 143.907 154.421 143.634 154.907 143.148C155.393 142.662 155.666 142.003 155.666 141.315C155.666 140.628 155.393 139.969 154.907 139.483C154.421 138.997 153.762 138.724 153.075 138.724H21.9248Z" fill="#CCCCCC"/>
<path d="M172.21 56.2073H2.79043C2.05062 56.2064 1.34134 55.9122 0.818215 55.3891C0.295087 54.8659 0.000830362 54.1567 0 53.4168V2.79043C0.000830362 2.05062 0.295087 1.34134 0.818215 0.818215C1.34134 0.295087 2.05062 0.000830362 2.79043 0H172.21C172.949 0.000829309 173.659 0.295087 174.182 0.818215C174.705 1.34134 174.999 2.05062 175 2.79043V53.4168C174.999 54.1567 174.705 54.8659 174.182 55.3891C173.659 55.9122 172.949 56.2064 172.21 56.2073ZM2.79043 0.797266C2.262 0.797878 1.75539 1.00807 1.38173 1.38172C1.00807 1.75538 0.797878 2.262 0.797266 2.79043V53.4168C0.797878 53.9453 1.00807 54.4519 1.38173 54.8255C1.75539 55.1992 2.262 55.4094 2.79043 55.41H172.21C172.738 55.4094 173.245 55.1992 173.618 54.8256C173.992 54.4519 174.202 53.9453 174.203 53.4168V2.79043C174.202 2.262 173.992 1.75538 173.618 1.38172C173.245 1.00806 172.738 0.79787 172.21 0.797266H2.79043Z" fill="#3F3D56"/>
<path d="M76.9263 77.5243C76.5942 77.523 76.2711 77.416 76.0038 77.2188L73.7809 75.6038C73.5965 75.4691 73.374 75.3965 73.1456 75.3965C72.9172 75.3965 72.6947 75.4691 72.5103 75.6038L70.2874 77.2188C70.0193 77.4136 69.6964 77.5185 69.365 77.5185C69.0336 77.5186 68.7108 77.4137 68.4427 77.2189C68.1746 77.0242 67.975 76.7495 67.8726 76.4344C67.7701 76.1192 67.7701 75.7797 67.8724 75.4646L68.7216 72.8514C68.7926 72.6343 68.7928 72.4003 68.7222 72.1831C68.6517 71.9658 68.514 71.7766 68.329 71.6427L66.106 70.0277C65.8379 69.8329 65.6383 69.5582 65.5359 69.2431C65.4335 68.9279 65.4335 68.5884 65.5359 68.2732C65.6383 67.9581 65.8379 67.6834 66.106 67.4886C66.3741 67.2938 66.6969 67.1889 67.0283 67.1889H69.7761C70.0045 67.1893 70.227 67.1172 70.4118 66.983C70.5965 66.8488 70.7339 66.6594 70.8041 66.4421L71.6531 63.8289C71.7555 63.5137 71.955 63.239 72.2231 63.0442C72.4913 62.8494 72.8142 62.7444 73.1456 62.7444C73.477 62.7444 73.7999 62.8494 74.068 63.0442C74.3362 63.239 74.5357 63.5137 74.6381 63.8289L75.4871 66.4421C75.5573 66.6594 75.6946 66.8488 75.8794 66.983C76.0641 67.1172 76.2867 67.1893 76.5151 67.1889H79.2628C79.5942 67.1889 79.9171 67.2938 80.1852 67.4886C80.4533 67.6834 80.6528 67.9581 80.7552 68.2732C80.8576 68.5884 80.8576 68.9279 80.7552 69.2431C80.6528 69.5582 80.4533 69.8329 80.1852 70.0277L77.9622 71.6427C77.7772 71.7766 77.6395 71.9658 77.569 72.1831C77.4984 72.4003 77.4986 72.6343 77.5696 72.8514L78.4187 75.4646C78.5249 75.7794 78.5267 76.1201 78.424 76.4361C78.3213 76.7521 78.1196 77.0265 77.8486 77.2188C77.5814 77.416 77.2583 77.5229 76.9263 77.5243Z" fill="#9FC8FE"/>
<path d="M99.4524 77.5243C99.1203 77.523 98.7973 77.416 98.53 77.2188L96.307 75.6038C96.1226 75.4691 95.9001 75.3965 95.6718 75.3965C95.4434 75.3965 95.2209 75.4691 95.0365 75.6038L92.8135 77.2188C92.5454 77.4136 92.2226 77.5185 91.8912 77.5186C91.5598 77.5186 91.2369 77.4137 90.9688 77.2189C90.7007 77.0242 90.5011 76.7495 90.3987 76.4344C90.2963 76.1192 90.2962 75.7797 90.3986 75.4646L91.2477 72.8514C91.3187 72.6343 91.3189 72.4003 91.2484 72.1831C91.1778 71.9658 91.0401 71.7766 90.8551 71.6427L88.6322 70.0277C88.3641 69.8329 88.1645 69.5582 88.0622 69.243C87.9598 68.9279 87.9598 68.5884 88.0622 68.2732C88.1646 67.958 88.3642 67.6834 88.6323 67.4886C88.9003 67.2938 89.2232 67.1889 89.5546 67.1889H92.3023C92.5306 67.1893 92.7532 67.1172 92.9379 66.983C93.1227 66.8488 93.26 66.6594 93.3302 66.4421L94.1793 63.8289C94.2817 63.5137 94.4812 63.239 94.7494 63.0442C95.0175 62.8494 95.3404 62.7444 95.6718 62.7444C96.0032 62.7444 96.3261 62.8494 96.5942 63.0442C96.8623 63.239 97.0619 63.5137 97.1642 63.8289L98.0132 66.4421C98.0834 66.6594 98.2208 66.8488 98.4056 66.983C98.5904 67.1172 98.813 67.1893 99.0413 67.1889H101.789C102.12 67.1889 102.443 67.2938 102.711 67.4886C102.979 67.6834 103.179 67.958 103.281 68.2732C103.384 68.5884 103.384 68.9279 103.281 69.243C103.179 69.5582 102.979 69.8329 102.711 70.0277L100.488 71.6427C100.303 71.7766 100.166 71.9658 100.095 72.183C100.025 72.4003 100.025 72.6343 100.096 72.8514L100.945 75.4646C101.051 75.7794 101.053 76.1201 100.95 76.4361C100.847 76.7521 100.646 77.0265 100.375 77.2188C100.108 77.416 99.7845 77.5229 99.4524 77.5243V77.5243Z" fill="#9FC8FE"/>
<path d="M121.979 77.5243C121.646 77.5229 121.323 77.416 121.056 77.2188L118.833 75.6038C118.649 75.4695 118.426 75.3971 118.198 75.3971C117.97 75.3971 117.747 75.4695 117.563 75.6038L115.34 77.2188C115.072 77.4136 114.749 77.5185 114.417 77.5186C114.086 77.5186 113.763 77.4137 113.495 77.2189C113.227 77.0241 113.027 76.7495 112.925 76.4344C112.822 76.1192 112.822 75.7797 112.925 75.4646L113.774 72.8514C113.845 72.6343 113.845 72.4003 113.774 72.1831C113.704 71.9658 113.566 71.7766 113.381 71.6427L111.158 70.0277C110.89 69.8329 110.691 69.5582 110.588 69.243C110.486 68.9279 110.486 68.5884 110.588 68.2732C110.691 67.958 110.89 67.6834 111.158 67.4886C111.426 67.2938 111.749 67.1889 112.081 67.1889H114.828C115.057 67.1893 115.279 67.1172 115.464 66.983C115.649 66.8488 115.786 66.6594 115.856 66.4421L116.705 63.8289C116.808 63.5137 117.007 63.239 117.275 63.0442C117.544 62.8494 117.867 62.7444 118.198 62.7444C118.529 62.7444 118.852 62.8494 119.12 63.0442C119.388 63.239 119.588 63.5137 119.69 63.8289L120.539 66.4421C120.61 66.6594 120.747 66.8488 120.932 66.983C121.117 67.1172 121.339 67.1893 121.567 67.1889H124.315C124.646 67.1889 124.969 67.2938 125.237 67.4886C125.506 67.6834 125.705 67.958 125.808 68.2732C125.91 68.5884 125.91 68.9279 125.808 69.243C125.705 69.5582 125.506 69.8329 125.238 70.0277L123.015 71.6427C122.83 71.7766 122.692 71.9658 122.621 72.1831C122.551 72.4003 122.551 72.6343 122.622 72.8514L123.471 75.4646C123.577 75.7794 123.579 76.1201 123.476 76.436C123.374 76.752 123.172 77.0265 122.901 77.2188C122.634 77.416 122.311 77.5229 121.979 77.5243V77.5243Z" fill="#9FC8FE"/>
<path d="M159.47 77.6791C159.105 77.6777 158.75 77.5603 158.457 77.344C158.159 77.1327 157.937 76.8311 157.824 76.4839C157.712 76.1368 157.714 75.7625 157.83 75.4166L158.679 72.8035C158.74 72.6174 158.74 72.4169 158.68 72.2308C158.619 72.0447 158.501 71.8825 158.343 71.7678L156.12 70.1526C155.825 69.9386 155.606 69.6369 155.494 69.2907C155.381 68.9445 155.381 68.5716 155.494 68.2254C155.606 67.8792 155.825 67.5775 156.12 67.3635C156.414 67.1496 156.769 67.0344 157.133 67.0344H159.881C160.076 67.0347 160.267 66.9729 160.426 66.8579C160.584 66.7428 160.702 66.5804 160.762 66.3942L161.611 63.7811C161.723 63.4349 161.943 63.1332 162.237 62.9192C162.532 62.7053 162.886 62.59 163.25 62.59C163.614 62.59 163.969 62.7053 164.263 62.9192C164.558 63.1332 164.777 63.4349 164.89 63.7811L165.739 66.3942C165.799 66.5804 165.917 66.7428 166.075 66.8579C166.233 66.9729 166.424 67.0347 166.62 67.0344H169.367C169.731 67.0344 170.086 67.1496 170.381 67.3636C170.675 67.5776 170.894 67.8792 171.007 68.2254C171.119 68.5716 171.119 68.9445 171.007 69.2907C170.894 69.6369 170.675 69.9386 170.381 70.1526L168.158 71.7678C167.999 71.8825 167.881 72.0446 167.821 72.2307C167.76 72.4169 167.76 72.6174 167.821 72.8035L168.67 75.4166C168.783 75.7628 168.783 76.1357 168.67 76.4819C168.558 76.8281 168.338 77.1298 168.044 77.3437C167.75 77.5577 167.395 77.6729 167.031 77.6729C166.667 77.6729 166.312 77.5577 166.018 77.3438L163.795 75.7288C163.637 75.6134 163.446 75.5513 163.25 75.5513C163.054 75.5513 162.864 75.6134 162.706 75.7288L160.483 77.3438C160.189 77.5603 159.834 77.6777 159.47 77.6791V77.6791ZM163.25 74.7536C163.614 74.7537 163.969 74.8693 164.263 75.0837L166.486 76.6987C166.644 76.8138 166.835 76.8758 167.031 76.8758C167.226 76.8758 167.417 76.8139 167.575 76.6989C167.734 76.5839 167.852 76.4217 167.912 76.2356C167.972 76.0495 167.972 75.8491 167.912 75.663L167.063 73.0499C166.95 72.7037 166.949 72.3306 167.062 71.9842C167.174 71.6379 167.394 71.3362 167.689 71.1227L169.912 69.5076C170.07 69.3926 170.188 69.2304 170.248 69.0443C170.309 68.8583 170.309 68.6579 170.248 68.4718C170.188 68.2857 170.07 68.1236 169.912 68.0086C169.754 67.8936 169.563 67.8317 169.367 67.8317H166.62C166.256 67.8323 165.901 67.7174 165.606 67.5033C165.311 67.2893 165.092 66.9872 164.98 66.6406L164.131 64.0275C164.071 63.8414 163.953 63.6793 163.795 63.5642C163.636 63.4492 163.446 63.3873 163.25 63.3873C163.055 63.3873 162.864 63.4492 162.706 63.5642C162.547 63.6793 162.43 63.8414 162.369 64.0275L161.52 66.6406C161.408 66.9872 161.189 67.2893 160.894 67.5033C160.6 67.7174 160.245 67.8323 159.881 67.8317H157.133C156.937 67.8316 156.747 67.8936 156.588 68.0086C156.43 68.1235 156.312 68.2857 156.252 68.4718C156.191 68.6578 156.191 68.8583 156.252 69.0443C156.312 69.2304 156.43 69.3926 156.588 69.5076L158.811 71.1227C159.106 71.3363 159.326 71.6379 159.439 71.9843C159.551 72.3306 159.551 72.7038 159.438 73.0499L158.588 75.663C158.528 75.8491 158.528 76.0495 158.588 76.2356C158.649 76.4216 158.767 76.5838 158.925 76.6988C159.083 76.8138 159.274 76.8757 159.47 76.8757C159.665 76.8757 159.856 76.8137 160.014 76.6987L162.237 75.0837C162.531 74.8693 162.886 74.7537 163.25 74.7536V74.7536Z" fill="#3F3D56"/>
<path d="M136.747 77.6151C136.383 77.6137 136.028 77.4963 135.734 77.2799C135.437 77.0687 135.215 76.7671 135.102 76.4199C134.989 76.0727 134.991 75.6985 135.108 75.3526L135.957 72.7394C136.018 72.5534 136.018 72.3529 135.958 72.1668C135.897 71.9806 135.779 71.8185 135.621 71.7037L133.398 70.0886C133.103 69.8746 132.884 69.5729 132.772 69.2267C132.659 68.8805 132.659 68.5076 132.772 68.1614C132.884 67.8152 133.103 67.5135 133.398 67.2995C133.692 67.0856 134.047 66.9704 134.411 66.9704H137.159C137.354 66.9707 137.545 66.9089 137.704 66.7939C137.862 66.6788 137.98 66.5164 138.04 66.3302L138.889 63.7171C139.001 63.3709 139.221 63.0692 139.515 62.8552C139.81 62.6413 140.164 62.526 140.528 62.526C140.892 62.526 141.247 62.6413 141.541 62.8552C141.836 63.0692 142.055 63.3709 142.168 63.7171L143.017 66.3302C143.077 66.5164 143.194 66.6788 143.353 66.7939C143.511 66.9089 143.702 66.9707 143.898 66.9704H146.645C147.009 66.9704 147.364 67.0856 147.659 67.2996C147.953 67.5136 148.172 67.8152 148.285 68.1614C148.397 68.5076 148.397 68.8805 148.285 69.2267C148.172 69.5729 147.953 69.8746 147.659 70.0886L145.436 71.7038C145.277 71.8185 145.159 71.9806 145.099 72.1667C145.038 72.3529 145.038 72.5534 145.099 72.7395L145.948 75.3526C146.061 75.6988 146.061 76.0717 145.948 76.4179C145.836 76.7641 145.616 77.0658 145.322 77.2797C145.027 77.4937 144.673 77.6089 144.309 77.6089C143.945 77.6089 143.59 77.4937 143.296 77.2798L141.073 75.6648C140.915 75.5494 140.724 75.4873 140.528 75.4873C140.332 75.4873 140.142 75.5494 139.984 75.6648L137.761 77.2798C137.467 77.4963 137.112 77.6137 136.747 77.6151V77.6151ZM140.528 74.6896C140.892 74.6897 141.247 74.8053 141.541 75.0197L143.764 76.6347C143.922 76.7497 144.113 76.8117 144.309 76.8118C144.504 76.8118 144.695 76.7499 144.853 76.6349C145.012 76.5199 145.129 76.3577 145.19 76.1716C145.25 75.9855 145.25 75.7851 145.19 75.599L144.341 72.9859C144.228 72.6397 144.227 72.2666 144.34 71.9202C144.452 71.5739 144.672 71.2722 144.967 71.0587L147.19 69.4435C147.348 69.3285 147.466 69.1664 147.526 68.9803C147.587 68.7943 147.587 68.5938 147.526 68.4078C147.466 68.2217 147.348 68.0596 147.19 67.9446C147.032 67.8296 146.841 67.7676 146.645 67.7676H143.898C143.533 67.7683 143.178 67.6533 142.884 67.4393C142.589 67.2252 142.37 66.9232 142.258 66.5766L141.409 63.9635C141.349 63.7774 141.231 63.6152 141.073 63.5002C140.914 63.3852 140.724 63.3233 140.528 63.3233C140.332 63.3233 140.142 63.3852 139.984 63.5002C139.825 63.6152 139.707 63.7774 139.647 63.9635L138.798 66.5766C138.686 66.9232 138.467 67.2252 138.172 67.4393C137.878 67.6533 137.523 67.7683 137.159 67.7676H134.411C134.215 67.7676 134.025 67.8296 133.866 67.9445C133.708 68.0595 133.59 68.2217 133.53 68.4077C133.469 68.5938 133.469 68.7942 133.53 68.9803C133.59 69.1664 133.708 69.3285 133.866 69.4435L136.089 71.0587C136.384 71.2722 136.604 71.5739 136.717 71.9203C136.829 72.2666 136.829 72.6397 136.716 72.9859L135.866 75.599C135.806 75.7851 135.806 75.9855 135.866 76.1716C135.927 76.3576 136.045 76.5198 136.203 76.6348C136.361 76.7497 136.552 76.8117 136.747 76.8117C136.943 76.8117 137.134 76.7497 137.292 76.6347L139.515 75.0197C139.809 74.8053 140.164 74.6897 140.528 74.6896V74.6896Z" fill="#3F3D56"/>
<path d="M21.9248 11.959C21.2376 11.959 20.5786 12.232 20.0926 12.7179C19.6067 13.2038 19.3337 13.8629 19.3337 14.5501C19.3337 15.2373 19.6067 15.8964 20.0926 16.3823C20.5786 16.8682 21.2376 17.1412 21.9248 17.1412H153.075C153.762 17.1412 154.421 16.8682 154.907 16.3823C155.393 15.8964 155.666 15.2373 155.666 14.5501C155.666 13.8629 155.393 13.2038 154.907 12.7179C154.421 12.232 153.762 11.959 153.075 11.959H21.9248Z" fill="#CCCCCC"/>
<path d="M21.9248 25.5125C21.2376 25.5125 20.5786 25.7855 20.0926 26.2714C19.6067 26.7574 19.3337 27.4164 19.3337 28.1036C19.3337 28.7908 19.6067 29.4499 20.0926 29.9358C20.5786 30.4218 21.2376 30.6947 21.9248 30.6947H153.075C153.762 30.6947 154.421 30.4218 154.907 29.9358C155.393 29.4499 155.666 28.7908 155.666 28.1036C155.666 27.4164 155.393 26.7574 154.907 26.2714C154.421 25.7855 153.762 25.5125 153.075 25.5125H21.9248Z" fill="#CCCCCC"/>
<path d="M21.9248 39.066C21.2376 39.066 20.5786 39.339 20.0926 39.825C19.6067 40.3109 19.3337 40.9699 19.3337 41.6572C19.3337 42.3444 19.6067 43.0034 20.0926 43.4893C20.5786 43.9753 21.2376 44.2483 21.9248 44.2483H153.075C153.762 44.2483 154.421 43.9753 154.907 43.4893C155.393 43.0034 155.666 42.3444 155.666 41.6572C155.666 40.9699 155.393 40.3109 154.907 39.825C154.421 39.339 153.762 39.066 153.075 39.066H21.9248Z" fill="#CCCCCC"/>
<path d="M21.9248 11.959C21.2376 11.959 20.5786 12.232 20.0926 12.7179C19.6067 13.2038 19.3337 13.8629 19.3337 14.5501C19.3337 15.2373 19.6067 15.8964 20.0926 16.3823C20.5786 16.8682 21.2376 17.1412 21.9248 17.1412H153.075C153.762 17.1412 154.421 16.8682 154.907 16.3823C155.393 15.8964 155.666 15.2373 155.666 14.5501C155.666 13.8629 155.393 13.2038 154.907 12.7179C154.421 12.232 153.762 11.959 153.075 11.959H21.9248Z" fill="#CCCCCC"/>
<path d="M21.9248 25.5125C21.2376 25.5125 20.5786 25.7855 20.0926 26.2714C19.6067 26.7574 19.3337 27.4164 19.3337 28.1036C19.3337 28.7908 19.6067 29.4499 20.0926 29.9358C20.5786 30.4218 21.2376 30.6947 21.9248 30.6947H153.075C153.762 30.6947 154.421 30.4218 154.907 29.9358C155.393 29.4499 155.666 28.7908 155.666 28.1036C155.666 27.4164 155.393 26.7574 154.907 26.2714C154.421 25.7855 153.762 25.5125 153.075 25.5125H21.9248Z" fill="#CCCCCC"/>
<path d="M21.9248 39.066C21.2376 39.066 20.5786 39.339 20.0926 39.825C19.6067 40.3109 19.3337 40.9699 19.3337 41.6572C19.3337 42.3444 19.6067 43.0034 20.0926 43.4893C20.5786 43.9753 21.2376 44.2483 21.9248 44.2483H153.075C153.762 44.2483 154.421 43.9753 154.907 43.4893C155.393 43.0034 155.666 42.3444 155.666 41.6572C155.666 40.9699 155.393 40.3109 154.907 39.825C154.421 39.339 153.762 39.066 153.075 39.066H21.9248Z" fill="#CCCCCC"/>
</svg>
