<svg width="11" height="6" viewBox="0 0 11 6" fill="none" xmlns="http://www.w3.org/2000/svg">
<path d="M5.92922 5.43L10.8243 1.20209C10.9376 1.10431 11 0.973769 11 0.834582C11 0.695395 10.9376 0.564859 10.8243 0.467072L10.4639 0.155717C10.229 -0.0468849 9.84733 -0.0468849 9.61285 0.155717L5.50228 3.70599L1.38715 0.151777C1.27384 0.0539906 1.1228 -4.33133e-07 0.961732 -4.40196e-07C0.800489 -4.47267e-07 0.649442 0.0539906 0.536044 0.151777L0.17573 0.463133C0.0624218 0.560996 -3.01278e-08 0.691455 -3.61924e-08 0.830642C-4.2257e-08 0.969829 0.0624218 1.10037 0.17573 1.19815L5.07525 5.43C5.18892 5.52801 5.34068 5.58185 5.50201 5.58154C5.66397 5.58185 5.81564 5.52801 5.92922 5.43Z" fill="white"/>
</svg>
