<svg width="17" height="17" viewBox="0 0 17 17" fill="none" xmlns="http://www.w3.org/2000/svg">
<path d="M5.6388 17C4.89964 16.9964 4.16856 16.8459 3.48812 16.5571C2.80768 16.2684 2.19147 15.8472 1.67536 15.318C1.16312 14.8325 0.751643 14.2508 0.464475 13.6061C0.177307 12.9614 0.0200835 12.2664 0.00180148 11.5609C-0.0164805 10.8554 0.104538 10.1532 0.357932 9.49447C0.611326 8.83577 0.992121 8.2335 1.47853 7.72213L8.0634 1.07463C8.41505 0.723628 8.83418 0.447528 9.29549 0.263002C9.75681 0.0784761 10.2507 -0.0106472 10.7474 0.00101279C11.2795 0.00282465 11.8059 0.110557 12.2959 0.317927C12.7859 0.525297 13.2297 0.828154 13.6015 1.20884C14.3414 1.92122 14.7705 2.89667 14.7956 3.92346C14.8207 4.95026 14.4399 5.94553 13.7357 6.69325L7.11503 13.3407C6.90298 13.5542 6.65063 13.7235 6.37265 13.8387C6.09466 13.9539 5.79656 14.0127 5.49566 14.0118C5.1706 14.0122 4.84874 13.9475 4.5491 13.8215C4.24945 13.6955 3.97809 13.5107 3.75102 13.2781C3.29718 12.8387 3.03507 12.2379 3.02167 11.6064C3.00827 10.9748 3.24465 10.3634 3.67945 9.90516L9.79014 3.76763C9.96405 3.65213 10.1729 3.60108 10.3805 3.62333C10.588 3.64558 10.7813 3.73972 10.9268 3.88945C11.0723 4.03918 11.1608 4.23508 11.1771 4.44321C11.1933 4.65135 11.1363 4.85862 11.0159 5.02913L4.90516 11.1667C4.80327 11.2894 4.75367 11.4473 4.76706 11.6063C4.78045 11.7653 4.85575 11.9126 4.97674 12.0166C5.10263 12.1434 5.27235 12.217 5.45092 12.2224C5.51707 12.2233 5.58275 12.2112 5.64417 12.1866C5.7056 12.162 5.76155 12.1255 5.80879 12.0792L12.4205 5.43174C12.7916 5.01945 12.9856 4.47768 12.9605 3.92353C12.9354 3.36938 12.6932 2.84737 12.2863 2.47034C11.9084 2.07797 11.3944 1.84537 10.8502 1.82041C10.306 1.79544 9.77295 1.98001 9.36069 2.33614L2.74898 8.94785C2.42747 9.29317 2.17742 9.69866 2.01321 10.141C1.84901 10.5833 1.77389 11.0538 1.79219 11.5252C1.81048 11.9967 1.92182 12.4599 2.11981 12.8882C2.31779 13.3164 2.59851 13.7013 2.94581 14.0207C3.29409 14.3817 3.71082 14.6698 4.17167 14.8679C4.63252 15.0661 5.12823 15.1704 5.62986 15.1748C6.06236 15.1784 6.4913 15.0964 6.89204 14.9336C7.29277 14.7709 7.6574 14.5306 7.96498 14.2265L14.5767 7.57898C14.6595 7.49556 14.758 7.42928 14.8664 7.38391C14.9749 7.33853 15.0912 7.31497 15.2088 7.31455C15.3263 7.31414 15.4428 7.33688 15.5516 7.38148C15.6603 7.42609 15.7593 7.49168 15.8427 7.57451C15.9261 7.65734 15.9924 7.75579 16.0377 7.86424C16.0831 7.97269 16.1067 8.08902 16.1071 8.20657C16.1075 8.32413 16.0848 8.44062 16.0402 8.54938C15.9956 8.65815 15.93 8.75707 15.8471 8.84049L9.23543 15.488C8.766 15.9657 8.20631 16.3454 7.58887 16.605C6.97144 16.8645 6.30858 16.9988 5.6388 17Z" fill="#72738E"/>
</svg>
