<svg width="20" height="21" viewBox="0 0 20 21" fill="none" xmlns="http://www.w3.org/2000/svg">
<path d="M1.99987 15.9992H3.99974V20.08L9.10041 15.9992H13.9991C15.102 15.9992 15.999 15.1023 15.999 13.9994V5.99987C15.999 4.89694 15.102 4 13.9991 4H1.99987C0.896942 4 0 4.89694 0 5.99987V13.9994C0 15.1023 0.896942 15.9992 1.99987 15.9992Z" fill="#72738E"/>
<path d="M17.9825 0H5.98327C4.88034 0 3.9834 0.896942 3.9834 1.99987H15.9826C17.0855 1.99987 17.9825 2.89681 17.9825 3.99974V11.9992C19.0854 11.9992 19.9824 11.1023 19.9824 9.99935V1.99987C19.9824 0.896942 19.0854 0 17.9825 0Z" fill="#72738E"/>
</svg>
