<svg width="15" height="15" viewBox="0 0 15 15" fill="none" xmlns="http://www.w3.org/2000/svg">
<path d="M14.4152 0.212128C14.1294 -0.0707092 13.6666 -0.0707092 13.3809 0.212128L7.31476 6.21625L1.24865 0.212128C0.962895 -0.0707092 0.500006 -0.0707092 0.214317 0.212128C-0.0714391 0.494964 -0.0714391 0.953121 0.214317 1.23589L6.28043 7.24001L0.214317 13.2441C-0.0714391 13.527 -0.0714391 13.9851 0.214317 14.2679C0.357161 14.4093 0.544374 14.48 0.731519 14.48C0.918663 14.48 1.10581 14.4093 1.24872 14.2679L7.31483 8.26378L13.381 14.2679C13.5238 14.4093 13.711 14.48 13.8982 14.48C14.0853 14.48 14.2724 14.4093 14.4153 14.2679C14.7011 13.9851 14.7011 13.5269 14.4153 13.2441L8.34924 7.24001L14.4153 1.23589C14.7009 0.953121 14.7009 0.494964 14.4152 0.212128Z" fill="#72738E"/>
</svg>
