<svg width="20" height="18" viewBox="0 0 20 18" fill="none" xmlns="http://www.w3.org/2000/svg">
<path d="M16.75 0.000999928C17.1768 0.000999928 17.5994 0.0850638 17.9937 0.248392C18.388 0.411719 18.7463 0.651112 19.0481 0.952903C19.3499 1.25469 19.5893 1.61297 19.7526 2.00728C19.9159 2.40159 20 2.8242 20 3.251V13.754C20 14.1808 19.9159 14.6034 19.7526 14.9977C19.5893 15.392 19.3499 15.7503 19.0481 16.0521C18.7463 16.3539 18.388 16.5933 17.9937 16.7566C17.5994 16.9199 17.1768 17.004 16.75 17.004H3.25C2.38805 17.004 1.5614 16.6616 0.951903 16.0521C0.34241 15.4426 0 14.616 0 13.754V3.25C0 2.38805 0.34241 1.5614 0.951903 0.951903C1.5614 0.34241 2.38805 0 3.25 0H16.75V0.000999928ZM6.015 5.372C4.388 5.372 3.261 6.782 3.261 8.495C3.261 10.208 4.389 11.621 6.015 11.621C6.902 11.621 7.718 11.194 8.126 10.407L8.203 10.245L8.226 10.175L8.244 10.1L8.252 10.017V8.497L8.245 8.404C8.22542 8.27333 8.16494 8.15222 8.07223 8.05807C7.97952 7.96393 7.85936 7.90159 7.729 7.88L7.627 7.872H6.625L6.533 7.878C6.40239 7.89772 6.28136 7.95826 6.18724 8.05094C6.09312 8.14362 6.03073 8.26371 6.009 8.394L6 8.497L6.007 8.589C6.047 8.857 6.257 9.069 6.523 9.113L6.625 9.122H7.001V9.855L6.995 9.87C6.806 10.19 6.443 10.37 6.015 10.37C5.149 10.37 4.511 9.572 4.511 8.495C4.511 7.419 5.148 6.622 6.015 6.622C6.436 6.622 6.675 6.669 6.975 6.812C7.12369 6.87932 7.29282 6.88581 7.44623 6.83007C7.59963 6.77433 7.72515 6.66078 7.79594 6.51371C7.86674 6.36664 7.87719 6.19772 7.82506 6.04304C7.77293 5.88837 7.66237 5.76022 7.517 5.686C7.034 5.454 6.612 5.372 6.015 5.372ZM10.629 5.494C10.4792 5.49405 10.3344 5.54788 10.221 5.64571C10.1076 5.74354 10.033 5.87885 10.011 6.027L10.004 6.119V10.882L10.011 10.974C10.0333 11.1219 10.108 11.2569 10.2214 11.3545C10.3348 11.4521 10.4794 11.5057 10.629 11.5057C10.7786 11.5057 10.9232 11.4521 11.0366 11.3545C11.15 11.2569 11.2247 11.1219 11.247 10.974L11.254 10.882V6.119L11.247 6.027C11.225 5.87885 11.1504 5.74354 11.037 5.64571C10.9236 5.54788 10.7788 5.49405 10.629 5.494ZM15.622 5.501L13.625 5.494C13.4753 5.49346 13.3304 5.54666 13.2166 5.64392C13.1028 5.74118 13.0278 5.87605 13.005 6.024L12.998 6.117V10.865L13.004 10.958C13.044 11.226 13.254 11.438 13.52 11.482L13.623 11.49L13.715 11.484C13.983 11.444 14.195 11.234 14.239 10.968L14.248 10.865L14.247 9.75H15.37L15.462 9.744C15.73 9.704 15.942 9.494 15.987 9.228L15.995 9.126L15.988 9.034C15.9686 8.90315 15.9082 8.78182 15.8155 8.68747C15.7228 8.59313 15.6025 8.53064 15.472 8.509L15.37 8.501H14.247V6.745L15.617 6.751L15.71 6.745C15.8587 6.724 15.9949 6.65016 16.0936 6.53698C16.1924 6.4238 16.247 6.27885 16.2476 6.12866C16.2482 5.97847 16.1947 5.83309 16.0969 5.71912C15.9991 5.60514 15.8635 5.5302 15.715 5.508L15.622 5.501L13.625 5.494L15.622 5.501Z" fill="#72738E"/>
</svg>
