<svg width="20" height="17" viewBox="0 0 20 17" fill="none" xmlns="http://www.w3.org/2000/svg">
<path d="M0 2.42857C0 1.78447 0.255867 1.16676 0.711312 0.711312C1.16676 0.255867 1.78447 0 2.42857 0H17C17.6441 0 18.2618 0.255867 18.7173 0.711312C19.1727 1.16676 19.4286 1.78447 19.4286 2.42857V14.5714C19.4286 15.2155 19.1727 15.8332 18.7173 16.2887C18.2618 16.7441 17.6441 17 17 17H2.42857C1.78447 17 1.16676 16.7441 0.711312 16.2887C0.255867 15.8332 0 15.2155 0 14.5714V2.42857ZM1.21429 13.3571V14.5714C1.21429 14.8935 1.34222 15.2023 1.56994 15.4301C1.79766 15.6578 2.10652 15.7857 2.42857 15.7857H17C17.322 15.7857 17.6309 15.6578 17.8586 15.4301C18.0864 15.2023 18.2143 14.8935 18.2143 14.5714V10.3214L13.6279 7.95721C13.5141 7.90017 13.3851 7.88038 13.2594 7.90065C13.1336 7.92092 13.0175 7.98021 12.9273 8.07014L8.42229 12.5751L5.19229 10.4234C5.07566 10.3458 4.93578 10.3109 4.79635 10.3246C4.65693 10.3383 4.52653 10.3998 4.42729 10.4987L1.21429 13.3571ZM7.28571 5.46429C7.28571 4.98121 7.09381 4.51793 6.75223 4.17634C6.41065 3.83476 5.94736 3.64286 5.46429 3.64286C4.98121 3.64286 4.51792 3.83476 4.17634 4.17634C3.83476 4.51793 3.64286 4.98121 3.64286 5.46429C3.64286 5.94736 3.83476 6.41065 4.17634 6.75223C4.51792 7.09381 4.98121 7.28571 5.46429 7.28571C5.94736 7.28571 6.41065 7.09381 6.75223 6.75223C7.09381 6.41065 7.28571 5.94736 7.28571 5.46429Z" fill="#72738E"/>
</svg>
