<svg width="23" height="23" viewBox="0 0 23 23" fill="none" xmlns="http://www.w3.org/2000/svg">
<rect width="23" height="23" rx="2" transform="matrix(-1 0 0 1 23 0)" fill="#72738E"/>
<path d="M4.63221 4.045L18.082 10.6722C18.1553 10.7084 18.2171 10.7643 18.2603 10.8337C18.3034 10.9032 18.3263 10.9833 18.3263 11.0651C18.3263 11.1468 18.3034 11.227 18.2603 11.2964C18.2171 11.3658 18.1553 11.4218 18.082 11.4579L4.63133 18.0851C4.55598 18.1221 4.47157 18.1367 4.38817 18.1271C4.30476 18.1175 4.22587 18.0842 4.16089 18.031C4.09592 17.9778 4.04759 17.9071 4.02167 17.8273C3.99574 17.7474 3.99332 17.6618 4.01468 17.5806L5.34696 12.5484C5.36855 12.467 5.41318 12.3935 5.47548 12.3368C5.53777 12.2801 5.61511 12.2426 5.6982 12.2287L11.7254 11.224C11.7613 11.2181 11.7952 11.2033 11.8239 11.181C11.8527 11.1586 11.8754 11.1295 11.8901 11.0962L11.9058 11.0436C11.914 10.9949 11.9055 10.9449 11.8816 10.9016C11.8578 10.8583 11.82 10.8244 11.7745 10.8054L11.7254 10.7913L5.66492 9.7814C5.58198 9.76739 5.50484 9.72978 5.4427 9.67308C5.38057 9.61639 5.33608 9.543 5.31455 9.46169L4.01468 4.55041C3.9931 4.46916 3.99535 4.38341 4.02118 4.30341C4.04701 4.2234 4.09532 4.15252 4.16034 4.09923C4.22536 4.04594 4.30434 4.01249 4.38786 4.00288C4.47138 3.99326 4.5559 4.00788 4.63133 4.045H4.63221Z" fill="white"/>
</svg>
