<svg width="19" height="22" viewBox="0 0 19 22" fill="none" xmlns="http://www.w3.org/2000/svg">
<path d="M6.63542 0C6.45584 0 6.28362 0.0713354 6.15665 0.198313C6.02967 0.325291 5.95833 0.49751 5.95833 0.677083C5.95833 0.856657 6.02967 1.02888 6.15665 1.15585C6.28362 1.28283 6.45584 1.35417 6.63542 1.35417H11.7813C11.9608 1.35417 12.133 1.28283 12.26 1.15585C12.387 1.02888 12.4583 0.856657 12.4583 0.677083C12.4583 0.49751 12.387 0.325291 12.26 0.198313C12.133 0.0713354 11.9608 0 11.7813 0H6.63542ZM0 11.9167C0 6.83096 4.12263 2.70833 9.20833 2.70833C14.294 2.70833 18.4167 6.83096 18.4167 11.9167C18.4167 17.0024 14.294 21.125 9.20833 21.125C4.12263 21.125 0 17.0024 0 11.9167ZM8.53125 11.7813C8.53125 11.9608 8.60259 12.133 8.72956 12.26C8.85654 12.387 9.02876 12.4583 9.20833 12.4583C9.38791 12.4583 9.56013 12.387 9.68711 12.26C9.81408 12.133 9.88542 11.9608 9.88542 11.7813V6.63542C9.88542 6.45584 9.81408 6.28363 9.68711 6.15665C9.56013 6.02967 9.38791 5.95833 9.20833 5.95833C9.02876 5.95833 8.85654 6.02967 8.72956 6.15665C8.60259 6.28363 8.53125 6.45584 8.53125 6.63542V11.7813ZM15.9066 2.90658C15.9695 2.84369 16.0441 2.7938 16.1263 2.75976C16.2084 2.72573 16.2965 2.70821 16.3854 2.70821C16.4743 2.70821 16.5624 2.72573 16.6446 2.75976C16.7267 2.7938 16.8014 2.84369 16.8643 2.90658L18.2184 4.26075C18.3454 4.38775 18.4168 4.55999 18.4168 4.73958C18.4168 4.91918 18.3454 5.09142 18.2184 5.21842C18.0914 5.34541 17.9192 5.41676 17.7396 5.41676C17.56 5.41676 17.3877 5.34541 17.2608 5.21842L15.9066 3.86425C15.8437 3.80138 15.7938 3.72673 15.7598 3.64457C15.7257 3.56241 15.7082 3.47435 15.7082 3.38542C15.7082 3.29649 15.7257 3.20843 15.7598 3.12627C15.7938 3.04411 15.8437 2.96946 15.9066 2.90658Z" fill="#454545" fill-opacity="0.8"/>
</svg>
